<svg xmlns="http://www.w3.org/2000/svg" width="1536" height="1024">
  <path fill="#ABC3AD" d="m962 870 12 24 5 14-21-35 4-3ZM1107 346l48-31v1l-31 22-15 12-2-4Z"/>
  <path fill="#70B1B1" d="m573 870 4 3-15 25-10 15 21-43ZM429 345l-55-32c20 7 38 19 58 28l-3 4ZM417 688l2 4c-17 9-35 19-54 25l52-29Z"/>
  <path fill="#ABC3AD" d="M942 178c9-17 20-32 30-48 2-3 8-13 11-14l-36 65-5-3Z"/>
  <path fill="#70B1B1" d="m1118 687 33 18 19 11-57-20 5-9ZM588 181l-19-34c-6-12-14-23-18-36l17 26 25 42-5 2Z"/>
  <path fill="#032746" d="M732 138c2-19 9-37 15-54l16-47c1-2 1-4 3-5l1 2-3 9-4 15-17 59-4 14-2 4c-1 2-3 2-5 3ZM339 523l52 19c5 47 17 96 40 138l-14 7c-15-37-23-78-26-118-13-3-26-9-38-14l-56-20 25-7c5-1 11-2 16-5h1ZM1147 539l49-15h1c15 5 31 6 46 11l-96 33-3 17-5 30c-6 24-14 48-22 71l-13-4c15-32 27-64 35-98l5-31c1-3 0-12 2-13l1-1Z"/>
  <path fill="#032746" d="m1104 682 13 4 1 1-5 9h-1c-3 11-9 21-15 31a387 387 0 0 1-133 141l-2 1-5-10-9-18a419 419 0 0 0 152-151l4-8Z"/>
  <path fill="#084C5D" d="m1104 682 13 4 1 1-5 9h-1l-12-6 4-8Z"/>
  <path fill="#032746" d="m417 687 14-7 2 4a404 404 0 0 0 155 157c-5 9-9 20-15 29-2-3-6-5-8-6l-13-9-27-22c-36-32-65-67-89-108l-17-33-2-4v-1Z"/>
  <path fill="#084C5D" d="m417 687 14-7 2 4c-4 2-11 5-14 8l-2-4v-1Z"/>
  <path fill="#032746" d="m588 841 7 4c15 7 30 15 46 21 22 8 45 14 68 18l22 3h4l1 1 2 6 5 16 24 75 33-97a424 424 0 0 0 142-43l6-4 9 18 5 10v1l-4 3c-5 0-12 7-16 9l-35 17c-24 10-49 17-75 22l-36 6c-4 4-6 14-8 19l-21 56-3-7-6-16-19-53c-43-5-84-16-123-34l-24-12-14-7h-1l-4-3c6-9 10-20 15-29Z"/>
  <path fill="#084C5D" d="m942 845 6-4 9 18 5 10v1l-4 3-16-28ZM588 841l7 4-17 28h-1l-4-3c6-9 10-20 15-29Z"/>
  <path fill="#C1711F" d="m1126 545 16-10 4 4h1l-1 1c-2 1-1 10-2 13l-5 31c-8 34-20 66-35 98l-4 8a419 419 0 0 1-151 151l-7 4a424 424 0 0 1-142 43l-33 97-24-75-5-16-2-6-1-1h-4c4 0 6 0 10-3l-5-12v-3l-1-16c1-7 6-15 11-20l1 2 11-6c9-3 18 0 27 4l3-1c6-2 12-2 18-2l23-4a331 331 0 0 0 258-259l4-32 5 4c9 6 19 8 29 6h1Z"/>
  <path fill="#032746" d="M1016 745h3c1 0 4 1 5 3 2 2 2 5 2 7-1 3-3 5-6 6h-4c-2 0-4-2-5-3v-7c1-3 2-4 5-6Z"/>
  <path fill="#084C5D" d="m747 835 11-6c9-3 18 0 27 4l3-1 1 1 5 6c6 9 7 18 5 28-2 9-7 14-14 19-7 4-14 7-23 5-12-2-19-10-26-19v-3l-1-16c1-7 6-15 11-20l1 2Z"/>
  <path fill="#032746" d="m785 833 3-1 1 1 5 6c6 9 7 18 5 28-2 9-7 14-14 19-7 4-14 7-23 5-12-2-19-10-26-19v-3l-1-16c1-7 6-15 11-20l1 2c-7 9-10 16-9 27 0 7 4 13 9 18 5 4 9 6 15 8h1c7 1 13 0 19-3l2-2 6-5c4-5 7-13 7-20 0-11-5-17-12-25Z"/>
  <path fill="#05314B" d="m765 845 7 1c4 1 7 4 9 8 1 4 1 10-1 14s-6 7-10 9l-6-1c-5-2-7-4-9-8-2-5-2-10-1-15 2-4 7-6 11-8Z"/>
  <path fill="#EFBB5F" d="M764 851h6c2 0 5 3 6 4l1 8c-1 3-4 5-7 7h-5c-3-1-5-3-6-6-2-2-2-4-1-7s3-4 6-6Z"/>
  <path fill="#D88B2A" d="m1126 545 16-10 4 4h1l-1 1c-2 1-1 10-2 13l-5 31c-8 34-20 66-35 98l-4 8a419 419 0 0 1-151 151l-7 4a424 424 0 0 1-142 43l-33 97-24-75-5-16-2-6-1-1h-4c4 0 6 0 10-3 6 6 14 11 23 12 13 2 27-4 33-16l3-12h6l19-3 15-3a359 359 0 0 0 185-102c46-47 80-109 95-174 3-13 4-27 6-41Z"/>
  <defs>
    <linearGradient id="a" gradientUnits="userSpaceOnUse" x1="755.7" y1="886.3" x2="791.5" y2="38.6">
      <stop offset="0" stop-color="#DE9230"/>
      <stop offset="1" stop-color="#F1BA52"/>
    </linearGradient>
  </defs>
  <path fill="url(#a)" d="m767 34 1 1c4 9 6 20 9 29l21 72c51 6 98 18 144 42l5 3a379 379 0 0 1 160 165l2 4c13 27 24 57 30 87l3 21c1 6 1 14 3 20l107 29-56 17-49 15h-1l-4-4 2-3 2-2c4-7 6-16 4-24-2-10-6-18-14-23l-7-5c-2-4-2-9-2-14l-3-18-2-9c-1-10-5-20-8-29-14-46-37-88-67-125l-16-17c-3-6-5-7-11-10l-19-17c-42-37-92-62-145-76-9-3-20-4-30-6l-8-1-16-1-3-8c-4-8-10-14-19-17-8-3-19-3-27 1-11 5-16 13-20 23 0 7-1 13 1 20l9 15a327 327 0 0 0-293 265c-2 10-4 20-4 29v1l7 8c4 7 5 19 3 27l-1 2c-2 7-6 12-9 18a317 317 0 0 0 118 220c40 31 88 55 138 65l24 5c6 1 16 0 20 3v1a33 33 0 0 0-10 36v3l5 12c-4 3-6 3-10 3l-22-3a387 387 0 0 1-114-39l-7-4a404 404 0 0 1-155-157l-2-4c-23-42-35-91-40-138l-52-19-46-17 98-30 9-50c7-28 18-55 29-81l3-4c5-12 12-23 19-34 34-52 83-95 137-126l5-2c37-18 75-33 116-39 7-1 15-3 23-2 2-1 4-1 5-3l2-4 4-14 17-59 4-15 3-9Z"/>
  <path fill="#084C5D" d="M409 478c12-3 20-4 30 2l7 3v1l7 8c4 7 5 19 3 27l-1 2c-2 7-6 12-9 18l-9 5c-10 5-18 4-28 1-8-3-14-9-18-16-5-9-5-20-2-29 3-11 11-17 20-22Z"/>
  <path fill="#EFBB5F" d="M420 501a9 9 0 0 1 10 6v6c-1 3-4 5-7 6h-5l-5-5v-7l7-6Z"/>
  <path fill="#D88B2A" d="M409 478c0-14 3-27 6-40a365 365 0 0 1 275-277l43-7c0 7-1 13 1 20l9 15a327 327 0 0 0-293 265c-2 10-4 20-4 29l-7-3c-10-6-18-5-30-2Z"/>
  <path fill="#331C0A" d="M516 258h4c2 0 5 1 6 3 2 2 2 5 2 7-1 3-3 5-6 7h-3c-3 0-4 0-6-2s-3-5-2-7c0-4 2-6 5-8Z"/>
  <path fill="#C1711F" d="M409 545c10 3 18 4 28-1l9-5a317 317 0 0 0 118 220c40 31 88 55 138 65l24 5c6 1 16 0 20 3v1a33 33 0 0 0-10 36l-12-2c-16-1-31-5-46-9l-25-7a370 370 0 0 1-245-306Z"/>
  <path fill="#623A28" d="M518 739h6c3 1 6 3 7 6v9c-1 3-4 5-7 6h-6l-7-5v-9c2-4 4-5 7-7Z"/>
  <path fill="#05314B" d="M733 154c4-10 9-18 20-23 8-4 19-4 27-1 9 3 15 9 19 17l3 8 16 1 8 1c10 2 21 3 30 6 53 14 103 39 145 76l19 17c6 3 8 4 11 10l16 17c30 37 53 79 67 125 3 9 7 19 8 29l2 9 3 18c0 5 0 10 2 14l7 5c8 5 12 13 14 23 2 8 0 17-4 24l-2 2-2 3-16 10h-1c-10 2-20 0-29-6l-5-4-4 32a331 331 0 0 1-281 263c-6 0-12 0-18 2l-3 1c-9-4-18-7-27-4l-11 6-1-2v-1c-4-3-14-2-20-3l-24-5a317 317 0 0 1-256-286c3-5 7-10 9-17l1-2c2-8 1-20-3-27l-7-8v-1c0-9 2-19 4-29a327 327 0 0 1 293-266c-3-4-7-9-9-14-2-7-1-13-1-20Z"/>
  <path fill="#EFBB5F" d="M982 727h1l2 4-1 2h-2c-2-1-2-2-2-3l2-3ZM647 230h3c3 1 5 3 6 5v7c-2 3-4 4-7 5h-4l-5-5v-8c1-2 4-3 7-4ZM885 230h4c3 1 4 3 6 6l-1 6c-1 3-4 4-6 6l-4-1c-2-1-5-2-6-5v-6c2-3 4-5 7-6ZM490 384l6-1 5 4c1 2 2 4 1 7s-2 4-5 6l-5 1-6-5-1-7c1-3 3-4 5-5ZM488 622l5-1 6 5v7c-1 3-4 4-7 6h-3c-3-1-5-2-6-5-1-2-2-4-1-6 1-4 3-5 6-6ZM1044 383h4c2 0 4 2 6 4v8c0 2-3 4-5 5h-5c-2 0-4-2-6-4l-1-7c1-3 4-5 7-6ZM885 777h6c2 0 5 3 6 4v8c-1 3-4 4-6 5h-5l-6-3-1-8c1-3 4-5 6-6ZM645 775h4c3 1 5 3 6 6s1 6-1 8c-1 2-4 3-6 4l-6-1c-2 0-4-3-5-5l1-7c1-3 4-4 7-5ZM1044 621h5c3 1 5 3 6 6v8c-1 2-4 3-6 4h-5c-3-1-5-3-6-6v-7c1-3 3-4 6-5Z"/>
  <path fill="#FEFDFB" d="m946 328 2 1-131 112-2-11 90-70 28-21 11-9h1l1-2Z"/>
  <path fill="#ABC3AD" d="m595 332 127 98-2 11-32-27-71-61c-7-6-18-13-22-21ZM812 578l118 104-121-90 3-14ZM605 683c2-4 7-7 10-10l27-25 82-71 2 16-121 90Z"/>
  <path fill="#EFD5A7" d="m574 711 6-7a293 293 0 0 0 147 72l32 4 2 9a291 291 0 0 1-187-78Z"/>
  <defs>
    <linearGradient id="b" gradientUnits="userSpaceOnUse" x1="1032.2" y1="404" x2="978.5" y2="413.1">
      <stop offset="0" stop-color="#FFFBE7"/>
      <stop offset="1" stop-color="#fff"/>
    </linearGradient>
  </defs>
  <path fill="url(#b)" d="m961 323 5-7a274 274 0 0 1 82 185l-9-2-4-33c-7-42-25-82-50-116-7-9-17-17-24-27Z"/>
  <path fill="#FEFDFB" d="M927 371c-8 9-14 20-21 29l-45 66-24-5 78-87 23-26 16-17-20 30-5 6-2 4ZM857 551h1c3 1 71 111 78 123l-14-15-90-104 25-4ZM779 243l-2-9 36 4a280 280 0 0 1 151 76l-8 6a265 265 0 0 0-177-77ZM575 312a275 275 0 0 1 183-79l-2 11c-66 3-127 30-174 76-2-2-6-5-7-8Z"/>
  <defs>
    <linearGradient id="c" gradientUnits="userSpaceOnUse" x1="508.7" y1="628.5" x2="551.5" y2="596.7">
      <stop offset="0" stop-color="#E1D1B4"/>
      <stop offset="1" stop-color="#FFFDE7"/>
    </linearGradient>
  </defs>
  <path fill="url(#c)" d="m573 709-2-1c-53-49-81-120-84-191l10 2a261 261 0 0 0 67 169l11 11 3 3-1 2c-1 1-4 3-4 5Z"/>
  <path fill="#FEFDFB" d="M547 291c4 2 7 8 10 11l18 21-28 35c-20 28-35 59-43 92l-8 48-9 2a270 270 0 0 1 81-181l-21-27v-1Z"/>
  <path fill="#2C9D84" d="M903 408c16 22 25 45 31 71l-70-13 39-58ZM634 408l30 45c2 3 8 11 8 14l-71 13c6-26 16-51 33-72Z"/>
  <path fill="#084C5D" d="M762 134c7-1 14-1 20 3 7 4 12 11 15 19 2 7-1 16-4 22-4 8-11 12-19 14-7 1-15 0-22-3-7-4-11-11-13-18s-1-16 2-22c5-9 12-13 21-15Z"/>
  <path fill="#EFBB5F" d="m765 151 6 1c2 1 4 3 5 6v7c-2 3-5 4-8 6l-5-1-5-5v-9c1-2 4-4 7-5Z"/>
  <path fill="#2C9D84" d="M901 613c-5-5-9-14-13-21l-26-42 72-13c-5 26-14 57-33 76ZM600 537l74 12-37 64-2 2c-19-23-30-49-35-78ZM662 380l16-13c19-12 38-20 60-25l-15 84-61-46ZM799 343c29 5 54 17 77 36l-62 47-15-83Z"/>
  <path fill="#084C5D" d="M1142 531c-4 5-9 8-15 11a31 31 0 0 1-39-19c-4-9-4-18 0-27 4-8 9-12 17-15s17-3 25 1l6 1c8 5 12 13 14 23 2 8 0 17-4 24l-2 2-2-1Z"/>
  <path fill="#EFBB5F" d="m1114 501 5-1 6 4c2 3 3 6 2 10-1 3-4 5-7 7h-5c-3 0-5-3-7-5l-1-9c1-4 4-5 7-6Z"/>
  <path fill="#2C9D84" d="m662 644 65-48 14 84c-30-3-56-19-79-36ZM795 680l14-85 65 49c-23 18-50 32-79 36Z"/>
  <path fill="#EFD5A7" d="m1039 519 9-2c-2 72-33 143-85 192s-116 76-188 80l2-9h1c11 1 24-2 35-4 53-10 104-33 142-71l1-1 5-5a268 268 0 0 0 78-180Z"/>
  <path fill="#C1711F" d="M762 245v15l1 41 1 140c-14 2-26 6-38 15h-2c-1-5 5-32 6-39l22-118 10-54Z"/>
  <path fill="#FEFDFB" d="M726 560c12 8 25 13 39 15l2 223c-2-2-2-9-3-12l-5-32-33-194Z"/>
  <path fill="#C1711F" d="M807 563h1c1 5-1 12-2 17l-7 41-18 109c-3 23-6 47-11 70l-1-9V574c7 0 16-1 23-4l15-7ZM577 510h125c2 16 7 29 16 42l-244-40c4-2 10-1 14-1l25-1h64Z"/>
  <path fill="#FEFDFB" d="m816 461 161 29 54 10 21 4c3 1 7 1 10 3l-228-2c-2-17-8-30-18-44Z"/>
  <path fill="#EFD5A7" d="M929 367c4 1 7 4 10 8a218 218 0 0 1 42 95c1 5 4 13 3 17l-1 1-49-9c-6-26-15-49-31-71l16-25c3-3 6-7 8-12l2-4ZM607 366l10 15 17 27c-17 21-27 46-33 72l-50 8 4-25c7-29 20-58 38-82l14-15Z"/>
  <path fill="#C1711F" d="M834 509h246l-3 1c-15 5-33 6-48 8l-212 35c10-14 15-26 17-44Z"/>
  <path fill="#EFD5A7" d="M662 644c23 17 49 33 79 36l8 46-1 2h-1l-20-3c-38-8-75-25-104-52l39-29ZM795 680c29-4 56-18 79-36l40 29a246 246 0 0 1-126 55l-1-1 8-47Z"/>
  <path fill="#084C5D" d="m547 291-2-1 1-2c5 2 11 9 15 12l13 11 1 1c1 3 5 6 7 8l11 8 2 4c4 8 15 15 22 21l71 61 32 27-1 16-5 4 3 1-21 3-4-2-17 3-57-86-1 1-10-15-32-43-18-21c-3-3-6-9-10-11Z"/>
  <path fill="#FEFDFB" d="m618 380-17-25c-2-3-6-8-7-12l71 81c10 12 23 23 31 36v2l-4 1-17 3-57-86ZM717 462h2c-5 7-9 15-12 22s-4 14-5 22l-112 1h-30l-16 1c-7-2-16 0-23 0h-64l239-43 21-3Z"/>
  <path fill="#EFD5A7" d="m789 294 18 2c40 8 78 26 109 53-13 10-28 19-40 30-23-19-48-31-77-36l-10-49Z"/>
  <path fill="#FEFDFB" d="m768 210 47 249c-8-6-16-11-25-14-7-3-15-3-22-4V210Z"/>
  <path fill="#EFD5A7" d="m621 349 16-11c31-23 71-43 110-44l-9 48a176 176 0 0 0-76 38c-6-3-11-8-15-12l-26-19Z"/>
  <path fill="#084C5D" d="m638 614 39-64 27 4 17 1 2 17 1 5-82 71-27 25c-3 3-8 6-10 10l-3 2c-2 2-9 6-9 9l-5 3-1-1c-1-4 1-6 3-10l18-27 27-44 2-2 1 1Z"/>
  <path fill="#FEFDFB" d="m638 614 39-64 27 4-106 126c2-8 8-15 12-21l28-45Z"/>
  <path fill="#EFD5A7" d="m983 528 1 2c-4 40-18 79-43 112-4 5-8 11-13 15l-27-44c19-19 28-50 33-76l49-9ZM552 528l48 9c5 29 16 55 35 78l-27 44a211 211 0 0 1-56-119c0-3-2-8 0-12Z"/>
  <path fill="#EFBB5F" d="m756 244-6 33-3 17c-39 1-79 21-110 44l-16 11c-9-7-18-15-28-21l-11-8c47-46 108-73 174-76Z"/>
  <path fill="#05314B" d="m645 299 7 9-9 6-6-9 8-6ZM705 274h3l4 10-8 2h-2l-3-9c1-2 4-2 6-3Z"/>
  <path fill="#EFBB5F" d="m779 243 48 7c49 11 94 35 129 70-2 2-8 5-10 8l-1 2h-1c-4 1-7 4-11 7l-17 12c-31-27-69-45-109-53l-18-2-10-51Z"/>
  <path fill="#05314B" d="m829 273 9 3-3 11-9-3 3-11ZM891 301l9 6-5 7-2 1-7-5 5-9Z"/>
  <path fill="#EFBB5F" d="m575 323 32 43-14 15c-18 24-31 53-38 82l-4 25-55 10 8-48c8-33 23-64 43-92l28-35Z"/>
  <path fill="#05314B" d="m533 435 11 3-2 9-11-3 2-9ZM564 375l8 8-5 6-9-6 6-8Z"/>
  <path fill="#2C9D84" d="m914 673 41 32a272 272 0 0 1-177 75h-1l10-53 1 1c9 0 18-2 27-4 37-9 69-27 99-51Z"/>
  <path fill="#032746" d="M825 741h3l2 8c-1 2-4 3-5 3h-4l-2-9 6-2ZM884 717l7 9-6 4h-2l-6-8 7-5Z"/>
  <path fill="#EFBB5F" d="M934 361c3-2 6-8 8-11l19-27c7 10 17 18 24 27 25 34 43 74 50 116l4 33-56-11 1-1c1-4-2-12-3-17a238 238 0 0 0-42-95c-3-4-6-7-10-8l5-6Z"/>
  <path fill="#05314B" d="M975 377h2l4 6-8 5h-2l-4-7 8-4ZM1005 434l4 8-12 4-3-9 11-3Z"/>
  <path fill="#2C9D84" d="m983 528 36-5 20-4a268 268 0 0 1-78 180l-5 5v-1c-2-6-6-12-10-17l-18-29c5-4 9-10 13-15 25-33 39-72 43-112l-1-2Z"/>
  <path fill="#032746" d="m976 631 10 6-5 7-9-6 4-7ZM999 575l12 4-2 8-11-3 1-9Z"/>
  <path fill="#FEFDFB" d="M759 449c13-2 27 0 38 6 14 8 24 22 28 37 5 16 2 32-6 47-9 16-25 23-42 28-14 1-27-1-40-8s-23-21-26-35c-4-17-2-33 6-48 10-16 25-23 42-27Z"/>
  <path fill="#EFBB5F" d="M765 461c9-1 20 2 27 7 10 6 19 16 21 28s1 27-6 37c-9 13-21 18-36 21-10 1-20-2-29-7-9-6-17-16-19-27-3-13-1-27 7-38 8-13 20-18 35-21Z"/>
  <path fill="#FEFDFB" d="m766 494 7 1c4 2 7 5 8 9 2 4 1 9-1 12-2 5-6 6-11 8l-9-2c-5-3-6-8-8-13l3-8c2-5 6-6 11-7Z"/>
  <path fill="#D88B2A" d="m802 155 16 1 8 1c10 2 21 3 30 6 53 14 103 39 145 76l19 17c6 3 8 4 11 10l16 17c30 37 53 79 67 125 3 9 7 19 8 29l2 9 3 18c0 5 0 10 2 14l-8-2c-12-1-20 3-29 11l-7-43c-11-50-35-96-66-136a320 320 0 0 0-227-120c8-12 10-19 10-33Z"/>
  <path fill="#05314B" d="M1020 256c6 3 8 4 11 10l-2 5c0 3-2 5-5 7h-9c-3-1-6-4-7-7l1-7c2-5 6-6 11-8Z"/>
  <path fill="#2C9D84" d="m497 519 40 7 15 2c-2 4 0 9 0 12a211 211 0 0 0 56 118l-18 28c-2 4-4 6-3 10l1 1 5-3 30-21c29 27 66 44 104 52l20 3h1l1-2 10 54-32-4c-42-7-82-23-116-47-11-7-21-16-31-25l-6 7c-5 5-11 16-18 18l-2-2 1-2c2-3 10-13 14-15h4v-1c0-2 3-4 4-5l1-2-3-3-11-11a261 261 0 0 1-67-169Z"/>
  <path fill="#032746" d="m646 713 8 5-5 9-8-5 5-9ZM564 632l5 8-9 6-5-8 9-6ZM536 574l3-1 4 8c-2 2-5 2-7 3h-3l-4-8 7-2ZM705 738l9 2-3 11-10-2 4-11Z"/>
</svg>
