<svg xmlns="http://www.w3.org/2000/svg" width="1024" height="1024"> #fef1db
  <path fill="#fef1db" d="M349 178h2l4 1 1 4c0 2-2 3-3 4l-3 1-4-3-1-4 4-3ZM111 423c4-1 7-1 10 1 4 1 7 4 9 8 1 5 1 9-1 14s-6 7-11 9h-7l-2-1c-4-2-8-5-10-9-1-5-1-10 1-14 2-5 7-7 11-8Z"/>
  <path fill="#fef1db" d="M901 609h5c5 1 11 4 14 9s5 12 4 18c-1 4-2 6-5 9-4 6-10 8-17 9-5 0-9-1-13-4-5-4-9-9-10-15s1-13 4-17c5-6 11-8 18-9Z"/>
  <path fill="#0980AB" d="M553 885v1l10 16c8 12 20 19 34 22 12 3 26 0 36-7 6-4 11-8 15-14l6-9c29 1 59 5 88 13 5 1 15 3 19 8 2 1 2 2 1 4l-3 3c-6 4-12 6-18 7l-29 5c-47 8-95 11-143 12l-146-2c-38-2-77-5-114-13l-16-3c-6-2-15-4-18-10v-3c3-4 10-6 14-8 24-7 49-10 73-14l1 16 1 23 12-6 38-23 19-16h12l18-1 90-1Z"/>
  <path fill="#fef1db" d="m363 856-54-41-98-74-40-30c-9-7-19-13-27-21-5-5-8-11-9-18v-15c2-9 8-18 17-23 8-5 19-7 29-5h1l9 4 16 12 28 21 65 48c-1-4-6-8-9-11l-14-15-102-108-28-29-17-19c-4-4-6-10-8-15v-14c1-5 2-10 5-14a39 39 0 0 1 53-13c8 5 14 11 20 18l21 21 35 34 42 40c3 9 5 16 15 21l4 2c3 5 6 10 11 14l-4 37-8 71c-1 15-4 31-3 46 2 9 6 19 12 26 9 10 21 15 34 19l15 4c-5 9-10 17-11 27Z"/>
  <path fill="#fef1db" d="m730 605 1 1 12-13 21-25 65-74 14-18c5-6 10-13 17-18a41 41 0 0 1 54 6c7 7 10 16 9 26 0 7-2 13-5 18l-23 29-37 47-47 60-62 82 28-18 31-21c10-7 20-16 32-20 7-3 16-3 24-1a40 40 0 0 1 27 49c-3 7-7 14-13 19l-17 12-45 30-160 111v-3c1-7 1-15-1-22-4-11-12-21-18-31l27-7c14-4 27-6 37-17 5-6 9-14 10-22 2-11 0-23-1-34l-2-32-4-46-1-17-1-26 1 3 2-1c8-6 15-13 22-21l3-4v-2Z"/>
  <path fill="#082555" d="m397 252-12-107-3-24c-1-3-2-8-1-11l185-25 10 72c9-8 18-15 31-15 11 0 20 5 28 12a45 45 0 0 1 5 48l-4 8-2 4 3 9c11-10 25-16 36-25l11-12 7-9-1 17c2 14 9 27 12 42 2 9 2 19 1 29l-1 12 47-61 15-19 9-12 5-2c4-1 7 2 9 4l12 10 96 74 29 23 13 10 3 5c0 3-3 7-6 9l-43 56-81 105-4 6-4 8-8 12-7 8c-5 6-10 7-17 8l-8 18-17 30-15 28v10l-3 4a169 169 0 0 1-24 22l-1-3 1 26 1 17 4 46 2 32c1 11 3 23 1 34-1 8-5 16-10 22-10 11-23 13-37 17l-27 7c6 10 14 20 18 31 2 7 2 15 1 22v3l-2 7-6 9c-4 6-9 10-15 14a51 51 0 0 1-70-15l-10-16v-1l-90 1-18 1h-12l-19 16-38 23-12 6-1-23-1-16v-13l1-24c1-10 6-18 11-27l-15-4c-13-4-25-9-34-19-6-7-10-17-12-26-1-15 2-31 3-46l8-71 4-37c-5-4-8-9-11-14l-4-2c-10-5-12-12-15-21v-3l-15-24-24-36c-6-9-12-18-16-28l-5-2-9-7-10-18-23-36-66-106-23-36-8-13-5-8v-4l5-4 25-15 61-37 81-50 11-8 4-1c2 0 3 1 4 3l12 19 33 52c12-4 22-3 33 3l23 14 11 8Zm-80 360c3 5 6 10 11 14l1-10-12-4Z"/>
  <path fill="#00B3E2" d="m897 305 3 1c-1 5-2 8-5 11l-1-1 3-11Z"/>
  <path fill="#FEFEFD" d="m784 212 5-10h1v1l-3 12-3-3Z"/>
  <path fill="#ED610D" d="m665 294 4 2 2 1h1l-1 2v3l-8-2 2-6Z"/>
  <path fill="#FEECA0" d="m535 115-1-9v-6l3-1c2 2 2 5 1 7 0 4 0 7-2 11l-1-2Z"/>
  <path fill="#E43326" d="M627 283c3 1 8 1 11 3l-1 5c-3-1-7-1-9-3l-1-5Z"/>
  <path fill="#FAD733" d="m258 178 1 1 5 10-2 2-2-1-4-9c0-2 1-2 2-3Z"/>
  <path fill="#E43326" d="m667 224 6-7c-2 8-4 17-3 25l-6-5c1-1 5-4 5-6 0-3 0-5-2-7ZM613 271c1 2 2 6 4 7 2 2 4 2 5 2v7l-9-4v-12Z"/>
  <path fill="#E04B50" d="M316 576c4-3 9-4 15-5l8 9c-8-2-15-4-23-4Z"/>
  <path fill="#FAD733" d="M419 130c0-5 0-10-3-14l4-2 1 1c1 6 1 18 6 23h1l1 4-1 1c-4-4-4-10-7-14l-2 1Z"/>
  <path fill="#ED610D" d="m517 646-9-13h14c-3 4-3 9-5 13Z"/>
  <path fill="#E43326" d="m669 585 6-1 17-3c5-1 11-2 16-1l5 2c-7-1-13 1-19 2l-18 2-7-1ZM631 242l10-9 12-9 11-7-13 12-13 10v1l-5 2h-2Z"/>
  <path fill="#207C20" d="M604 501c2 5 4 12 8 16l-15 1 7-17Z"/>
  <path fill="#fef1db" d="m131 255 5-3 11 18c-2 2-2 4-2 6-3-2-4-6-6-9l-8-12Z"/>
  <path fill="#E43326" d="M646 279v1c3 3 2 9 7 11l8 2-3 6-14-5 2-15Z"/>
  <path fill="#ED610D" d="m680 243 2-10v-8c2 8 2 14 2 22l2-14 2 18-1 4v1h-1l-1 1h-4l1-6-1-1-1-7Z"/>
  <path fill="#E43326" d="m670 243 2-7 3-16c1 10-1 19-2 29l1-1 2-7c2-7 2-13 2-20l1-1c3 4 1 12 1 17v6l1 7-1 2-2-1v1h-2l-5 2-3-2 1-1 1-1v-7Z"/>
  <path fill="#FEECA0" d="m337 520 7-8 15 28c-5-1-9-5-13-8l-9-12Z"/>
  <path fill="#5DE2F2" d="m754 448 28 21 12 9c1 1 3 2 3 4v3h-1l-42-32-3-3 3-2Z"/>
  <path fill="#FAB60A" d="M629 268c3-1 12-2 15 0l-6 18c-3-2-8-2-11-3-1-5 1-10 2-15Z"/>
  <path fill="#FEECA0" d="m146 246 11 20 10 13-1 1-6-1-2-1-3-4-5-7-10-17 6-4Z"/>
  <path fill="#F7780B" d="m490 788 3-7 24 43h-8l-11-23-8-13Z"/>
  <path fill="#E43326" d="m788 199 2 2v1h-1l-5 10-4 6v1l8 3 4-5c4-5 1-8 0-13v-1l12 8-16 22c-2-4-3-7-7-10-2-2-6-3-9-2h-1c0-2 15-19 17-22Z"/>
  <path fill="#C41B1E" d="m489 605-7-11h4l9 1h2l3 1 6 6 2 4h7-1l-4 1-1 1 4 5-18 1-6-9Z"/>
  <path fill="#E43326" d="M495 595h2l3 1 6 6v1c-3-4-6-3-9-4l1-1v-2l-3-1Z"/>
  <path fill="#A41B28" d="m489 605 19 1h7-1l-4 1-1 1 4 5-18 1-6-9Z"/>
  <path fill="#fef1db" d="m728 594 2 3v10l-3 4a169 169 0 0 1-24 22l-1-3v-15l14-4c7-4 10-9 12-17Z"/>
  <path fill="#E43326" d="M688 251v-1l1-6-2-12-2-12c8 19 12 41 4 61-2 4-9 19-14 21h-4v-3l1-2h1c7-5 11-17 12-25l2-16v-1l1-4Z"/>
  <path fill="#FAD733" d="m337 520 9 12 3 39-11-5-1-22c0-8-2-16 0-24Z"/>
  <path fill="#0F8185" d="M522 633h21l-15 30-11-17c2-4 2-9 5-13Z"/>
  <path fill="#0980AB" d="m552 321 34-6-3 17-19 3-9 1h-1c1-4 0-11-2-15Z"/>
  <path fill="#FEECA0" d="m163 288 3-3 7 8c9 11 16 25 24 37 8 13 17 26 24 40l-5 3-53-85Z"/>
  <path fill="#F18CA2" d="M316 576c8 0 15 2 23 4l29 7 19 3 4 8-17-2c-16-2-33-4-48-10l-14-7 4-3Z"/>
  <path fill="#988C8B" d="m365 364 34-21 10 12c-11 9-25 14-36 23-1-5-5-10-8-14Z"/>
  <path fill="#791629" d="M513 613c9 2 19 2 28 2l31 2c7 0 16-1 23 2h6c-10 2-21 2-31 3l-69 1-6-9 18-1Z"/>
  <path fill="#FAB60A" d="m490 788 8 13 11 23-29-1h-8l18-35Z"/>
  <path fill="#C41B1E" d="M309 590c5 0 8 2 13 3l13 5c17 5 33 7 50 9 3 0 9 2 12 0l5 9-56-7c-10-2-20-3-29-8-5-2-6-6-8-11Z"/>
  <path fill="#ED610D" d="m624 813 12-3 3-1h2l11-2 5-1 4-1 3-1c6-1 11-2 16-5 4-2 8-6 10-10h1l7-14 2-4v-1 15l-1 1c-1 7-7 16-13 20-5 3-10 4-16 5l-20 5-20 6-6-9Z"/>
  <path fill="#E43326" d="m312 579 14 7c15 6 32 8 48 10l17 2 6 9c-3 2-9 0-12 0-17-2-33-4-50-9l-13-5c-5-1-8-3-13-3 0-4 1-7 3-11Z"/>
  <path fill="#988C8B" d="m549 292 40-6 3 13-5 7-35 5c-1-6-1-14-3-19Z"/>
  <path fill="#fef1db" d="m160 297 1-4 18 30 33 53-9 4-7-11-27-48-8-18-1-6Z"/>
  <path fill="#FAB60A" d="M346 532c4 3 8 7 13 8 6 8 10 16 14 25l7 13-31-7-3-39Z"/>
  <path fill="#988C8B" d="m545 263 40-7 3 20-40 7-3-20Z"/>
  <defs>
    <linearGradient id="a" gradientUnits="userSpaceOnUse" x1="747.4" y1="401.7" x2="625.9" y2="411.3">
      <stop offset="0" stop-color="#A7E7F2"/>
      <stop offset="1" stop-color="#fef1db"/>
    </linearGradient>
  </defs>
  <path fill="url(#a)" d="m626 395-3-7 1-4c3-8 11-15 17-22l6 3c6 3 11 8 16 12l28 22 63 49-3 2-12-8-87-68c-3-2-5-3-8-3l-7 5-6 11-5 8Z"/>
  <path fill="#FEECA0" d="M499 260h-4l-1-4-22-147 1-2h4l6 30 4 36 8 55 4 32Z"/>
  <path fill="#988C8B" d="m348 339 34-21 11 17-34 22-11-18Z"/>
  <path fill="#fef1db" d="M546 386c0 14-2 29-1 44 1 14 6 28 9 41 2 6 2 14 5 19l-5 7-2-9-9-33-9-36v-2c-1-12 4-22 12-31Z"/>
  <path fill="#ED610D" d="M472 823h8l29 1h8l7 11 2 5-63-2 9-15Z"/>
  <path fill="#988C8B" d="m331 313 33-21 12 18-33 21-12-18Z"/>
  <path fill="#A41B28" d="m583 332 2 25-47 7c3-5 10-9 13-14 3-4 5-9 4-14l9-1 19-3Z"/>
  <path fill="#0F8185" d="m628 413 2 4-4 10-14 30-27 61h-14l44-80 13-25Z"/>
  <path fill="#ED610D" d="m323 769 1 1 8 12c8 9 20 15 31 19l23 7-6 12c-16-5-35-7-46-21-7-8-12-19-11-30Z"/>
  <path fill="#7E929E" d="m777 430 37 29-11 15-38-28c3-6 8-11 12-16ZM796 407l36 29-12 17-37-30c5-4 9-10 13-16Z"/>
  <path fill="#FEECA0" d="m181 225 6-3 77 121-6 4-54-85-14-24-9-13ZM272 338l-4 3-77-122 6-4 15 24 30 49 19 31 11 19Z"/>
  <path fill="#FEFEFD" d="m378 843 25-44 33-58c6-10 10-21 17-30l4 7-31 57c-11 19-22 39-35 56-3 4-7 10-12 11l-1 1Z"/>
  <path fill="#B5B4B2" d="M653 322h4c3-3 4-8 5-12l8 2-16 22-11 15-3 3c-2 1-4 1-5 3l-8 9c-4 5-12 12-13 19l1 8c0 3-4 8-5 11l-5 12-12 21-1 2c0-6 2-10 3-15 4-20 8-40 17-58l7-13c4-4 8-4 13-6l8-5c4-4 13-13 13-18Z"/>
  <path fill="#0980AB" d="m761 467 33 24-9 12-7 8h-1c-2 2-5 2-8 2-6-3-10-8-15-12l-17-14 11-10 3 2c5-3 7-8 10-12Z"/>
  <defs>
    <linearGradient id="b" gradientUnits="userSpaceOnUse" x1="601.2" y1="469.2" x2="580" y2="459.6">
      <stop offset="0" stop-color="#D5EBED"/>
      <stop offset="1" stop-color="#fef1dbCFB"/>
    </linearGradient>
  </defs>
  <path fill="url(#b)" d="M555 518h-2l7-11 13-22 49-77 6 5-13 25-44 80h-16Z"/>
  <path fill="#5DE2F2" d="M555 518h7l54-87 1-1c1 3-3 5-2 8l-44 80h-16Z"/>
  <path fill="#fef1db" d="m604 501 32-74c7 14 15 28 10 43-2 7-7 12-11 18l-11 15c-3 5-7 12-11 14h-1c-4-4-6-11-8-16Z"/>
  <path fill="#FAD733" d="m443 535-6-9h219l-6 9H443Z"/>
  <path fill="#fef1db" d="m270 170 9-5 78 120-14 9c0-5-5-10-7-13l-15-23-25-41c-9-15-19-31-26-47Z"/>
  <path fill="#00B3E2" d="M422 355c-3-4-4-11-4-15l134-19c2 4 3 11 2 15h-2l-130 19Z"/>
  <path fill="#A41B28" d="m520 377 25-4c-12 11-21 23-21 40 0 13 5 27 8 40l11 44c0 3 4 12 3 14 0 2-3 6-5 8h-10l-4-20-7-38c-4-19-10-37-9-56 1-10 5-19 9-28Z"/>
  <path fill="#F7780B" d="m493 105 15-3 22 153-13 2-4-24-14-93-4-26c0-3 0-7-2-9ZM335 656l4-37 68 9 19 33c-12-2-25-1-37-3-1-5-3-9-7-12-3-2-7-4-11-3-3 0-6 1-8 3-4 3-6 7-7 12l-21-2Z"/>
  <path fill="#5DE2F2" d="m637 376 7-5c3 0 5 1 8 3l87 68 12 8 3 3-4 6 11 8c-3 4-5 9-10 12l-3-2-12-11-26-24-73-66Z"/>
  <path fill="#055C8D" d="m739 442 12 8 3 3-4 6-15-12 4-5Z"/>
  <path fill="#00B3E2" d="m652 374 87 68-4 5-69-57c-3-3-14-12-14-16Z"/>
  <path fill="#E04B50" d="m669 585 7 1 18-2c6-1 12-3 19-2l2 2-6 3-36 9-22 3-62 3-74 4h-7l-2-4-6-6-3-1 172-10Z"/>
  <path fill="#0F8185" d="m479 757 9 14-34 61-11 21-9 17-14 15c-14 12-31 21-47 31l-1-14 2 1c5-2 10-6 14-9 9-6 18-13 25-21 11-12 18-27 25-41 13-25 25-52 41-75Z"/>
  <path fill="#FAB60A" d="m477 107 16-2c2 2 2 6 2 9l4 26 14 93 4 24-18 3-4-32-8-55-4-36-6-30Z"/>
  <path fill="#FAD733" d="m213 205 8 14 19 31 31 51c6 9 12 18 16 28l-15 9-11-19-19-31-30-49-15-24 16-10Z"/>
  <path fill="#C9E7EC" d="M549 292c2 5 2 13 3 19l-135 20-3-20 135-19ZM548 283l-97 13-27 4c-3 0-8 2-11 1l-3-19 135-19 3 20Z"/>
  <path fill="#F7780B" d="m638 240 9-6 19-14v1l-5 5-12 9-6 5c7-3 13-5 18-10l6-6c2 2 2 4 2 7 0 2-4 5-5 6l6 5v8l-1 1-1 1 3 2 5-2h2v-1l2 1 1-2 1 1-1 6h4l1-1h1l-2 16c-1 8-5 20-12 25h-2l-2-1-4-2c3-8 2-15 1-23-1 8-2 15-5 22l-8-2c-5-2-4-8-7-11v-1l-1-12-1 1c-3-2-12-1-15 0l2-7c-5 6-7 12-9 19-1 0-3 0-5-2-2-1-3-5-4-7 3-9 6-15 12-22l6-7h2l5-2Z"/>
  <path fill="#00B3E2" d="M365 364c3 4 7 9 8 14l-145 90-9-14 146-90Z"/>
  <path fill="#C41B1E" d="M715 584c2 2 3 5 3 8s-2 6-5 8c-5 3-13 4-19 6-23 5-46 9-69 11l-24 2h-6c-7-3-16-2-23-2l-31-2c-9 0-19 0-28-2l-4-5 1-1 4-1h1l74-4 62-3 22-3 36-9 6-3Z"/>
  <path fill="#A41B28" d="M409 355c5 5 10 13 10 21 0 6-5 12-9 15-5 5-11 8-16 11l-26 15-82 52c-10 6-21 14-31 18h-3c2-4 8-8 11-11a491 491 0 0 1 101-68l12-5 3-3c2-4 0-10 0-14l-6-8c11-9 25-14 36-23Z"/>
  <path fill="#C9E7EC" d="m765 446-115-90 12-17 115 91c-4 5-9 10-12 16Z"/>
  <path fill="#FAB60A" d="m213 205 16-10 77 121-6 5-13 8c-4-10-10-19-16-28l-31-51-19-31-8-14Z"/>
  <path fill="#E43326" d="M543 119h1l3-8-3-13 9-1h5l22 151-6 1-17 2c-2-4-2-11-3-16l1-1-7-71-2-28-1-12-2-4Z"/>
  <path fill="#00B3E2" d="m637 376 73 66 26 24 12 11-11 10-24-18-49-39-25-19-9-8-4-8 5-8 6-11Z"/>
  <path fill="#C9E7EC" d="M783 423c-5-2-9-6-13-9l-22-18-81-64 12-16 117 91c-4 6-8 12-13 16Z"/>
  <path fill="#FAB60A" d="m649 430 81 64c-17-4-33-5-49 5l-14 12-4 5h-10l-28 1 16-20c10-13 19-26 17-44v-1c-1-8-4-15-9-22Z"/>
  <path fill="#fef1db" d="M546 386c4-5 9-11 15-14l12-2 15-3c-3 22-8 44-13 66l-6 28-5 18-5 11c-3-5-3-13-5-19-3-13-8-27-9-41-1-15 1-30 1-44Z"/>
  <path fill="#5DE2F2" d="m769 374-16-13 91-118 6 5 11 8-18 23-27 34-47 61Z"/>
  <path fill="#E04B50" d="M554 336h1c1 5-1 10-4 14-3 5-10 9-13 14l-31 5-19 2-59 7-1-10c-1-5-3-9-6-13l130-19h2Z"/>
  <path fill="#C41B1E" d="M554 336h1c1 5-1 10-4 14-3 5-10 9-13 14l-31 5-19 2c4-3 10-4 14-5l19-6 14-7c7-4 13-10 17-17h2Z"/>
  <path fill="#055C8D" d="M893 320h8l3-6c2-7 6-12 9-17l17 13-92 118-17-13 72-95Z"/>
  <path fill="#00B3E2" d="m861 256 16 13-1 2-91 116-16-13 47-61 27-34 18-23Z"/>
  <path fill="#fef1db" d="M330 227c12-4 22-3 33 3l23 14 11 8 12 87-79-112Z"/>
  <path fill="#C9E7EC" d="M595 323c3-11 7-20 13-30l7 2 6 2c-2 4-4 7-4 12l2 2c2-1 3 0 4-2 2-3 3-7 3-10l13 4c-1 4-4 8-4 12 1 2 2 2 3 2l3-1c2-2 3-8 4-12l13 5c-2 3-6 9-5 12v1c0 5-9 14-13 18l-8 5c-5 2-9 2-13 6l-7 13c-9 18-13 38-17 58-1 5-3 9-3 15l-4 7-8 12 11-50c2-11 6-22 6-34l-2-17c-2-11-2-21 0-32Z"/>
  <path fill="#FEFEFD" d="M595 323c3-11 7-20 13-30l7 2c-5 8-9 15-12 24-1 2-1 11-3 12l-3-2-2-4v-2Z"/>
  <path fill="#00B3E2" d="M433 887c11-11 17-25 24-39l76 3 20 34-90 1-18 1h-12Z"/>
  <path fill="#fef1db" d="m423 392 3-7c18 5 41 9 51 27 3 4 5 9 6 14 2 10 1 22 1 32l2 57-1-1-4-6-11-22-22-43c-8-17-16-35-25-51Z"/>
  <path fill="#C9E7EC" d="m348 339 11 18-145 90-4-6-7-12 145-90Z"/>
  <path fill="#E43326" d="m373 378 6 8c0 4 2 10 0 14l-3 3-12 5a242 242 0 0 0-57 33c-15 11-30 22-44 35-3 3-9 7-11 11h-8c-4-1-7-3-9-7-3-3-5-8-7-12l145-90Z"/>
  <path fill="#E04B50" d="m373 378 6 8c-8 6-18 10-26 15l-45 27-53 38-13 9-7 5c-3-3-5-8-7-12l145-90Z"/>
  <path fill="#C9E7EC" d="m331 313 12 18-145 90-12-19 145-89Z"/>
  <path fill="#F7780B" d="m546 253-13 2-20-153 5-1 12-1c1 5 1 11 5 15l1 2c1 1 1 2 3 2h4l2 4 1 12 2 28 7 71-1 1c1 5 1 12 3 16l-11 2Z"/>
  <path fill="#A41B28" d="M546 253c-1-13-9-64-4-72l3 4 3 15c3 11 4 23 6 35 1 5 1 12 3 16l-11 2Z"/>
  <path fill="#3EBB49" d="m131 255 8 12c2 3 3 7 6 9v1c-2 7-7 11-13 15 7 2 14 3 20 7l5 6 3-8 1 6 8 18 27 48 7 11c-2 2-21 15-22 14l-76-122 3-3 5-2 18-12Z"/>
  <path fill="#FEFEFD" d="m113 267 50 79 14 21 10 17-2 1c-4 0-21-27-24-32l-31-48-13-20c-3-5-7-10-9-16l5-2Z"/>
  <path fill="#E04B50" d="m531 519-35-1-1-51-1-32-4-20c-6-15-18-24-32-30l21-3 41-5c-4 9-8 18-9 28-1 19 5 37 9 56l7 38 4 20Z"/>
  <path fill="#fef1db" d="M728 594v-1c1-6-1-12-5-17-6-6-14-7-22-8l-3-46c0-3 0-5-3-6-4-4-11-3-16-2h1c14-13 27-14 45-11 8 1 16 3 23 7 5 3 10 8 15 10l7 1-8 18-17 30-15 28-2-3Z"/>
  <path fill="#E43326" d="m779 245-22 26-25 33c-7 9-13 18-20 25l-25-19 58-75 31-40 4-4 1 1 1 2 6 5c-2 3-17 20-17 22h1c3-1 7 0 9 2 4 3 5 6 7 10v1h2c3 3 5 6 4 10 0 2-2 3-3 4l-5 1-5-4h-2Z"/>
  <path fill="#FEFEFD" d="M779 245c-4 0-8 0-11-2-4-2-4-7-5-11l-18 25-23 28-14 17-9 11h-2l-2-2 5-7 7-10 60-80 15-20 6 5c-2 3-17 20-17 22h1c3-1 7 0 9 2 4 3 5 6 7 10v1h2c3 3 5 6 4 10 0 2-2 3-3 4l-5 1-5-4h-2Z"/>
  <path fill="#F7780B" d="m656 526 32-3 1 35v13l-56 8c-42 4-84 5-126 5l-22-1h-10l-6-10 116-5c20-2 39-7 54-21l11-12 6-9Z"/>
  <path fill="#FAD733" d="m425 270-15 2-20-153 22-3-4 9c2 5 3 11 6 15h2c2-2 3-7 3-10l2-1c3 4 3 10 7 14 3 2 8 2 11 2h11l-11 4c-3 1-6 2-8 5-2 4-1 9-1 13l3 24 5 45 5 32-18 2Z"/>
  <path fill="#FEFEFD" d="M408 125c2 5 3 11 6 15h2c2-2 3-7 3-10l2-1c3 4 3 10 7 14 3 2 8 2 11 2h11l-11 4c-3 1-6 2-8 5l-5 5c1 7 2 17 1 24-2-6-3-19-9-23l-1-1c-2 2-3 9-3 12v6l-1-6v-13c-7-3-12-3-19-2l12-5 3-3-1-5v-18Z"/>
  <path fill="#ED610D" d="M414 177v-6c0-3 1-10 3-12l1 1c6 4 7 17 9 23 1-7 0-17-1-24l5-5c-2 4-1 9-1 13l3 24 5 45 5 32-18 2c-3-15-4-31-6-47l-4-32c0-5-2-10-1-14Z"/>
  <path fill="#3EBB49" d="M270 170c7 16 17 32 26 47l25 41 15 23c2 3 7 8 7 13l-20 13-13 7c-11-13-19-28-28-42l-49-79 16-10c3 5 6 13 11 16 2 1 5 0 7-1 2 0 4-3 5-5 2-6-5-14-7-20l5-3Z"/>
  <path fill="#207C20" d="M323 307a167 167 0 0 1-21-51v-5c2 0 3 1 5 3 14 11 23 27 35 40h1l-20 13Z"/>
  <path fill="#fef1db" d="M576 157c9-8 18-15 31-15 11 0 20 5 28 12a45 45 0 0 1 5 48l-4 8-2 4 3 9c-9 8-18 15-25 26-5 7-10 19-10 28l1 8-3 4-6-42-4-1-10-59-2-18-2-12Z"/>
  <path fill="#0980AB" d="m804 402-15-12 91-118c3 0 6 4 8 5l22 17-9 12h-1l-3-1-3 11 1 1-2 3-72 95-3-2-14-11Z"/>
  <path fill="#082555" d="M894 316v1h-2l-2-2-1-5c1-3 3-8 6-9h1l1 4-3 11Z"/>
  <path fill="#055C8D" d="M804 402c6-8 32-44 40-44 1 0 2 0 3 2s0 5-1 7l-28 46-14-11Z"/>
  <path fill="#fef1db" d="M243 498c4 1 9 1 14-1 9-3 16-8 24-13l35-21 22 40c-6 5-10 11-11 18a272 272 0 0 1 2 41c-10 2-23 5-28 15l-3 9-15-24-24-36c-6-9-12-18-16-28Z"/>
  <path fill="#FAB60A" d="M443 535h207l-11 12a92 92 0 0 1-54 21l-116 5-26-38Z"/>
  <path fill="#F18CA2" d="M790 234h1l7-8 9-13 33 27-90 119-34-27 38-50 25-32 2-5 5 4 5-1c1-1 3-2 3-4 1-4-1-7-4-10Z"/>
  <path fill="#FEFEFD" d="m774 262 5 1a10 10 0 0 1 5 13c-2 3-4 4-7 5h-4c-3-1-5-3-6-6l-1-6c2-4 5-6 8-7Z"/>
  <path fill="#FAD733" d="m426 119-1-5 43-6 23 153-29 4-12 2-4-1v-4l-2-12-10-80-2-10v-5l-1-1c2-3 5-4 8-5l11-4h-11c-3 0-8 0-11-2l1-1-1-4-2-19Z"/>
  <path fill="#FEECA0" d="m426 119 2 1 4 9 6 12 1 4c-3 0-8 0-11-2l1-1-1-4-2-19ZM431 154c2-3 5-4 8-5 6 26 6 52 7 79 1 13 4 26 4 39l-4-1v-4l-2-12-10-80-2-10v-5l-1-1Z"/>
  <path fill="#FAD733" d="m181 225 9 13 14 24 54 85-37 23c-7-14-16-27-24-40-8-12-15-26-24-37l-7-8-3 3-2 5-1 4-3 8-5-6c-6-4-13-5-20-7 6-4 11-8 13-15v-1c0-2 0-4 2-6 3 4 6 6 11 8l2 1 6 1 1-1-10-13-11-20c3-3 9-6 14-8l21-13Z"/>
  <path fill="#FEFEFD" d="M167 279c4-3 6-6 6-10l1-5c6 5 11 9 20 11-5 3-8 6-9 11l-1 6c-5-5-8-8-15-9l-3 2-3 3-2 5-1 4-3 8-5-6c-6-4-13-5-20-7 6-4 11-8 13-15v-1c0-2 0-4 2-6 3 4 6 6 11 8l2 1 6 1 1-1Z"/>
  <path fill="#fef1db" d="M423 392c9 16 17 34 25 51l22 43 11 22 4 6 1 1v3l-56-2-58-88c16-12 37-21 51-36Z"/>
  <path fill="#00B3E2" d="m457 718 22 39c-16 23-28 50-41 75-7 14-14 29-25 41-7 8-16 15-25 21-4 3-9 7-14 9l-2-1c0-18 0-37 3-54v-1l3-4 1-1c5-1 9-7 12-11 13-17 24-37 35-56l31-57Z"/>
  <path fill="#082555" d="M400 844c5-1 10 0 14 4 3 2 6 7 6 10l-1 1-1 4c-2 4-5 7-9 8h-8c-4-1-8-3-10-7-2-3-2-7-1-10 2-6 5-8 10-10Z"/>
  <path fill="#FAD733" d="M398 856v-2c2-3 4-3 7-4l1 4-1 2v2l-7-2Z"/>
  <path fill="#FAB60A" d="m398 856 7 2 1 6h-4l-4-3v-5Z"/>
  <path fill="#F7780B" d="M405 850c2 1 4 1 5 4l1 5c-1 3-3 4-5 5l-1-6v-2l1-2-1-4Z"/>
  <path fill="#A41B28" d="m350 441 13-7 19 28 25 37 121 185 78 120 18 28c6 9 13 18 18 28 3 7 4 14 3 21v2c-1 6-4 10-7 15l-3-7-5-9-10-18 1-4c-1-8-5-14-11-19-1-4-5-8-7-12l-14-23-69-109-62-96-47-71-32-50-20-30c-2-4-5-6-9-9Z"/>
  <path fill="#FAB60A" d="M356 658c1-5 3-9 7-12 2-2 5-3 8-3 4-1 8 1 11 3 4 3 6 7 7 12 12 2 25 1 37 3l15 27 6 12-61 108-23-7c-11-4-23-10-31-19l-8-12-1-1 12-113 21 2Z"/>
  <path fill="#FEFEFD" d="M356 658c1-5 3-9 7-12 2-2 5-3 8-3 4-1 8 1 11 3 4 3 6 7 7 12l-1 10-7 69-1 17-2 11c-1 4-2 7-5 9-4 3-9 4-14 4-4-1-7-3-10-6-2-2-3-6-3-9l1-12 2-21 7-72Z"/>
  <path fill="#F7780B" d="M571 632c26-2 52-3 77-7l29-5 13-3 10 153v1l-2 4-7 14h-1c-2 4-6 8-10 10-5 3-10 4-16 5l-3 1-4 1-5 1-11 2h-2l-3 1-12 3-90-140 8-17 12-24h17Z"/>
  <path fill="#E43326" d="m542 656 12-24h17l-12 26-17-2Z"/>
  <path fill="#FAB60A" d="m559 658 40-1 21-2c8 0 18-2 25-1l2 1c5 2 9 5 11 10 2 2 2 5 3 8v1l1 15 2 30 2 25 1 18v1c-1 9-6 16-12 22-10 7-25 9-37 11l-70-117 11-21Z"/>
  <path fill="#FEFEFD" d="M573 675h5l7 5c1 3 2 6 1 8-1 4-4 6-7 7h-5c-3-1-5-3-6-5-2-2-2-5-2-8 1-3 4-5 7-7Z"/>
  <path fill="#E04B50" d="M350 441c4 3 7 5 9 9l20 30 32 50 47 71 62 96 69 109 14 23c2 4 6 8 7 12 6 5 10 11 11 19l-1 4 10 18 5 9 3 7a41 41 0 0 1-42 15c-9-2-17-8-23-15l-11-18-15-26-42-73-60-106-56-102-66-115 27-17Z"/>
  <path fill="#082555" d="M620 864c-3 9-7 15-15 19-6 2-13 2-18 0a24 24 0 0 1-13-30c3-7 8-12 15-14 7-3 15-1 21 2 6 5 10 11 11 19l-1 4Z"/>
  <path fill="#00B3E2" d="M595 848c4 0 8 0 11 3s4 7 4 10c0 4-2 7-4 9-4 3-8 4-12 3h-2c4-3 9-7 10-12s-4-8-7-13Z"/>
  <path fill="#5DE2F2" d="M592 873h-1c-4-2-6-4-7-8s-1-7 1-10c2-5 5-6 10-7 3 5 8 8 7 13s-6 9-10 12Z"/>
</svg>
