<svg xmlns="http://www.w3.org/2000/svg" width="800" height="800">
  <svg xmlns="http://www.w3.org/2000/svg" xmlns:xlink="http://www.w3.org/1999/xlink" width="800" height="800">
    <path fill="#1D79BF" d="M598 96c10 5 18 13 22 23l2 11v568a38 38 0 0 1-26 36l-11 1H260l-17-1c-11-2-23-9-30-19l-1-3 6 4c5 2 10 4 16 4h334c4 0 7 0 10-2 9-3 17-10 21-19l2-12 1-35V355l1-163v-79c-1-6-2-12-5-17Z"/>
    <path d="m212 712-6-6c-5-6-9-14-9-21-2-13-1-26-1-38v-74l1-243 1-152v-70a37 37 0 0 1 36-33h333c9 1 17 5 24 11l7 10c3 5 4 11 5 17v79l-1 163v297l-1 35-2 12c-4 9-12 16-21 19-3 2-6 2-10 2H234c-6 0-11-2-16-4l-6-4Zm10-33c4 2 8 4 13 4h320c5 0 10-1 14-4 10-10 7-24 8-36l1-8v-8l2-4v-11l-1-14 3-307H219v377l3 11Z"/>
    <path fill="#D0912F" d="M572 107c5 4 8 10 9 16 2 5 1 11 1 17v136l-20-1c4-4 7-7 8-13 2-8 2-18 2-26V107Z"/>
    <path fill="#2D2D5D" d="M575 82a38 38 0 0 1 23 31l1 22v152l-4 1h-8V122c-1-6-4-13-9-18l-9-6 6-16Z"/>
    <defs>
      <linearGradient id="a" gradientUnits="userSpaceOnUse" x1="516.2" y1="794.2" x2="512.3" y2="898.7">
        <stop offset="0" stop-color="#643C80"/>
        <stop offset="1" stop-color="#7F57A6"/>
      </linearGradient>
    </defs>
    <path fill="url(#a)" transform="scale(.78143)" d="m739 823 1-10v-11l2-5v39l1 18-1 16-7 13c-5 6-14 9-21 10l-28-1H465l-100 1h-32l-18-1c-7 0-16-4-21-9-5-4-8-8-10-14 5 2 10 5 16 5h410c6 0 13-2 18-6 14-11 9-29 11-45Z"/>
    <path fill="#2D2D5D" d="m231 697 12 4c5 2 12 1 17 1l25 1h208l46-1h19c5 0 10-2 14-5 6-3 12-9 13-16l1-17V562l1-270h12l-1 100-1 156v139l-2 9c-3 8-9 14-17 17-4 2-9 2-14 3l-59-1H378l-94 1h-46c-6 0-10-1-15-3-10-4-15-11-19-21l7 3 20 2Z"/>
    <path fill="#434B86" d="m204 692-1-1c-2-4-3-10-3-15V515l1-287 1-79v-24c0-7-1-15 1-22 3-8 8-15 16-20 4-2 8-3 13-3h334l9 2-6 16-15-5H244l-11 3a32 32 0 0 0-19 27l-1 25v119l2 7c1 3 3 5 7 6h360v7H214v373l1 14v1c2 9 9 16 16 22l-20-2-7-3Z"/>
    <path fill="#EFC54A" d="M562 275H236l-10 1-5-2-3-6V145c0-8-1-17 1-25 0-4 3-9 6-12 5-6 12-9 19-9l23-1h289c6 1 11 4 16 9v129c0 8 0 18-2 26-1 6-4 9-8 13Z"/>
    <path d="M529 112c5-1 13-2 18 0l3 2 2 3v26c0 3 0 6-2 8l-1 1-4 1H398c-3 0-7 1-9-1l-2-3v-29c-1-2 0-5 2-7l3-1h137Z"/>
    <path fill="#65322A" d="M392 117h153l2 2v16l-1 12c-1 2-4 1-6 2l-17-1H392v-31Z"/>
    <path d="M247 167h302l7 1c5 2 8 7 10 11v71l-2 6c-3 4-7 7-12 8h-82l-165 1h-49l-8-1c-5-2-9-5-12-9l-3-8v-50c0-5-1-13 1-18 1-5 4-8 9-10l4-2Z"/>
    <path fill="#9FF0F0" d="M239 236v-54a11 11 0 0 1 8-8l6-1h46l-60 58v5ZM551 173c3 1 6 2 8 5l2 5v13l-1 24v29a11 11 0 0 1-9 9h-86l8-8 14-13 36-35c9-9 19-18 28-29Z"/>
    <path fill="#FEFEFE" d="M360 173h14l-6 7-12 12-51 50-11 10-5 6h-28c-6 1-13 1-18-4s-4-11-4-18v-5l60-58h61Z"/>
    <path fill="#9FF0F0" d="M360 173h14l-6 7-12 12-51 50-11 10-5 6h-17l7-6 11-12 41-39 29-28Z"/>
    <path fill="#9FF0F0" d="M374 173h177c-9 11-19 20-28 29l-36 35-14 13-8 8-21 1-16-1H289l5-6 11-10 51-50 12-12 6-7Z"/>
    <path fill="#FEFEFE" d="M529 173h22c-9 11-19 20-28 29l-36 35-14 13-8 8-21 1-2-1 87-85ZM374 173h16l8 1-86 84h-23l5-6 11-10 51-50 12-12 6-7Z"/>
    <path fill="#B6A4DE" d="m222 679-3-11V291h363l-3 307 1 14v11l-2 4v8l-1 8c-1 12 2 26-8 36-4 3-9 4-14 4H235c-5 0-9-2-13-4Zm225-172c-3 0-6-1-8 2l-3 5v32l4 7 4 1 15 1h24c4 0 7 0 10-4l1-3v-35c-2-3-3-5-6-6h-41Z"/>
    <path fill="#2D2D5D" d="m577 643 2-25v-20l1 14v11l-2 4v8l-1 8Z"/>
    <path d="M381 312h25c5 0 12-1 17 1 2 1 3 2 3 4 2 4 1 11-1 14-1 3-3 3-5 4-5 0-40 1-43-1-1-1-3-3-3-5-1-3-2-11 0-14 2-2 5-2 7-3Z"/>
    <path fill="#1D79BF" d="m376 325 2 2h46l-1 2-3 2h-10c-5 0-29 1-32-1l-2-5Z"/>
    <path fill="#9FF0F0" d="M376 319c0-2 1-3 3-4h39l4 1 3 3-8 1h-17l-24-1Z"/>
    <path fill="#2ED0D8" d="m376 319 24 1h17l8-1-1 8h-46l-2-2v-6Z"/>
    <path d="M246 312h41l3 2c2 1 2 3 3 5v11c-2 3-4 4-7 5h-29l-11-1-5-2c-3-4-2-10-2-15 1-2 4-4 7-5Z"/>
    <path fill="#5C7A8B" d="M241 327h40l10-1-4 5h-42l-4-4Z"/>
    <path fill="#C6EAEE" d="m241 320 1-3c1-2 2-2 4-2h18l19-1 5 1c2 1 2 3 2 4l-14 1h-35Z"/>
    <path fill="#9FF0F0" d="M241 320h35l14-1 1 7-10 1h-40v-7Z"/>
    <path d="M447 312h26c5 0 11-1 15 1 2 0 4 1 4 3 2 4 1 12 0 16-2 2-4 3-7 3h-39l-4-2c-2-1-3-3-3-5 0-4-1-10 2-13l6-3Z"/>
    <path fill="#1D79BF" d="M442 320v7h48l-2 3-4 1h-38l-3-2h-1v-9Z"/>
    <path fill="#9FF0F0" d="M442 320v-3l2-2h44l3 3-3 2h-46Z"/>
    <path fill="#2ED0D8" d="m491 318-1 9h-48v-7h46l3-2Z"/>
    <path d="M312 312h31c4 0 11-1 13 1h1l4 4c1 3 0 10-1 14l-5 4h-33l-9-1-5-2c-3-2-2-6-2-10l1-7h1l4-3Z"/>
    <path fill="#1D79BF" d="m308 326 2 1h48l-2 3-1 1h-44l-3-5Z"/>
    <path fill="#3DA6E0" d="M308 326v-1c1-3-1-7 2-9l3-1h42l3 2v10h-48l-2-1Z"/>
    <path d="M513 312h41l4 2c2 1 3 2 3 4 0 4 1 11-2 14-2 3-3 3-6 3h-36l-8-1c-2-1-3-3-3-5-1-3-1-10 1-14 1-2 4-2 6-3Z"/>
    <path fill="#AD1052" d="M559 322c0 2 0 5-2 8l-5 1h-40l-3-1-1-3c6 2 13 1 19 1h27l5-6Z"/>
    <defs>
      <linearGradient id="b" gradientUnits="userSpaceOnUse" x1="682.1" y1="419.3" x2="681.9" y2="403.2">
        <stop offset="0" stop-color="#FC4471"/>
        <stop offset="1" stop-color="#FF6E99"/>
      </linearGradient>
    </defs>
    <path fill="url(#b)" transform="scale(.78143)" d="M650 419c0-4-1-10 1-13 1-2 3-3 5-3l11-1 23 1h20l2 1c3 2 3 5 3 8l-6 8h-34l-25-1Z"/>
    <path d="M245 348h36l7 1c2 0 4 3 4 4v14c-1 3-3 4-5 5h-35l-7-1c-2 0-4-3-5-5-2-3-2-9-1-13 1-3 4-4 6-5Z"/>
    <path fill="#0B3745" d="m242 362 4 2h38c3 0 4-2 6-4 0 2 0 5-2 7l-4 1h-37l-4-2-1-4Z"/>
    <path fill="#06BEBF" d="m241 358 3 1 10-1h36v2c-2 2-3 4-6 4h-38l-4-2-1-4Z"/>
    <path fill="#2ED0D8" d="m241 358 2-6 4-1h36l5 1c2 2 2 4 2 6h-36l-10 1-3-1Z"/>
    <path d="M380 348h39l4 1 4 5c1 4 1 11-1 14l-6 4h-37l-5-1c-2-1-4-3-5-6s-1-10 1-13 4-3 6-4Z"/>
    <path fill="#0B3745" d="m424 361-1 6c-2 2-4 2-6 2h-22l-12-1h-5l-2-4v-1l3 2 26-1 15 1 4-4Z"/>
    <path fill="#06BEBF" d="M375 360h49v1l-4 4-15-1-26 1-3-2-1-3Z"/>
    <path fill="#2ED0D8" d="M375 360c0-3 0-6 2-8l2-1h39l4 1c2 2 2 6 2 8h-49Z"/>
    <path d="M446 348h23c6 0 14-1 19 1l4 3c2 4 2 13 0 16-1 2-3 3-6 4-5 0-39 1-42-1-3-1-4-3-5-6s-1-10 1-14l6-3Z"/>
    <path fill="#430A2D" d="m442 363 3 2h13l19 1 12-1-2 3c-2 2-9 1-11 1l-31-1c-2-2-3-2-3-5Z"/>
    <path fill="#F9205B" d="m491 357-2 8-12 1-19-1h-13l-3-2-1-3c7 3 14 2 21 2h24l5-5Z"/>
    <path fill="#FD5881" d="m441 360 1-7 4-2h38l4 1c2 1 2 3 3 5l-5 5h-24c-7 0-14 1-21-2Z"/>
    <path d="M312 348h43l5 4c2 3 1 11 0 15l-5 5h-39l-5-1-4-4c-2-4-2-11 0-15l5-4Z"/>
    <path fill="#430A2D" d="M358 361v-1c0 3-1 5-3 7-1 2-4 2-6 2h-22l-14-1-2-1-2-4v-1l2 1h1c3-2 39-1 46-2Z"/>
    <path fill="#F9205B" d="m309 362 2 1h1c3-2 39-1 46-2l-4 4h-41l-2-1-2-2Z"/>
    <path fill="#FD5881" d="m309 362-1-6 3-4 5-1h37c2 0 3 0 4 2 2 2 1 5 1 7v1c-7 1-43 0-46 2h-1l-2-1Z"/>
    <path d="M514 348h41l3 2c2 1 3 3 3 5 1 4 1 11-1 14-2 2-4 3-7 3h-41l-2-1c-2-2-4-3-4-7s-1-10 2-13l6-3Z"/>
    <path fill="#0B3745" d="M558 359c0 3 1 6-1 8l-2 1-8 1h-32c-2 0-4 0-5-2-2-1-2-4-2-6l1 1 13-1h31l5 1v-3Z"/>
    <path fill="#06BEBF" d="m509 362 13-1h31l5 1-2 2-1 1-43-1c-2 0-3-1-3-2Z"/>
    <path fill="#2ED0D8" d="M508 361c0-3 0-7 2-9l4-1h40l3 1c2 2 1 5 1 7v3l-5-1h-31l-13 1-1-1Z"/>
    <path d="M416 507c3 0 6 0 9 2 2 2 3 4 3 7v31l-3 5-3 2-5 1-16-1h-17c-3 0-6 1-9-1l-3-7v-32l2-5 4-2h38Z"/>
    <path fill="#2D2D5D" d="M424 539v8c0 2-2 3-3 4h-39l-4-1-2-4v-1h-1l4 2h27c3 0 10 2 13 0s4-4 5-8Z"/>
    <path fill="#434B86" d="M375 545v-21c0-3-1-10 2-12l3-2h40l3 2 1 2v25c-1 4-2 6-5 8s-10 0-13 0h-27l-4-2Z"/>
    <path fill="#17191C" d="M394 522c1-2 3-4 6-4l6 3 1 1v2l-3-3h-6c-2 0-3 1-4 3v-2Z"/>
    <path d="m407 522 1 5v3c0 2-3 5-5 6h4l1 2v5c0 2-1 2-3 2h-14c-2-9 7-12 10-18l-1-1-6 2-1-2c-1-2 0-3 1-4v4h3l1-1h3l2 2c-1 5-13 11-10 16h13l1-1 1-3-1-1c-2-2-4-1-7-1l5-5c2-3 2-5 2-8v-2Z"/>
    <path fill="#FEFEFE" d="M394 524c1-2 2-3 4-3h6l3 3c0 3 0 5-2 8l-5 5c3 0 5-1 7 1l1 1-1 3-1 1h-13c-3-5 9-11 10-16l-2-2h-3l-1 1h-3v-2Z"/>
    <path fill="#2D2D5D" d="M407 542v-2l-1-1h-8l2-2c3 0 5-1 7 1l1 1-1 3Z"/>
    <path d="M383 565h37l5 2c2 3 3 7 3 10v16c0 5 1 14-3 17-3 3-5 3-8 3-7 0-37 2-41-1-2-1-3-4-4-7v-34l2-3c2-3 5-3 9-3Z"/>
    <path fill="#2D2D5D" d="M424 596v11l-4 2-6 1h-29l-6-1-3-4 3 2h7l15-1h16l3-2c3-1 3-5 4-8Z"/>
    <path fill="#434B86" d="M376 605v-2c-2-5-1-11-1-17 0-3-1-13 1-16 2-2 4-2 6-2h37l3 2 2 3v23c-1 3-1 7-4 8l-3 2h-16l-15 1h-7l-3-2Z"/>
    <path d="M407 581c2 4 3 11 1 15-1 3-2 5-5 6h-7l-4-3v-4l2-1h1c-1 1-2 2-1 4l1 2 5 1c3 0 4-1 5-3 3-5 2-11 1-15l1-2Z"/>
    <path fill="#FEFEFE" d="m397 593-4-4v-8c0-2 2-3 3-4h7l4 4-1 2c1 4 2 10-1 15-1 2-2 3-5 3l-5-1-1-2c-1-2 0-3 1-4v-1h2Z"/>
    <path fill="#0B3745" d="m397 593 6 1-2 3h-3l-3-3v-1h2ZM399 582h3l2 4-2 2h-3l-2-3c0-2 1-2 2-3Z"/>
    <path fill="#17191C" d="m397 593-4-4v-8c0-2 2-3 3-4h7l4 4-1 2-5-5-5 1-2 4c-1 2-1 4 1 6l3 3h5v2l-6-1Z"/>
    <path d="M244 507h40l7 1c2 0 4 2 4 4 2 5 1 12 1 17v17l-1 3c-1 3-3 4-5 5h-44c-2 0-4-1-6-4l-1-3v-34c1-4 3-5 5-6Z"/>
    <path fill="#2D2D5D" d="M293 542c0 3 0 5-3 7l-1 1a691 691 0 0 1-45 0l-2-3-1-4 4 3 3 2h7l33-1 5-5Z"/>
    <path fill="#434B86" d="M241 543v-17l1-11 1-3 3-2h38c3 0 5 0 7 2l2 3v27l-5 5-33 1h-7l-3-2-4-3Z"/>
    <path d="m263 517 13 1 1 2c1 4-4 12-6 16l-4 8-3 1c-2 0-3 0-4-2-1-5 5-13 8-18h-8l-2-2 1-5 4-1Z"/>
    <path fill="#FEFEFE" d="m266 519 9 1c0 5-3 10-5 14l-5 9h-3l-1-1 5-9 4-10h-9v-3l5-1Z"/>
    <path d="M380 390h40l3 1c2 1 4 3 4 5l1 8v25l-1 6-6 4h-42c-3-1-5-3-6-5l-1-4v-22l1-13 1-2 6-3Z"/>
    <path fill="#2D2D5D" d="m424 421 1 10c0 2-1 3-2 3l-4 1h-39l-4-2-1-2 5 1h39c4-4 4-6 5-11Z"/>
    <path fill="#434B86" d="M375 431v-32l1-4 3-2h44l1 3v25c-1 5-1 7-5 11h-39l-5-1Z"/>
    <path d="M406 409h1l3 9-4 7c-2 1-5 2-7 1-3 0-5-2-6-4-3-3-2-11-1-15 0-2 1-4 3-5 2-2 8-2 11-1l2 2c1 2 0 4-1 5l-1-2-1-3-7-1-4 4c-1 2-2 12 0 14l3 4h8l3-4-1-8-4-2h1l2-1Z"/>
    <path fill="#FEFEFE" d="m403 410 4 2 1 8-3 4h-8l-3-4c-2-2-1-12 0-14l4-4 7 1 1 3 1 2h-1v1l-2 1h-1Z"/>
    <path fill="#17191C" d="m406 406 1 2h-1v1l-2 1h-1l-5 1v-4l3-1h5ZM398 419l-1-3 2-2h3l2 2v3l-2 1-2 1-2-2Z"/>
    <path fill="#0B3745" d="m398 419 1-2h2l1 2v1l-2 1-2-2Z"/>
    <path d="M450 565h36l7 4 1 4v26l-1 8c0 2-1 3-3 4l-1 1-9 1h-33c-4 0-6-1-8-3l-2-4c-2-6-1-13-1-19v-14c1-3 2-5 4-6h1c2-2 6-2 9-2Z"/>
    <path fill="#2D2D5D" d="M439 591v11l1 1 6 2 18 1h17l5-1 4-5c0 3 0 6-2 7l-3 2-32 1h-8l-2-1-2-1-2-2v-15Z"/>
    <path fill="#434B86" d="M439 591v-18l2-2 3-2h3l7-1h30c2 0 3 0 4 2l2 3v27l-4 5-5 1h-17l-18-1-6-2-1-1v-11Z"/>
    <path d="m472 584 1 1c2 2 3 5 3 8s-1 6-3 8-5 2-7 2c-3 0-5-1-7-4s-1-6-2-9v-7l1-3 6-4c3-1 6-1 8 1l2 2-1 4h-1v-1l-1-3c-2-2-4-2-6-1-2 0-4 2-5 3-2 5 0 8 0 12-1 2 0 4 1 6s3 2 5 2c2 1 4 0 5-1 2-1 3-3 3-5 0-3 0-6-2-8l-2-2 2-1Z"/>
    <path fill="#FEFEFE" d="m470 585 2 2c2 2 2 5 2 8 0 2-1 4-3 5-1 1-3 2-5 1-2 0-4 0-5-2s-2-4-1-6c0-4-2-7 0-12 1-1 3-3 5-3 2-1 4-1 6 1l1 3h-1v1l1 1-2 1Z"/>
    <path fill="#2D2D5D" d="M470 585h-4l-3 1v-1l2-3h6v1l1 1-2 1Z"/>
    <path d="M465 589h1l3 1 1 4-2 3h-1l-3-1-1-5 2-2Z"/>
    <path fill="#2D2D5D" d="M467 590h1l1 2-1 4-1-1h-1l-1-2c0-2 0-2 2-3Z"/>
    <path d="M380 448c7 0 40-1 44 1 2 1 3 4 4 6v36l-2 4c-1 2-4 3-6 3h-40l-4-1-3-6c-2-7-1-15-1-22v-12l2-5c1-3 3-3 6-4Z"/>
    <path fill="#2D2D5D" d="M424 483v8c-1 2-3 3-5 3h-39l-2-1c-2-1-2-3-2-4l1 1 3 1h38l6-8Z"/>
    <path fill="#434B86" d="m376 489-1-18v-14l4-6h38l5 1 2 2v29l-6 8h-38l-3-1-1-1Z"/>
    <defs>
      <linearGradient id="c" gradientUnits="userSpaceOnUse" x1="501" y1="616.5" x2="506.2" y2="615.1">
        <stop offset="0" stop-color="#1B1915"/>
        <stop offset="1" stop-color="#13141E"/>
      </linearGradient>
    </defs>
    <path fill="url(#c)" transform="scale(.78143)" d="m502 613 9 1-2 1h4-1c-2 1-7 0-8 2l-1 2c1 2 4 1 5 2l4 1 1 1h-6c-3-1-5-1-6-4l1-6Z"/>
    <path d="m394 470 1 1v2c1 2 4 1 5 2l2 2v3l-1 1-3-1h1l-7-1 1-4 1-5Z"/>
    <path fill="#2D2D5D" d="m392 479 1-4 7 1v3l-1 1-7-1Z"/>
    <path fill="#FEFEFE" d="M393 468v-5l4-3h4l5 2 2 4-1 6c1 3 2 6 1 9l-5 5-2 1-1-1h-3l-4-2v-2c2-2 6-1 7-1h1l1-1v-3l-2-2c-1-1-4 0-5-2v-2l-1-1-1-2Z"/>
    <path fill="#17191C" d="M393 468v-5l4-3h4l5 2 2 4-1 6c1 3 2 6 1 9l-5 5-2 1-1-1h-3l7-2c2-2 3-3 3-6s-1-4-3-6l2-4-1-4-4-2c-2 0-5 0-6 2l1 2 3-1 2 2v3l-5 1h-1l-1-1-1-2Z"/>
    <path fill="#2D2D5D" d="M401 467v3l-5 1h-1l-1-1-1-2h8v-1Z"/>
    <path d="M550 507c3 0 6-1 9 2s3 8 3 12v28l-2 4-4 2h-40c-3 1-6 0-9-2-2-2-3-4-3-7v-13c0-6-1-14 1-20l1-3 6-3h38Z"/>
    <path fill="#2D2D5D" d="m558 541 1 5c0 2 0 3-2 4l-4 1-21 1h-20l-4-2c-2-3-1-9-1-12l1 6 1 1c3 3 6 3 10 3l13-1h21l3-2 2-4Z"/>
    <path fill="#434B86" d="m507 538 1-17v-7l1-2 3-2h40c2 0 3 0 4 2 4 3 2 23 2 29l-2 4-3 2h-21l-13 1c-4 0-7 0-10-3l-1-1-1-6Z"/>
    <path d="M522 526h24l3 6-1 4h-2l-28-1v-8l4-1Z"/>
    <path fill="#75FD9B" d="M520 528h25l1 1v4h-26v-5Z"/>
    <path d="M447 507h41c3 1 4 3 6 6v35l-1 3c-3 4-6 4-10 4h-24l-15-1-4-1-4-7v-32l3-5c2-3 5-2 8-2Zm-8 38h1l3 2h20l19 1 4-1 5-6v-27l-2-3-2-1h-43l-3 2c-3 3-2 8-2 12v21Z"/>
    <path fill="#2D2D5D" d="M491 541v7c-1 2-3 3-5 3h-41l-4-1-2-3v-2h1l3 2h20l19 1 4-1 5-6Z"/>
    <path fill="#434B86" d="M439 545v-21c0-4-1-9 2-12l3-2h43l2 1 2 3v27l-5 6-4 1-19-1h-20l-3-2h-1Zm31-17-2 1h2c2 1 3 3 3 5 1 2 0 4-1 6l-5 4-5-1c-3-2-4-5-4-8-1-4 0-8 3-11 2-3 5-4 8-4l2 2v1c-2 2-5 1-7 2l1 1h6c1-1 2-1 2-3l-1-3c-1-2-4-2-6-1-3 0-6 2-8 4-2 4-3 10-2 14 1 3 2 6 5 8h8l5-5c1-2 2-6 0-8 0-3-2-4-4-4Z"/>
    <path d="M470 528c2 0 4 1 4 4 2 2 1 6 0 8l-5 5h-8c-3-2-4-5-5-8-1-4 0-10 2-14 2-2 5-4 8-4 2-1 5-1 6 1l1 3c0 2-1 2-2 3h-6l-1-1c2-1 5 0 7-2v-1l-2-2c-3 0-6 1-8 4-3 3-4 7-3 11 0 3 1 6 4 8l5 1 5-4c1-2 2-4 1-6 0-2-1-4-3-5h-2l2-1Z"/>
    <path fill="#FEFEFE" d="M468 529h2c2 1 3 3 3 5 1 2 0 4-1 6l-5 4-5-1c-3-2-4-5-4-8-1-4 0-8 3-11 2-3 5-4 8-4l2 2v1c-2 2-5 1-7 2l1 1v1h1l4 1-2 1Z"/>
    <path fill="#2D2D5D" d="M468 529h-6v-1l2-3 1 1v1h1l4 1-2 1Z"/>
    <path d="M464 533c2-1 3 0 4 1l1 3-2 3-4-2-1-3 2-2Z"/>
    <path fill="#1D79BF" d="M466 535h1l-1 3-1-1 1-2Z"/>
    <path d="M314 507h43c2 0 4 2 5 3 2 3 2 5 2 7v15c0 6 1 12-1 18-2 2-3 4-7 4h-40l-7-1c-2-1-3-3-4-6v-34l2-2c2-3 4-4 7-4Z"/>
    <path fill="#2D2D5D" d="M360 531v8c1 3 2 7-1 9l-4 2-14 1h-26l-6-3-1-4 3 3c2 1 39 0 44-1l4-4v-1l1-10Z"/>
    <path fill="#434B86" d="M308 544v-28l1-3c1-2 3-3 5-3h42c2 0 2 1 3 2l1 7v12l-1 10v1l-4 4c-5 1-42 2-44 1l-3-3Z"/>
    <path d="m328 532-1-1c-1-4 0-10 2-13 3-1 11-2 13 0l1 3-1 3c-1 2-5 1-7 1l3 1c3 1 4 3 6 5v7l-5 6h-8c-2 0-4-2-5-4v-5l1-1v1l1 4 4 4 7-1 3-6c1-2 0-4-1-5-2-2-4-3-7-3l-1-1v-3l7-1h1l-1-3h-10l-2 12Z"/>
    <path fill="#FEFEFE" d="m328 532 2-12h10l1 3h-1l-7 1v3l1 1c3 0 5 1 7 3 1 1 2 3 1 5l-3 6-7 1-4-4-1-4v-1l1-2Z"/>
    <path fill="#17191C" d="M328 532h1c2 0 6-1 8 1l1 3-2 3h-3l-3-4h-3v-1l1-2Z"/>
    <path fill="#2D2D5D" d="M333 533h1l2 1v3h-1l-2-1v-3Z"/>
    <path d="M250 625h39c2 0 4 2 5 3 4 5 2 16 2 21v16l-3 6-3 3h-24c-6 0-14 1-19-1-4-2-6-5-7-8l-1-1v-32l2-4 3-3h6Z"/>
    <path fill="#D0912F" d="m250 668 28-1h9l4-3c-1 2-1 4-3 5l-4 1h-17l-15-1-2-1Z"/>
    <path fill="#EFC54A" d="m250 668-3-2c-2-2-4-4-4-6v-29l2-3h44l3 3v25l-1 8-4 3h-9l-28 1Z"/>
    <path d="M254 640h10v1l-2 1-1 1v9l-1 3h-2l-1-4v-8l-3-1v-2ZM266 640h2c2 0 2 2 3 3l2-3h3l-3 6 3 8v1h-2l-3-5-3 5-3-1 1-3 3-5-1-1-2-5Z"/>
    <defs>
      <linearGradient id="d" gradientUnits="userSpaceOnUse" x1="403.5" y1="796.7" x2="447.6" y2="866.2">
        <stop offset="0"/>
        <stop offset="1" stop-color="#11111F"/>
      </linearGradient>
    </defs>
    <path fill="url(#d)" transform="scale(.78143)" d="M405 799h27c6 0 13-1 20 1l2 2 10 11v22c0 6 1 18-3 23l-6 5h-37l-21-1c-3-3-6-5-7-10v-42l2-6c3-4 8-4 13-5Z"/>
    <path fill="#434B86" d="m313 628 24-1 15 1 4 3c2 4 1 29 0 33l-5 4h-37l-4-2-2-2v-32c1-2 3-4 5-4Z"/>
    <path fill="#FEFEFE" d="M333 639h1l1 7h6v3h-6l-1 8h-2v-8l-7-1v-2h7l1-7Z"/>
    <path d="M249 390h40l4 2c2 2 3 5 3 7v33l-2 4c-3 3-4 3-8 3h-37c-3 0-5 0-7-2l-3-6v-34l2-4c2-3 4-3 8-3Z"/>
    <path fill="#2D2D5D" d="m293 428-1 5-3 2h-42l-3-1c-2-1-2-3-2-4v-6c0 2-1 4 1 5l4 3h36l6-1 4-3Z"/>
    <path fill="#434B86" d="M242 424v-12c0-5-2-14 2-18l2-1h37c3 0 6-1 8 1 4 4 1 27 2 34l-4 3-6 1h-36l-4-3c-2-1-1-3-1-5Z"/>
    <path d="M269 401h2c5 1 2 10 4 13l2 4-3 2v5l-4 2-4-2-1-6h-8l-1-3 6-8c2-3 3-6 7-7Z"/>
    <path fill="#FEFEFE" d="M269 403h1c3 1 1 8 2 11l1 1-1 1v2l-1 6h-3l-1-5v-3l-10 1c4-5 7-10 12-14Z"/>
    <path d="M516 390h37l6 2 3 6v26c0 4 0 10-3 13-2 2-5 2-8 2h-40l-3-2c-2-1-4-5-4-8v-32l2-4c3-3 6-3 10-3Z"/>
    <path fill="#2D2D5D" d="M558 426h1v3l-3 6h-45l-4-4v-31 28l2 2 2 1h40c3 0 5-2 7-5Z"/>
    <path fill="#434B86" d="M507 400c0-3 1-5 3-7h45l3 3v30c-2 3-4 5-7 5h-40l-2-1-2-2v-28Z"/>
    <path d="M522 410c4 0 23-1 26 1l1 9h-31c-2-2-1-7-1-10h5Z"/>
    <path fill="#75FD9B" d="M519 412h27v6h-27v-6Z"/>
    <path d="M248 448h40l5 2c2 1 2 3 3 5v34c0 2 0 4-2 6-1 2-3 3-6 3h-29c-4 0-12 1-15-1s-5-4-5-7v-34l1-5c2-2 5-2 8-3Z"/>
    <path fill="#2D2D5D" d="M293 455v34a6 6 0 0 1-5 5h-43l-3-2v-5l3 3 11 1h17l10-1c5 0 6-1 10-4v-31Z"/>
    <path fill="#434B86" d="M242 487v-32l2-3 6-1h36l4 1 3 3v31c-4 3-5 4-10 4l-10 1h-17l-11-1-3-3Z"/>
    <path d="M265 458h4l5 5v7c-1 1 1 3 1 5s0 5-2 7c-1 2-4 3-6 3-3 0-6 0-8-2-2-1-3-3-3-5-1-3 0-5 2-7v-1l-1-2 1-6 7-4Z"/>
    <path fill="#FEFEFE" d="M264 460c3 0 5 0 7 2l1 3-1 5h-1l1 2 2 2-1 5-5 4c-3 0-5 0-7-2-2-1-2-3-3-5 0-2 2-4 4-5v-1l-1-1-1-1v-3c1-3 3-4 5-5Z"/>
    <path fill="#0B3745" d="M265 464h2l2 3-2 2h-3l-1-3 2-2Z"/>
    <path fill="#17191C" d="m264 473 4 1 1 3-3 2h-1l-3-1v-3l2-2Z"/>
    <path d="M447 624h38l5 2c2 2 4 5 4 8v18l-1 15c0 2 0 3-2 4-2 3-5 3-9 3h-37l-4-1c-2-2-4-4-4-6l-1-14v-20l2-4c2-4 6-4 9-5Z"/>
    <path fill="#2D2D5D" d="M439 647v1l1 11v4l3 3c2 2 5 1 7 2h32c3-2 7-6 8-9v2c0 3 0 6-2 8h-1l-4 1-32 1h-7l-3-2c-3-3-2-7-2-10v-12Z"/>
    <path fill="#434B86" d="M439 647c0-5-1-13 3-18l4-2h37l4 1 3 6v25c-1 3-5 7-8 9h-32c-2-1-5 0-7-2l-3-3v-4l-1-11v-1Z"/>
    <path fill="#FEFEFE" d="M464 641h2l1 7 6 1v2h-6l-1 6v1l-2-1v-6l-8-1v-1l8-1v-7Z"/>
    <path d="M399 624h11c5 0 11-1 15 3l3 6v28c0 4 0 8-3 10l-4 3h-36c-3 0-7 1-10-1l-2-1c-2-2-2-4-2-7l-1-25 1-10 2-3 3-2 7-1h16Z"/>
    <path fill="#2D2D5D" d="m375 663 4 4v1l1 2h-1l-3-1-1-6Z"/>
    <path fill="#D0912F" d="M379 667h41l-6 2-13 1h-15l-5-2h-2v-1Z"/>
    <path fill="#EFC54A" d="m375 663-1-21 1-12 3-2h39l4 1c3 3 3 6 3 9v10c0 5 1 14-4 19h-41l-4-4Z"/>
    <path d="M392 639h3l4 2-1 1c-2 1-4-1-7-1 1 2 2 3 4 3 1 1 4 2 4 4v4l-5 4-5-3v-2l1-1 2 1 1 1 3-1c1-4-5-4-7-7v-3l3-2ZM407 639h3l-1 3h-4l-1 1h1l3 1 3 3v5c-1 2-2 3-4 3-1 1-3 0-5-1l-1-3v-1l2-1 2 3 2-1 1-2-1-2h-6v-8h6ZM449 390h38l5 2c2 2 2 4 3 7l-1 13v20l-2 4c-3 3-7 3-11 3h-38l-4-2c-2-2-3-4-3-7v-32l2-5c3-3 7-3 11-3Z"/>
    <path fill="#2D2D5D" d="M491 424c0 2 1 7-1 9-1 2-3 2-5 2h-21l-17 1h-4l-1-2-3-3 22 1c7 0 16 1 23-1l4-2c2-1 3-3 3-5Z"/>
    <path fill="#434B86" d="M439 431v-32l1-5 6-1h41l3 1 1 3v27c0 2-1 4-3 5l-4 2c-7 2-16 1-23 1l-22-1Z"/>
    <path d="m467 400 7 1 2 2c1 4-2 9-3 12l-6 12h-4c-2 0-2-1-3-2-1-4 2-7 4-10l4-7h-10l-1-3c-1-1 0-3 1-4 1-2 6-1 9-1Z"/>
    <path fill="#FEFEFE" d="M460 402h13l1 2c1 2 0 4-1 6l-4 9-3 5-2 1c-2 0-2-1-2-2l3-6 5-11h-11v-3l1-1Z"/>
    <path d="M249 564h40l4 2c2 2 3 4 3 8v34l-2 3c-2 3-4 3-8 3h-31l-11-1-5-6v-36l2-5c3-2 4-2 8-2Z"/>
    <path fill="#2D2D5D" d="M242 601c1 3 3 5 6 6l6 1h11l20-1 4-1 4-4-2 6c-2 2-4 2-7 2h-38l-3-2c-2-2-2-5-1-7Z"/>
    <path fill="#434B86" d="m242 601-1-21v-8l2-3c2-2 6-2 9-2h14c7 0 16-1 23 1l2 1 1 2 1 9v22l-4 4-4 1-20 1h-11l-6-1c-3-1-5-3-6-6Z"/>
    <path d="M267 572h3l3 3v19l-1 7-3 1-4-1c-2-4-1-9-1-14l-3-2c-2-1-3-3-3-5 1-3 6-7 9-8Z"/>
    <path fill="#FEFEFE" d="M267 575h2c2 2 2 4 2 6l-1 14c0 1 1 3-1 4h-2l-1-6v-13l-4 4-2-3 7-6Z"/>
    <path d="M512 448h37l9 1 3 4c2 3 1 38 0 41s-4 3-6 4h-46l-4-5-1-7v-13l1-17 1-4c1-2 4-3 6-4Z"/>
    <path fill="#2D2D5D" d="M559 478c0 4 1 12-2 15l-4 2h-39l-5-2c-2-2-2-5-2-7l4 4h1l3 1h28l9-1 3-1c3-3 3-7 4-11Z"/>
    <path fill="#434B86" d="m507 486 1-10v-21l3-4h43l3 1 1 2 1 9v15c-1 4-1 8-4 11l-3 1-9 1h-28l-3-1h-1l-4-4Z"/>
    <path fill="#2D2D5D" d="M522 478h25c-1 1-1 2-3 2l-15 1h-4l-3-2v-1Z"/>
    <path d="M522 478h-4c-2-3-1-7-1-10h31v1c0 2 1 7-1 9h-25Z"/>
    <path fill="#75FD9B" d="M519 470h27v6h-27v-6Z"/>
    <path d="M315 565h41l4 2 4 5v33l-2 5c-2 3-4 3-7 4h-42l-5-2c-3-3-3-6-3-10v-30l2-5c3-2 5-2 8-2Z"/>
    <path fill="#2D2D5D" d="M308 602c2 3 4 4 8 5h39l1-1c4-3 4-6 4-11 2 3 1 7 0 10v1l-3 4h-44l-2-2c-2-2-3-3-3-6Z"/>
    <path fill="#434B86" d="M308 602v-18c0-4-1-11 1-14 1-2 3-2 4-2h42l4 1 1 3v23c0 5 0 8-4 11l-1 1h-39c-4-1-6-2-8-5Z"/>
    <path d="M326 577h4l3 5 5-5h4l1 2c0 3-3 7-4 9l5 10-3 3-2 1-5-6-6 6-3-1c-2-3 2-8 4-10l1-1-2-2c-2-3-4-6-4-10l2-1Z"/>
    <path fill="#FEFEFE" d="M327 579h2l5 6 4-6 3 1-5 9 5 8-2 2-5-7-5 7h-3l6-10-6-9 1-1Z"/>
    <path d="M442 448h29c6 0 13-1 18 1 2 0 3 2 4 3l1 4v37c-1 3-3 4-6 5h-44c-3-1-5-2-7-5l-1-8v-23l1-9c1-3 3-4 5-5Z"/>
    <path fill="#2D2D5D" d="m439 489 4 2h42c4-4 5-7 6-12 0 4 1 11-2 14-2 3-13 2-17 2l-11-1h-17c-2 0-3 0-4-2l-1-3Z"/>
    <path fill="#434B86" d="M439 489v-24c0-4-1-9 2-12l3-2h33c3 0 10-1 12 1 3 3 2 22 2 27-1 5-2 8-6 12h-42l-4-2Z"/>
    <path d="m466 460 5 1 5 5-1 6-1 1 2 4c1 2 0 5-2 7s-4 3-7 3-5 0-7-2c-2-1-3-3-3-5-1-3 0-5 1-7l1-1-2-4 2-5c1-2 4-3 7-3Z"/>
    <path fill="#FEFEFE" d="M466 462c1-1 4 0 5 1l3 4c0 3-2 4-3 6l1 1 1 2v5c-1 3-2 3-5 4h-6l-4-6 2-5 1-1v-1l-2-3 1-5c2-2 3-2 6-2Z"/>
    <path fill="#2D2D5D" d="m465 465 3 1 1 2-2 2-1 1-2-2-1-2 2-2ZM465 475l1-1 3 1 1 4-3 2c-1 1-2 0-3-1-1 0-2-2-1-3 0-1 0-2 2-2Z"/>
    <path d="M313 390h44l4 2c2 2 3 4 3 7v34c0 2-1 3-2 3-1 2-3 3-5 3h-43l-5-1-4-7v-33l2-5c2-2 3-3 6-3Z"/>
    <path fill="#2D2D5D" d="M361 423v10l-2 2h-46c-3-1-4-2-5-5l4 2h41l4-1c3-2 3-5 4-8Z"/>
    <path fill="#434B86" d="M308 430v-32l1-3 4-2h44l3 1 1 1v28c-1 3-1 6-4 8l-4 1h-41l-4-2Z"/>
    <path d="m334 401 6 1c3 1 4 4 4 6-1 5-4 8-8 12h6l2 2-1 4c-1 2-6 1-9 1l-7-1-1-2c-1-3 3-6 4-8l6-7-1-1-2 1h-3c-2 0-2-1-3-2v-4c2-2 4-2 7-2Z"/>
    <path fill="#FEFEFE" d="m332 403 7 1 3 3c1 5-6 11-9 14l8 1v2l-4 1c-2 0-7 1-9-1v-2l2-3c3-3 7-7 8-10l-1-2h-7l-1-2 3-2Z"/>
    <path d="M334 448h15l8 1 5 2c3 4 2 11 2 16v13c0 4 1 13-2 16l-4 2h-23c-5 0-22 1-26-2-3-1-4-3-4-6v-35l2-4 4-2 23-1Z"/>
    <path fill="#2D2D5D" d="M360 454v14l1 4v15l-1 4-2 2-11 1h-28l-8-1-3-4v-1c3 2 6 2 10 3h22l13-1 3-1c2-1 3-3 3-5v-7l1-23Z"/>
    <path fill="#434B86" d="M308 488v-33c0-2 2-3 4-4h45l3 3-1 23v7c0 2-1 4-3 5l-3 1-13 1h-22c-4-1-7-1-10-3Z"/>
    <path d="M337 459v-1l4 2c2 2 1 9 1 13l3 2v4l-3 1-1 1v5h-1l-5-1-2-4v-1h-6l-3-1v-5l4-6c2-3 5-8 9-9Z"/>
    <path fill="#FEFEFE" d="M337 461h1c4 1 0 11 2 14l3 1v2h-3l-1 6-3-1v-3l-1-2c-2-1-7 1-9-1v-1c1-3 8-13 11-15Z"/>
    <path fill="#17191C" d="M336 468v2l-1 5h-3v-1l4-6Z"/>
    <path d="m519 566 19-1 14 1 5 1c3 2 4 5 4 8l1 18v54l-1 17c0 2 0 4-2 6-2 3-5 4-8 4h-36l-4-2c-3-2-4-5-5-8v-89l3-6c3-3 6-3 10-3Z"/>
    <path fill="#D0912F" d="m511 664 6 1c4 0 32 1 34-1v-1l7-7c0 4 1 8-2 12-2 2-5 2-7 2h-19l-13-1-4-1-2-4ZM510 580l1-6c0-2 2-4 3-4l7-1h30l3 1h1l2 2c2 2 1 6 1 8l-5-4h-21c-5 0-11-1-16 1l-6 3Z"/>
    <path fill="#EFC54A" d="m510 580 6-3c5-2 11-1 16-1h21l5 4v76l-7 7v1c-2 2-30 1-34 1l-6-1-1-10v-74Z"/>
    <path fill="#452D3F" d="M605 64h1l6 5 8 8 22 22 74 75 28 28 3 4-1 2-20 21-37 36-138 138-92 93-151 150-94 93c-3 3-5 5-9 5l-6-3-28-27-65-65-28-26c-4-5-10-9-13-14-1-1-2-2-1-4l2-3 17-17 31-31 89-90 292-291 77-77 20-20c4-4 8-9 13-12Z"/>
    <path fill="#E16405" d="m330 557 12 12-22 21-11-11 21-22ZM363 524l12 12-23 22-12-11 5-4 7-8 11-11ZM237 651l11 11-24 24-10-11 3-5 20-19ZM463 425l22-23 12 12-15 14-7 8-12-11ZM393 495l11 11-17 17-8 8-11-11 25-25ZM709 179l7 8 4 3-27 28-11-12 9-8 18-19ZM459 429l11 11-28 29-11-11 28-29ZM305 584l11 11-29 28-11-11c4-2 8-7 11-11l18-17ZM208 678l11 12-21 21-8 8-11-11 9-9 20-21Z"/>
    <path fill="#E16405" d="M426 462c4 3 9 7 11 11l-22 23-11 10-11-11v-1l4-3 6-6c3-1 5-5 7-6l16-17Z"/>
    <path fill="#C02E2C" d="m403 485 12 11-11 10-11-11v-1l4-3 6-6Z"/>
    <path fill="#E16405" d="m518 370 12 12-23 22c-3 4-6 8-10 10l-12-12c4-1 8-6 10-9v-1c4-2 7-6 10-9l13-13Z"/>
    <path fill="#C02E2C" d="m495 393 12 11c-3 4-6 8-10 10l-12-12c4-1 8-6 10-9Z"/>
    <path fill="#E16405" d="m270 616 8 8 4 4-24 24-10 10-11-11h-1c3 0 8-7 10-10 3-1 21-22 24-25Z"/>
    <path fill="#C02E2C" d="m246 641 5 4 7 7-10 10-11-11h-1c3 0 8-7 10-10Z"/>
    <path fill="#E16405" d="M550 337h1l12 12-28 28-5 5-12-12 5-5v-1l19-19c3-2 7-5 8-8Z"/>
    <path fill="#801510" d="m523 365 8 8 4 4-5 5-12-12 5-5Z"/>
    <path fill="#E16405" d="m587 301 12 11-9 10-22 22-5 5-12-12 5-5 22-22 4-4 5-5Z"/>
    <path fill="#801510" d="m556 332 4 3 8 9-5 5-12-12 5-5Z"/>
    <path fill="#C02E2C" d="m587 301 12 11-9 10-4-5-8-7 4-4 5-5Z"/>
    <path fill="#FBF7FC" d="m79 610-4-4L606 76l4 4c-12 10-22 21-33 32l-35 35-157 157-93 93-117 117-65 65-21 21-10 10Z"/>
    <path fill="#C02E2C" d="m725 195 11 11-6 7-17 16-79 79-428 427-11-11 530-529Z"/>
    <path fill="#FEDF18" d="m610 80 99 99-18 19-9 8h-1l-48-47-6-2c-3 0-5 2-7 3-8 6-15 13-21 20l-23 22-85 86-270 271-58 58-38 38-46-45 10-10 21-21 65-65 117-117 93-93 157-157 35-35c11-11 21-22 33-32Z"/>
    <path fill="#452D3F" d="m605 128 9 1c4 1 7 5 8 9v11c-3 5-7 8-12 10-3 0-6 0-10-2a16 16 0 0 1-5-22c2-5 6-6 10-7Z"/>
    <path fill="#FBF7FC" d="M606 131h6c4 2 6 4 7 8 2 3 2 6 0 9-2 4-5 6-9 7l-6-1c-3-1-6-4-8-7v-9c2-4 6-6 10-7Z"/>
    <path fill="#452D3F" d="M152 570c2-1 6 0 8 2 4 2 7 6 7 10 1 4 0 9-2 12-3 4-7 6-12 7-4 0-7-1-10-3s-6-6-7-10l3-12c3-4 8-6 13-6Z"/>
    <path fill="#FBF7FC" d="m149 573 8 1c3 1 5 4 7 8 1 2 0 5-1 8-2 4-4 6-9 7h-6c-3-1-6-4-8-7-1-3-1-6 1-9 1-4 4-6 8-8Z"/>
    <path fill="#452D3F" d="m566 147 3 1-1 1-2 3-9 8-43 42-242 242-44 44-41 41-2-2c0-2 5-7 7-8l36-35 82-82 256-255Z"/>
    <path fill="#F49F18" d="m125 655 38-38 58-58 270-271 85-86 23-22c6-7 13-14 21-20 2-1 4-3 7-3l6 2 48 47h1l11 12-11 11-21 22-6 5-26 26-6 6-16 16-8 8-12-11-5 5-4 4-22 22-5 5h-1c-1 3-5 6-8 8l-19 19v1l-5 5-13 13c-3 3-6 7-10 9v1c-2 3-6 8-10 9l-22 23-12-12c-3-3-6-7-10-9l-3 1v3c2 4 6 7 9 10l12 11-28 29-13-13c-3-3-5-6-9-8l-4 3c1 3 18 18 21 22l-16 17c-2 1-4 5-7 6l-6 6-4 3v1l-25 25-19-18-8-7-3 4 25 25-11 11-7 8-5 4 12 11-6 7-4 4-12-12-21 22-15-14-8-7-4 4 23 22-18 17c-3 4-7 9-11 11l-20-18-4 4 18 18c-3 3-21 24-24 25-2 3-7 10-10 10h1l-20 19-3 5-31-30-4 5 29 28-20 21-9 9-54-53Z"/>
    <path fill="#642523" d="m611 277-11-11-6-8 2-2 2-1c4 0 15 13 19 16l-5 6h-1ZM518 370l-12-12-7-7v-3l3-2 2 1c3 1 5 4 8 7l11 10v1l-5 5ZM550 337l-18-18c-1-1-4-4-4-6l1-2 2-1c4 0 21 18 25 22l-5 5h-1ZM644 245l-8-8-15-14c-3-3-10-8-11-12l1-3 3-2 8 6 7 7 20 20v1l-5 5Z"/>
    <path fill="#E16405" d="M611 277h1l4 4 7 7-16 16-8 8-12-11 20-20 4-4ZM671 218l11 11-21 22-6 5-11-11 5-5v-1c3-1 6-5 8-8l14-13Z"/>
    <path fill="#801510" d="m649 240 12 11-6 5-11-11 5-5Z"/>
    <path fill="#E16405" d="m644 245 11 11-26 26-6 6-7-7-4-4 5-6 6-6 14-14 7-6Z"/>
    <path fill="#801510" d="m617 271 12 11-6 6-7-7-4-4 5-6Z"/>
    <path fill="#EA2132" d="m393 494-39-37 10-11 39 39-6 6-4 3ZM485 402l-9-9-16-15-8-8-5-6-1-5c2-3 5-4 8-5 7 4 13 11 19 17l22 21v1c-2 3-6 8-10 9ZM236 651l-43-42 10-11 43 43c-2 3-7 10-10 10ZM578 310l-32-31-13-12-2-4 1-4 6-3 5 2 14 14 30 29-5 5-4 4ZM327 554l-6-6-24-24-11-10 10-10 5 4 9 9 30 30 12 11-6 7-4 4-12-12-3-3Z"/>
    <path fill="#C02E2C" d="m340 547 12 11-6 7-4 4-12-12-3-3 4 3 9-10Z"/>
    <path fill="#EA2132" d="m633 159 48 47h1l11 12-11 11-11-11v-1l-33-32-13-12-2-5v-3c3-4 6-5 10-6Z"/>
    <path fill="#C02E2C" d="M681 206h1l11 12-11 11-11-11v-1h1l7-7 2-2v-2Z"/>
  </svg>
  <path fill="#1D79BF" d="M598 96c10 5 18 13 22 23l2 11v568a38 38 0 0 1-26 36l-11 1H260l-17-1c-11-2-23-9-30-19l-1-3 6 4c5 2 10 4 16 4h334c4 0 7 0 10-2 9-3 17-10 21-19l2-12 1-35V355l1-163v-79c-1-6-2-12-5-17Z"/>
  <path d="m212 712-6-6c-5-6-9-14-9-21-2-13-1-26-1-38v-74l1-243 1-152v-70a37 37 0 0 1 36-33h333c9 1 17 5 24 11l7 10c3 5 4 11 5 17v79l-1 163v297l-1 35-2 12c-4 9-12 16-21 19-3 2-6 2-10 2H234c-6 0-11-2-16-4l-6-4Zm10-33c4 2 8 4 13 4h320c5 0 10-1 14-4 10-10 7-24 8-36l1-8v-8l2-4v-11l-1-14 3-307H219v377l3 11Z"/>
  <path fill="#D0912F" d="M572 107c5 4 8 10 9 16 2 5 1 11 1 17v136l-20-1c4-4 7-7 8-13 2-8 2-18 2-26V107Z"/>
  <path fill="#2D2D5D" d="M575 82a38 38 0 0 1 23 31l1 22v152l-4 1h-8V122c-1-6-4-13-9-18l-9-6 6-16Z"/>
  <path fill="url(#a)" transform="scale(.78143)" d="m739 823 1-10v-11l2-5v39l1 18-1 16-7 13c-5 6-14 9-21 10l-28-1H465l-100 1h-32l-18-1c-7 0-16-4-21-9-5-4-8-8-10-14 5 2 10 5 16 5h410c6 0 13-2 18-6 14-11 9-29 11-45Z"/>
  <path fill="#2D2D5D" d="m231 697 12 4c5 2 12 1 17 1l25 1h208l46-1h19c5 0 10-2 14-5 6-3 12-9 13-16l1-17V562l1-270h12l-1 100-1 156v139l-2 9c-3 8-9 14-17 17-4 2-9 2-14 3l-59-1H378l-94 1h-46c-6 0-10-1-15-3-10-4-15-11-19-21l7 3 20 2Z"/>
  <path fill="#434B86" d="m204 692-1-1c-2-4-3-10-3-15V515l1-287 1-79v-24c0-7-1-15 1-22 3-8 8-15 16-20 4-2 8-3 13-3h334l9 2-6 16-15-5H244l-11 3a32 32 0 0 0-19 27l-1 25v119l2 7c1 3 3 5 7 6h360v7H214v373l1 14v1c2 9 9 16 16 22l-20-2-7-3Z"/>
  <path fill="#EFC54A" d="M562 275H236l-10 1-5-2-3-6V145c0-8-1-17 1-25 0-4 3-9 6-12 5-6 12-9 19-9l23-1h289c6 1 11 4 16 9v129c0 8 0 18-2 26-1 6-4 9-8 13Z"/>
  <path d="M529 112c5-1 13-2 18 0l3 2 2 3v26c0 3 0 6-2 8l-1 1-4 1H398c-3 0-7 1-9-1l-2-3v-29c-1-2 0-5 2-7l3-1h137Z"/>
  <path fill="#65322A" d="M392 117h153l2 2v16l-1 12c-1 2-4 1-6 2l-17-1H392v-31Z"/>
  <path d="M247 167h302l7 1c5 2 8 7 10 11v71l-2 6c-3 4-7 7-12 8h-82l-165 1h-49l-8-1c-5-2-9-5-12-9l-3-8v-50c0-5-1-13 1-18 1-5 4-8 9-10l4-2Z"/>
  <path fill="#9FF0F0" d="M239 236v-54a11 11 0 0 1 8-8l6-1h46l-60 58v5ZM551 173c3 1 6 2 8 5l2 5v13l-1 24v29a11 11 0 0 1-9 9h-86l8-8 14-13 36-35c9-9 19-18 28-29Z"/>
  <path fill="#FEFEFE" d="M360 173h14l-6 7-12 12-51 50-11 10-5 6h-28c-6 1-13 1-18-4s-4-11-4-18v-5l60-58h61Z"/>
  <path fill="#9FF0F0" d="M360 173h14l-6 7-12 12-51 50-11 10-5 6h-17l7-6 11-12 41-39 29-28Z"/>
  <path fill="#9FF0F0" d="M374 173h177c-9 11-19 20-28 29l-36 35-14 13-8 8-21 1-16-1H289l5-6 11-10 51-50 12-12 6-7Z"/>
  <path fill="#FEFEFE" d="M529 173h22c-9 11-19 20-28 29l-36 35-14 13-8 8-21 1-2-1 87-85ZM374 173h16l8 1-86 84h-23l5-6 11-10 51-50 12-12 6-7Z"/>
  <path fill="#B6A4DE" d="m222 679-3-11V291h363l-3 307 1 14v11l-2 4v8l-1 8c-1 12 2 26-8 36-4 3-9 4-14 4H235c-5 0-9-2-13-4Zm225-172c-3 0-6-1-8 2l-3 5v32l4 7 4 1 15 1h24c4 0 7 0 10-4l1-3v-35c-2-3-3-5-6-6h-41Z"/>
  <path fill="#2D2D5D" d="m577 643 2-25v-20l1 14v11l-2 4v8l-1 8Z"/>
  <path d="M381 312h25c5 0 12-1 17 1 2 1 3 2 3 4 2 4 1 11-1 14-1 3-3 3-5 4-5 0-40 1-43-1-1-1-3-3-3-5-1-3-2-11 0-14 2-2 5-2 7-3Z"/>
  <path fill="#1D79BF" d="m376 325 2 2h46l-1 2-3 2h-10c-5 0-29 1-32-1l-2-5Z"/>
  <path fill="#9FF0F0" d="M376 319c0-2 1-3 3-4h39l4 1 3 3-8 1h-17l-24-1Z"/>
  <path fill="#2ED0D8" d="m376 319 24 1h17l8-1-1 8h-46l-2-2v-6Z"/>
  <path d="M246 312h41l3 2c2 1 2 3 3 5v11c-2 3-4 4-7 5h-29l-11-1-5-2c-3-4-2-10-2-15 1-2 4-4 7-5Z"/>
  <path fill="#5C7A8B" d="M241 327h40l10-1-4 5h-42l-4-4Z"/>
  <path fill="#C6EAEE" d="m241 320 1-3c1-2 2-2 4-2h18l19-1 5 1c2 1 2 3 2 4l-14 1h-35Z"/>
  <path fill="#9FF0F0" d="M241 320h35l14-1 1 7-10 1h-40v-7Z"/>
  <path d="M447 312h26c5 0 11-1 15 1 2 0 4 1 4 3 2 4 1 12 0 16-2 2-4 3-7 3h-39l-4-2c-2-1-3-3-3-5 0-4-1-10 2-13l6-3Z"/>
  <path fill="#1D79BF" d="M442 320v7h48l-2 3-4 1h-38l-3-2h-1v-9Z"/>
  <path fill="#9FF0F0" d="M442 320v-3l2-2h44l3 3-3 2h-46Z"/>
  <path fill="#2ED0D8" d="m491 318-1 9h-48v-7h46l3-2Z"/>
  <path d="M312 312h31c4 0 11-1 13 1h1l4 4c1 3 0 10-1 14l-5 4h-33l-9-1-5-2c-3-2-2-6-2-10l1-7h1l4-3Z"/>
  <path fill="#1D79BF" d="m308 326 2 1h48l-2 3-1 1h-44l-3-5Z"/>
  <path fill="#3DA6E0" d="M308 326v-1c1-3-1-7 2-9l3-1h42l3 2v10h-48l-2-1Z"/>
  <path d="M513 312h41l4 2c2 1 3 2 3 4 0 4 1 11-2 14-2 3-3 3-6 3h-36l-8-1c-2-1-3-3-3-5-1-3-1-10 1-14 1-2 4-2 6-3Z"/>
  <path fill="#AD1052" d="M559 322c0 2 0 5-2 8l-5 1h-40l-3-1-1-3c6 2 13 1 19 1h27l5-6Z"/>
  <path fill="url(#b)" transform="scale(.78143)" d="M650 419c0-4-1-10 1-13 1-2 3-3 5-3l11-1 23 1h20l2 1c3 2 3 5 3 8l-6 8h-34l-25-1Z"/>
  <path d="M245 348h36l7 1c2 0 4 3 4 4v14c-1 3-3 4-5 5h-35l-7-1c-2 0-4-3-5-5-2-3-2-9-1-13 1-3 4-4 6-5Z"/>
  <path fill="#0B3745" d="m242 362 4 2h38c3 0 4-2 6-4 0 2 0 5-2 7l-4 1h-37l-4-2-1-4Z"/>
  <path fill="#06BEBF" d="m241 358 3 1 10-1h36v2c-2 2-3 4-6 4h-38l-4-2-1-4Z"/>
  <path fill="#2ED0D8" d="m241 358 2-6 4-1h36l5 1c2 2 2 4 2 6h-36l-10 1-3-1Z"/>
  <path d="M380 348h39l4 1 4 5c1 4 1 11-1 14l-6 4h-37l-5-1c-2-1-4-3-5-6s-1-10 1-13 4-3 6-4Z"/>
  <path fill="#0B3745" d="m424 361-1 6c-2 2-4 2-6 2h-22l-12-1h-5l-2-4v-1l3 2 26-1 15 1 4-4Z"/>
  <path fill="#06BEBF" d="M375 360h49v1l-4 4-15-1-26 1-3-2-1-3Z"/>
  <path fill="#2ED0D8" d="M375 360c0-3 0-6 2-8l2-1h39l4 1c2 2 2 6 2 8h-49Z"/>
  <path d="M446 348h23c6 0 14-1 19 1l4 3c2 4 2 13 0 16-1 2-3 3-6 4-5 0-39 1-42-1-3-1-4-3-5-6s-1-10 1-14l6-3Z"/>
  <path fill="#430A2D" d="m442 363 3 2h13l19 1 12-1-2 3c-2 2-9 1-11 1l-31-1c-2-2-3-2-3-5Z"/>
  <path fill="#F9205B" d="m491 357-2 8-12 1-19-1h-13l-3-2-1-3c7 3 14 2 21 2h24l5-5Z"/>
  <path fill="#FD5881" d="m441 360 1-7 4-2h38l4 1c2 1 2 3 3 5l-5 5h-24c-7 0-14 1-21-2Z"/>
  <path d="M312 348h43l5 4c2 3 1 11 0 15l-5 5h-39l-5-1-4-4c-2-4-2-11 0-15l5-4Z"/>
  <path fill="#430A2D" d="M358 361v-1c0 3-1 5-3 7-1 2-4 2-6 2h-22l-14-1-2-1-2-4v-1l2 1h1c3-2 39-1 46-2Z"/>
  <path fill="#F9205B" d="m309 362 2 1h1c3-2 39-1 46-2l-4 4h-41l-2-1-2-2Z"/>
  <path fill="#FD5881" d="m309 362-1-6 3-4 5-1h37c2 0 3 0 4 2 2 2 1 5 1 7v1c-7 1-43 0-46 2h-1l-2-1Z"/>
  <path d="M514 348h41l3 2c2 1 3 3 3 5 1 4 1 11-1 14-2 2-4 3-7 3h-41l-2-1c-2-2-4-3-4-7s-1-10 2-13l6-3Z"/>
  <path fill="#0B3745" d="M558 359c0 3 1 6-1 8l-2 1-8 1h-32c-2 0-4 0-5-2-2-1-2-4-2-6l1 1 13-1h31l5 1v-3Z"/>
  <path fill="#06BEBF" d="m509 362 13-1h31l5 1-2 2-1 1-43-1c-2 0-3-1-3-2Z"/>
  <path fill="#2ED0D8" d="M508 361c0-3 0-7 2-9l4-1h40l3 1c2 2 1 5 1 7v3l-5-1h-31l-13 1-1-1Z"/>
  <path d="M416 507c3 0 6 0 9 2 2 2 3 4 3 7v31l-3 5-3 2-5 1-16-1h-17c-3 0-6 1-9-1l-3-7v-32l2-5 4-2h38Z"/>
  <path fill="#2D2D5D" d="M424 539v8c0 2-2 3-3 4h-39l-4-1-2-4v-1h-1l4 2h27c3 0 10 2 13 0s4-4 5-8Z"/>
  <path fill="#434B86" d="M375 545v-21c0-3-1-10 2-12l3-2h40l3 2 1 2v25c-1 4-2 6-5 8s-10 0-13 0h-27l-4-2Z"/>
  <path fill="#17191C" d="M394 522c1-2 3-4 6-4l6 3 1 1v2l-3-3h-6c-2 0-3 1-4 3v-2Z"/>
  <path d="m407 522 1 5v3c0 2-3 5-5 6h4l1 2v5c0 2-1 2-3 2h-14c-2-9 7-12 10-18l-1-1-6 2-1-2c-1-2 0-3 1-4v4h3l1-1h3l2 2c-1 5-13 11-10 16h13l1-1 1-3-1-1c-2-2-4-1-7-1l5-5c2-3 2-5 2-8v-2Z"/>
  <path fill="#FEFEFE" d="M394 524c1-2 2-3 4-3h6l3 3c0 3 0 5-2 8l-5 5c3 0 5-1 7 1l1 1-1 3-1 1h-13c-3-5 9-11 10-16l-2-2h-3l-1 1h-3v-2Z"/>
  <path fill="#2D2D5D" d="M407 542v-2l-1-1h-8l2-2c3 0 5-1 7 1l1 1-1 3Z"/>
  <path d="M383 565h37l5 2c2 3 3 7 3 10v16c0 5 1 14-3 17-3 3-5 3-8 3-7 0-37 2-41-1-2-1-3-4-4-7v-34l2-3c2-3 5-3 9-3Z"/>
  <path fill="#2D2D5D" d="M424 596v11l-4 2-6 1h-29l-6-1-3-4 3 2h7l15-1h16l3-2c3-1 3-5 4-8Z"/>
  <path fill="#434B86" d="M376 605v-2c-2-5-1-11-1-17 0-3-1-13 1-16 2-2 4-2 6-2h37l3 2 2 3v23c-1 3-1 7-4 8l-3 2h-16l-15 1h-7l-3-2Z"/>
  <path d="M407 581c2 4 3 11 1 15-1 3-2 5-5 6h-7l-4-3v-4l2-1h1c-1 1-2 2-1 4l1 2 5 1c3 0 4-1 5-3 3-5 2-11 1-15l1-2Z"/>
  <path fill="#FEFEFE" d="m397 593-4-4v-8c0-2 2-3 3-4h7l4 4-1 2c1 4 2 10-1 15-1 2-2 3-5 3l-5-1-1-2c-1-2 0-3 1-4v-1h2Z"/>
  <path fill="#0B3745" d="m397 593 6 1-2 3h-3l-3-3v-1h2ZM399 582h3l2 4-2 2h-3l-2-3c0-2 1-2 2-3Z"/>
  <path fill="#17191C" d="m397 593-4-4v-8c0-2 2-3 3-4h7l4 4-1 2-5-5-5 1-2 4c-1 2-1 4 1 6l3 3h5v2l-6-1Z"/>
  <path d="M244 507h40l7 1c2 0 4 2 4 4 2 5 1 12 1 17v17l-1 3c-1 3-3 4-5 5h-44c-2 0-4-1-6-4l-1-3v-34c1-4 3-5 5-6Z"/>
  <path fill="#2D2D5D" d="M293 542c0 3 0 5-3 7l-1 1a691 691 0 0 1-45 0l-2-3-1-4 4 3 3 2h7l33-1 5-5Z"/>
  <path fill="#434B86" d="M241 543v-17l1-11 1-3 3-2h38c3 0 5 0 7 2l2 3v27l-5 5-33 1h-7l-3-2-4-3Z"/>
  <path d="m263 517 13 1 1 2c1 4-4 12-6 16l-4 8-3 1c-2 0-3 0-4-2-1-5 5-13 8-18h-8l-2-2 1-5 4-1Z"/>
  <path fill="#FEFEFE" d="m266 519 9 1c0 5-3 10-5 14l-5 9h-3l-1-1 5-9 4-10h-9v-3l5-1Z"/>
  <path d="M380 390h40l3 1c2 1 4 3 4 5l1 8v25l-1 6-6 4h-42c-3-1-5-3-6-5l-1-4v-22l1-13 1-2 6-3Z"/>
  <path fill="#2D2D5D" d="m424 421 1 10c0 2-1 3-2 3l-4 1h-39l-4-2-1-2 5 1h39c4-4 4-6 5-11Z"/>
  <path fill="#434B86" d="M375 431v-32l1-4 3-2h44l1 3v25c-1 5-1 7-5 11h-39l-5-1Z"/>
  <path d="M406 409h1l3 9-4 7c-2 1-5 2-7 1-3 0-5-2-6-4-3-3-2-11-1-15 0-2 1-4 3-5 2-2 8-2 11-1l2 2c1 2 0 4-1 5l-1-2-1-3-7-1-4 4c-1 2-2 12 0 14l3 4h8l3-4-1-8-4-2h1l2-1Z"/>
  <path fill="#FEFEFE" d="m403 410 4 2 1 8-3 4h-8l-3-4c-2-2-1-12 0-14l4-4 7 1 1 3 1 2h-1v1l-2 1h-1Z"/>
  <path fill="#17191C" d="m406 406 1 2h-1v1l-2 1h-1l-5 1v-4l3-1h5ZM398 419l-1-3 2-2h3l2 2v3l-2 1-2 1-2-2Z"/>
  <path fill="#0B3745" d="m398 419 1-2h2l1 2v1l-2 1-2-2Z"/>
  <path d="M450 565h36l7 4 1 4v26l-1 8c0 2-1 3-3 4l-1 1-9 1h-33c-4 0-6-1-8-3l-2-4c-2-6-1-13-1-19v-14c1-3 2-5 4-6h1c2-2 6-2 9-2Z"/>
  <path fill="#2D2D5D" d="M439 591v11l1 1 6 2 18 1h17l5-1 4-5c0 3 0 6-2 7l-3 2-32 1h-8l-2-1-2-1-2-2v-15Z"/>
  <path fill="#434B86" d="M439 591v-18l2-2 3-2h3l7-1h30c2 0 3 0 4 2l2 3v27l-4 5-5 1h-17l-18-1-6-2-1-1v-11Z"/>
  <path d="m472 584 1 1c2 2 3 5 3 8s-1 6-3 8-5 2-7 2c-3 0-5-1-7-4s-1-6-2-9v-7l1-3 6-4c3-1 6-1 8 1l2 2-1 4h-1v-1l-1-3c-2-2-4-2-6-1-2 0-4 2-5 3-2 5 0 8 0 12-1 2 0 4 1 6s3 2 5 2c2 1 4 0 5-1 2-1 3-3 3-5 0-3 0-6-2-8l-2-2 2-1Z"/>
  <path fill="#FEFEFE" d="m470 585 2 2c2 2 2 5 2 8 0 2-1 4-3 5-1 1-3 2-5 1-2 0-4 0-5-2s-2-4-1-6c0-4-2-7 0-12 1-1 3-3 5-3 2-1 4-1 6 1l1 3h-1v1l1 1-2 1Z"/>
  <path fill="#2D2D5D" d="M470 585h-4l-3 1v-1l2-3h6v1l1 1-2 1Z"/>
  <path d="M465 589h1l3 1 1 4-2 3h-1l-3-1-1-5 2-2Z"/>
  <path fill="#2D2D5D" d="M467 590h1l1 2-1 4-1-1h-1l-1-2c0-2 0-2 2-3Z"/>
  <path d="M380 448c7 0 40-1 44 1 2 1 3 4 4 6v36l-2 4c-1 2-4 3-6 3h-40l-4-1-3-6c-2-7-1-15-1-22v-12l2-5c1-3 3-3 6-4Z"/>
  <path fill="#2D2D5D" d="M424 483v8c-1 2-3 3-5 3h-39l-2-1c-2-1-2-3-2-4l1 1 3 1h38l6-8Z"/>
  <path fill="#434B86" d="m376 489-1-18v-14l4-6h38l5 1 2 2v29l-6 8h-38l-3-1-1-1Z"/>
  <path fill="url(#c)" transform="scale(.78143)" d="m502 613 9 1-2 1h4-1c-2 1-7 0-8 2l-1 2c1 2 4 1 5 2l4 1 1 1h-6c-3-1-5-1-6-4l1-6Z"/>
  <path d="m394 470 1 1v2c1 2 4 1 5 2l2 2v3l-1 1-3-1h1l-7-1 1-4 1-5Z"/>
  <path fill="#2D2D5D" d="m392 479 1-4 7 1v3l-1 1-7-1Z"/>
  <path fill="#FEFEFE" d="M393 468v-5l4-3h4l5 2 2 4-1 6c1 3 2 6 1 9l-5 5-2 1-1-1h-3l-4-2v-2c2-2 6-1 7-1h1l1-1v-3l-2-2c-1-1-4 0-5-2v-2l-1-1-1-2Z"/>
  <path fill="#17191C" d="M393 468v-5l4-3h4l5 2 2 4-1 6c1 3 2 6 1 9l-5 5-2 1-1-1h-3l7-2c2-2 3-3 3-6s-1-4-3-6l2-4-1-4-4-2c-2 0-5 0-6 2l1 2 3-1 2 2v3l-5 1h-1l-1-1-1-2Z"/>
  <path fill="#2D2D5D" d="M401 467v3l-5 1h-1l-1-1-1-2h8v-1Z"/>
  <path d="M550 507c3 0 6-1 9 2s3 8 3 12v28l-2 4-4 2h-40c-3 1-6 0-9-2-2-2-3-4-3-7v-13c0-6-1-14 1-20l1-3 6-3h38Z"/>
  <path fill="#2D2D5D" d="m558 541 1 5c0 2 0 3-2 4l-4 1-21 1h-20l-4-2c-2-3-1-9-1-12l1 6 1 1c3 3 6 3 10 3l13-1h21l3-2 2-4Z"/>
  <path fill="#434B86" d="m507 538 1-17v-7l1-2 3-2h40c2 0 3 0 4 2 4 3 2 23 2 29l-2 4-3 2h-21l-13 1c-4 0-7 0-10-3l-1-1-1-6Z"/>
  <path d="M522 526h24l3 6-1 4h-2l-28-1v-8l4-1Z"/>
  <path fill="#75FD9B" d="M520 528h25l1 1v4h-26v-5Z"/>
  <path d="M447 507h41c3 1 4 3 6 6v35l-1 3c-3 4-6 4-10 4h-24l-15-1-4-1-4-7v-32l3-5c2-3 5-2 8-2Zm-8 38h1l3 2h20l19 1 4-1 5-6v-27l-2-3-2-1h-43l-3 2c-3 3-2 8-2 12v21Z"/>
  <path fill="#2D2D5D" d="M491 541v7c-1 2-3 3-5 3h-41l-4-1-2-3v-2h1l3 2h20l19 1 4-1 5-6Z"/>
  <path fill="#434B86" d="M439 545v-21c0-4-1-9 2-12l3-2h43l2 1 2 3v27l-5 6-4 1-19-1h-20l-3-2h-1Zm31-17-2 1h2c2 1 3 3 3 5 1 2 0 4-1 6l-5 4-5-1c-3-2-4-5-4-8-1-4 0-8 3-11 2-3 5-4 8-4l2 2v1c-2 2-5 1-7 2l1 1h6c1-1 2-1 2-3l-1-3c-1-2-4-2-6-1-3 0-6 2-8 4-2 4-3 10-2 14 1 3 2 6 5 8h8l5-5c1-2 2-6 0-8 0-3-2-4-4-4Z"/>
  <path d="M470 528c2 0 4 1 4 4 2 2 1 6 0 8l-5 5h-8c-3-2-4-5-5-8-1-4 0-10 2-14 2-2 5-4 8-4 2-1 5-1 6 1l1 3c0 2-1 2-2 3h-6l-1-1c2-1 5 0 7-2v-1l-2-2c-3 0-6 1-8 4-3 3-4 7-3 11 0 3 1 6 4 8l5 1 5-4c1-2 2-4 1-6 0-2-1-4-3-5h-2l2-1Z"/>
  <path fill="#FEFEFE" d="M468 529h2c2 1 3 3 3 5 1 2 0 4-1 6l-5 4-5-1c-3-2-4-5-4-8-1-4 0-8 3-11 2-3 5-4 8-4l2 2v1c-2 2-5 1-7 2l1 1v1h1l4 1-2 1Z"/>
  <path fill="#2D2D5D" d="M468 529h-6v-1l2-3 1 1v1h1l4 1-2 1Z"/>
  <path d="M464 533c2-1 3 0 4 1l1 3-2 3-4-2-1-3 2-2Z"/>
  <path fill="#1D79BF" d="M466 535h1l-1 3-1-1 1-2Z"/>
  <path d="M314 507h43c2 0 4 2 5 3 2 3 2 5 2 7v15c0 6 1 12-1 18-2 2-3 4-7 4h-40l-7-1c-2-1-3-3-4-6v-34l2-2c2-3 4-4 7-4Z"/>
  <path fill="#2D2D5D" d="M360 531v8c1 3 2 7-1 9l-4 2-14 1h-26l-6-3-1-4 3 3c2 1 39 0 44-1l4-4v-1l1-10Z"/>
  <path fill="#434B86" d="M308 544v-28l1-3c1-2 3-3 5-3h42c2 0 2 1 3 2l1 7v12l-1 10v1l-4 4c-5 1-42 2-44 1l-3-3Z"/>
  <path d="m328 532-1-1c-1-4 0-10 2-13 3-1 11-2 13 0l1 3-1 3c-1 2-5 1-7 1l3 1c3 1 4 3 6 5v7l-5 6h-8c-2 0-4-2-5-4v-5l1-1v1l1 4 4 4 7-1 3-6c1-2 0-4-1-5-2-2-4-3-7-3l-1-1v-3l7-1h1l-1-3h-10l-2 12Z"/>
  <path fill="#FEFEFE" d="m328 532 2-12h10l1 3h-1l-7 1v3l1 1c3 0 5 1 7 3 1 1 2 3 1 5l-3 6-7 1-4-4-1-4v-1l1-2Z"/>
  <path fill="#17191C" d="M328 532h1c2 0 6-1 8 1l1 3-2 3h-3l-3-4h-3v-1l1-2Z"/>
  <path fill="#2D2D5D" d="M333 533h1l2 1v3h-1l-2-1v-3Z"/>
  <path d="M250 625h39c2 0 4 2 5 3 4 5 2 16 2 21v16l-3 6-3 3h-24c-6 0-14 1-19-1-4-2-6-5-7-8l-1-1v-32l2-4 3-3h6Z"/>
  <path fill="#D0912F" d="m250 668 28-1h9l4-3c-1 2-1 4-3 5l-4 1h-17l-15-1-2-1Z"/>
  <path fill="#EFC54A" d="m250 668-3-2c-2-2-4-4-4-6v-29l2-3h44l3 3v25l-1 8-4 3h-9l-28 1Z"/>
  <path d="M254 640h10v1l-2 1-1 1v9l-1 3h-2l-1-4v-8l-3-1v-2ZM266 640h2c2 0 2 2 3 3l2-3h3l-3 6 3 8v1h-2l-3-5-3 5-3-1 1-3 3-5-1-1-2-5Z"/>
  <path fill="url(#d)" transform="scale(.78143)" d="M405 799h27c6 0 13-1 20 1l2 2 10 11v22c0 6 1 18-3 23l-6 5h-37l-21-1c-3-3-6-5-7-10v-42l2-6c3-4 8-4 13-5Z"/>
  <path fill="#434B86" d="m313 628 24-1 15 1 4 3c2 4 1 29 0 33l-5 4h-37l-4-2-2-2v-32c1-2 3-4 5-4Z"/>
  <path fill="#FEFEFE" d="M333 639h1l1 7h6v3h-6l-1 8h-2v-8l-7-1v-2h7l1-7Z"/>
  <path d="M249 390h40l4 2c2 2 3 5 3 7v33l-2 4c-3 3-4 3-8 3h-37c-3 0-5 0-7-2l-3-6v-34l2-4c2-3 4-3 8-3Z"/>
  <path fill="#2D2D5D" d="m293 428-1 5-3 2h-42l-3-1c-2-1-2-3-2-4v-6c0 2-1 4 1 5l4 3h36l6-1 4-3Z"/>
  <path fill="#434B86" d="M242 424v-12c0-5-2-14 2-18l2-1h37c3 0 6-1 8 1 4 4 1 27 2 34l-4 3-6 1h-36l-4-3c-2-1-1-3-1-5Z"/>
  <path d="M269 401h2c5 1 2 10 4 13l2 4-3 2v5l-4 2-4-2-1-6h-8l-1-3 6-8c2-3 3-6 7-7Z"/>
  <path fill="#FEFEFE" d="M269 403h1c3 1 1 8 2 11l1 1-1 1v2l-1 6h-3l-1-5v-3l-10 1c4-5 7-10 12-14Z"/>
  <path d="M516 390h37l6 2 3 6v26c0 4 0 10-3 13-2 2-5 2-8 2h-40l-3-2c-2-1-4-5-4-8v-32l2-4c3-3 6-3 10-3Z"/>
  <path fill="#2D2D5D" d="M558 426h1v3l-3 6h-45l-4-4v-31 28l2 2 2 1h40c3 0 5-2 7-5Z"/>
  <path fill="#434B86" d="M507 400c0-3 1-5 3-7h45l3 3v30c-2 3-4 5-7 5h-40l-2-1-2-2v-28Z"/>
  <path d="M522 410c4 0 23-1 26 1l1 9h-31c-2-2-1-7-1-10h5Z"/>
  <path fill="#75FD9B" d="M519 412h27v6h-27v-6Z"/>
  <path d="M248 448h40l5 2c2 1 2 3 3 5v34c0 2 0 4-2 6-1 2-3 3-6 3h-29c-4 0-12 1-15-1s-5-4-5-7v-34l1-5c2-2 5-2 8-3Z"/>
  <path fill="#2D2D5D" d="M293 455v34a6 6 0 0 1-5 5h-43l-3-2v-5l3 3 11 1h17l10-1c5 0 6-1 10-4v-31Z"/>
  <path fill="#434B86" d="M242 487v-32l2-3 6-1h36l4 1 3 3v31c-4 3-5 4-10 4l-10 1h-17l-11-1-3-3Z"/>
  <path d="M265 458h4l5 5v7c-1 1 1 3 1 5s0 5-2 7c-1 2-4 3-6 3-3 0-6 0-8-2-2-1-3-3-3-5-1-3 0-5 2-7v-1l-1-2 1-6 7-4Z"/>
  <path fill="#FEFEFE" d="M264 460c3 0 5 0 7 2l1 3-1 5h-1l1 2 2 2-1 5-5 4c-3 0-5 0-7-2-2-1-2-3-3-5 0-2 2-4 4-5v-1l-1-1-1-1v-3c1-3 3-4 5-5Z"/>
  <path fill="#0B3745" d="M265 464h2l2 3-2 2h-3l-1-3 2-2Z"/>
  <path fill="#17191C" d="m264 473 4 1 1 3-3 2h-1l-3-1v-3l2-2Z"/>
  <path d="M447 624h38l5 2c2 2 4 5 4 8v18l-1 15c0 2 0 3-2 4-2 3-5 3-9 3h-37l-4-1c-2-2-4-4-4-6l-1-14v-20l2-4c2-4 6-4 9-5Z"/>
  <path fill="#2D2D5D" d="M439 647v1l1 11v4l3 3c2 2 5 1 7 2h32c3-2 7-6 8-9v2c0 3 0 6-2 8h-1l-4 1-32 1h-7l-3-2c-3-3-2-7-2-10v-12Z"/>
  <path fill="#434B86" d="M439 647c0-5-1-13 3-18l4-2h37l4 1 3 6v25c-1 3-5 7-8 9h-32c-2-1-5 0-7-2l-3-3v-4l-1-11v-1Z"/>
  <path fill="#FEFEFE" d="M464 641h2l1 7 6 1v2h-6l-1 6v1l-2-1v-6l-8-1v-1l8-1v-7Z"/>
  <path d="M399 624h11c5 0 11-1 15 3l3 6v28c0 4 0 8-3 10l-4 3h-36c-3 0-7 1-10-1l-2-1c-2-2-2-4-2-7l-1-25 1-10 2-3 3-2 7-1h16Z"/>
  <path fill="#2D2D5D" d="m375 663 4 4v1l1 2h-1l-3-1-1-6Z"/>
  <path fill="#D0912F" d="M379 667h41l-6 2-13 1h-15l-5-2h-2v-1Z"/>
  <path fill="#EFC54A" d="m375 663-1-21 1-12 3-2h39l4 1c3 3 3 6 3 9v10c0 5 1 14-4 19h-41l-4-4Z"/>
  <path d="M392 639h3l4 2-1 1c-2 1-4-1-7-1 1 2 2 3 4 3 1 1 4 2 4 4v4l-5 4-5-3v-2l1-1 2 1 1 1 3-1c1-4-5-4-7-7v-3l3-2ZM407 639h3l-1 3h-4l-1 1h1l3 1 3 3v5c-1 2-2 3-4 3-1 1-3 0-5-1l-1-3v-1l2-1 2 3 2-1 1-2-1-2h-6v-8h6ZM449 390h38l5 2c2 2 2 4 3 7l-1 13v20l-2 4c-3 3-7 3-11 3h-38l-4-2c-2-2-3-4-3-7v-32l2-5c3-3 7-3 11-3Z"/>
  <path fill="#2D2D5D" d="M491 424c0 2 1 7-1 9-1 2-3 2-5 2h-21l-17 1h-4l-1-2-3-3 22 1c7 0 16 1 23-1l4-2c2-1 3-3 3-5Z"/>
  <path fill="#434B86" d="M439 431v-32l1-5 6-1h41l3 1 1 3v27c0 2-1 4-3 5l-4 2c-7 2-16 1-23 1l-22-1Z"/>
  <path d="m467 400 7 1 2 2c1 4-2 9-3 12l-6 12h-4c-2 0-2-1-3-2-1-4 2-7 4-10l4-7h-10l-1-3c-1-1 0-3 1-4 1-2 6-1 9-1Z"/>
  <path fill="#FEFEFE" d="M460 402h13l1 2c1 2 0 4-1 6l-4 9-3 5-2 1c-2 0-2-1-2-2l3-6 5-11h-11v-3l1-1Z"/>
  <path d="M249 564h40l4 2c2 2 3 4 3 8v34l-2 3c-2 3-4 3-8 3h-31l-11-1-5-6v-36l2-5c3-2 4-2 8-2Z"/>
  <path fill="#2D2D5D" d="M242 601c1 3 3 5 6 6l6 1h11l20-1 4-1 4-4-2 6c-2 2-4 2-7 2h-38l-3-2c-2-2-2-5-1-7Z"/>
  <path fill="#434B86" d="m242 601-1-21v-8l2-3c2-2 6-2 9-2h14c7 0 16-1 23 1l2 1 1 2 1 9v22l-4 4-4 1-20 1h-11l-6-1c-3-1-5-3-6-6Z"/>
  <path d="M267 572h3l3 3v19l-1 7-3 1-4-1c-2-4-1-9-1-14l-3-2c-2-1-3-3-3-5 1-3 6-7 9-8Z"/>
  <path fill="#FEFEFE" d="M267 575h2c2 2 2 4 2 6l-1 14c0 1 1 3-1 4h-2l-1-6v-13l-4 4-2-3 7-6Z"/>
  <path d="M512 448h37l9 1 3 4c2 3 1 38 0 41s-4 3-6 4h-46l-4-5-1-7v-13l1-17 1-4c1-2 4-3 6-4Z"/>
  <path fill="#2D2D5D" d="M559 478c0 4 1 12-2 15l-4 2h-39l-5-2c-2-2-2-5-2-7l4 4h1l3 1h28l9-1 3-1c3-3 3-7 4-11Z"/>
  <path fill="#434B86" d="m507 486 1-10v-21l3-4h43l3 1 1 2 1 9v15c-1 4-1 8-4 11l-3 1-9 1h-28l-3-1h-1l-4-4Z"/>
  <path fill="#2D2D5D" d="M522 478h25c-1 1-1 2-3 2l-15 1h-4l-3-2v-1Z"/>
  <path d="M522 478h-4c-2-3-1-7-1-10h31v1c0 2 1 7-1 9h-25Z"/>
  <path fill="#75FD9B" d="M519 470h27v6h-27v-6Z"/>
  <path d="M315 565h41l4 2 4 5v33l-2 5c-2 3-4 3-7 4h-42l-5-2c-3-3-3-6-3-10v-30l2-5c3-2 5-2 8-2Z"/>
  <path fill="#2D2D5D" d="M308 602c2 3 4 4 8 5h39l1-1c4-3 4-6 4-11 2 3 1 7 0 10v1l-3 4h-44l-2-2c-2-2-3-3-3-6Z"/>
  <path fill="#434B86" d="M308 602v-18c0-4-1-11 1-14 1-2 3-2 4-2h42l4 1 1 3v23c0 5 0 8-4 11l-1 1h-39c-4-1-6-2-8-5Z"/>
  <path d="M326 577h4l3 5 5-5h4l1 2c0 3-3 7-4 9l5 10-3 3-2 1-5-6-6 6-3-1c-2-3 2-8 4-10l1-1-2-2c-2-3-4-6-4-10l2-1Z"/>
  <path fill="#FEFEFE" d="M327 579h2l5 6 4-6 3 1-5 9 5 8-2 2-5-7-5 7h-3l6-10-6-9 1-1Z"/>
  <path d="M442 448h29c6 0 13-1 18 1 2 0 3 2 4 3l1 4v37c-1 3-3 4-6 5h-44c-3-1-5-2-7-5l-1-8v-23l1-9c1-3 3-4 5-5Z"/>
  <path fill="#2D2D5D" d="m439 489 4 2h42c4-4 5-7 6-12 0 4 1 11-2 14-2 3-13 2-17 2l-11-1h-17c-2 0-3 0-4-2l-1-3Z"/>
  <path fill="#434B86" d="M439 489v-24c0-4-1-9 2-12l3-2h33c3 0 10-1 12 1 3 3 2 22 2 27-1 5-2 8-6 12h-42l-4-2Z"/>
  <path d="m466 460 5 1 5 5-1 6-1 1 2 4c1 2 0 5-2 7s-4 3-7 3-5 0-7-2c-2-1-3-3-3-5-1-3 0-5 1-7l1-1-2-4 2-5c1-2 4-3 7-3Z"/>
  <path fill="#FEFEFE" d="M466 462c1-1 4 0 5 1l3 4c0 3-2 4-3 6l1 1 1 2v5c-1 3-2 3-5 4h-6l-4-6 2-5 1-1v-1l-2-3 1-5c2-2 3-2 6-2Z"/>
  <path fill="#2D2D5D" d="m465 465 3 1 1 2-2 2-1 1-2-2-1-2 2-2ZM465 475l1-1 3 1 1 4-3 2c-1 1-2 0-3-1-1 0-2-2-1-3 0-1 0-2 2-2Z"/>
  <path d="M313 390h44l4 2c2 2 3 4 3 7v34c0 2-1 3-2 3-1 2-3 3-5 3h-43l-5-1-4-7v-33l2-5c2-2 3-3 6-3Z"/>
  <path fill="#2D2D5D" d="M361 423v10l-2 2h-46c-3-1-4-2-5-5l4 2h41l4-1c3-2 3-5 4-8Z"/>
  <path fill="#434B86" d="M308 430v-32l1-3 4-2h44l3 1 1 1v28c-1 3-1 6-4 8l-4 1h-41l-4-2Z"/>
  <path d="m334 401 6 1c3 1 4 4 4 6-1 5-4 8-8 12h6l2 2-1 4c-1 2-6 1-9 1l-7-1-1-2c-1-3 3-6 4-8l6-7-1-1-2 1h-3c-2 0-2-1-3-2v-4c2-2 4-2 7-2Z"/>
  <path fill="#FEFEFE" d="m332 403 7 1 3 3c1 5-6 11-9 14l8 1v2l-4 1c-2 0-7 1-9-1v-2l2-3c3-3 7-7 8-10l-1-2h-7l-1-2 3-2Z"/>
  <path d="M334 448h15l8 1 5 2c3 4 2 11 2 16v13c0 4 1 13-2 16l-4 2h-23c-5 0-22 1-26-2-3-1-4-3-4-6v-35l2-4 4-2 23-1Z"/>
  <path fill="#2D2D5D" d="M360 454v14l1 4v15l-1 4-2 2-11 1h-28l-8-1-3-4v-1c3 2 6 2 10 3h22l13-1 3-1c2-1 3-3 3-5v-7l1-23Z"/>
  <path fill="#434B86" d="M308 488v-33c0-2 2-3 4-4h45l3 3-1 23v7c0 2-1 4-3 5l-3 1-13 1h-22c-4-1-7-1-10-3Z"/>
  <path d="M337 459v-1l4 2c2 2 1 9 1 13l3 2v4l-3 1-1 1v5h-1l-5-1-2-4v-1h-6l-3-1v-5l4-6c2-3 5-8 9-9Z"/>
  <path fill="#FEFEFE" d="M337 461h1c4 1 0 11 2 14l3 1v2h-3l-1 6-3-1v-3l-1-2c-2-1-7 1-9-1v-1c1-3 8-13 11-15Z"/>
  <path fill="#17191C" d="M336 468v2l-1 5h-3v-1l4-6Z"/>
  <path d="m519 566 19-1 14 1 5 1c3 2 4 5 4 8l1 18v54l-1 17c0 2 0 4-2 6-2 3-5 4-8 4h-36l-4-2c-3-2-4-5-5-8v-89l3-6c3-3 6-3 10-3Z"/>
  <path fill="#D0912F" d="m511 664 6 1c4 0 32 1 34-1v-1l7-7c0 4 1 8-2 12-2 2-5 2-7 2h-19l-13-1-4-1-2-4ZM510 580l1-6c0-2 2-4 3-4l7-1h30l3 1h1l2 2c2 2 1 6 1 8l-5-4h-21c-5 0-11-1-16 1l-6 3Z"/>
  <path fill="#EFC54A" d="m510 580 6-3c5-2 11-1 16-1h21l5 4v76l-7 7v1c-2 2-30 1-34 1l-6-1-1-10v-74Z"/>
</svg>
