<svg xmlns="http://www.w3.org/2000/svg" width="1024" height="1024">
  <path fill="#0A131F" d="M654 81h9c13 1 29 8 38 18h7c52 0 103 23 140 60 14 13 26 29 36 45 17 27 29 58 41 86 20 47 39 94 53 143 9 32 16 64 16 97 0 36-9 77-35 103a94 94 0 0 1-66 28c-47 0-90-31-125-59-22-18-43-37-63-57l-9 5-20 9-67 31-103 47-124 57c-3 49-6 98-21 146-5 18-13 35-23 51-16 24-38 45-66 52-24 5-49-1-69-14-16-11-30-24-42-38-24-30-43-64-59-99-21-46-38-94-53-143-7-22-14-44-19-66-3-13-3-27-3-41a256 256 0 0 1 47-147l10-12 5-5-1-3v-7a61 61 0 0 1 25-49c5-4 11-7 16-9l23-11c10-4 21-11 32-13 17-3 31 7 45 16l329-149v-3c1-12 5-26 15-35l10-7 25-11c10-5 21-10 32-13l14-3Z"/>
  <path fill="#868687" d="M109 368c-1-10 0-18 7-27 6-8 16-11 25-16 5-2 9-5 14-5-14 11-39 12-42 33 0 3-1 7 1 10l2 1c-1 2-4 4-6 4h-1Z"/>
  <path fill="#FEFEFE" d="M177 310c-1 2-7 5-9 6l-21 12c-10 4-22 10-27 19-4 6-2 11-4 17l-2-1c-2-3-1-7-1-10 3-21 28-22 42-33l6-3 16-7ZM648 101c-2 4-11 7-14 8l-21 10c-9 4-20 9-26 17-4 6-6 13-7 20l-1 1-1-1c0-7 1-14 4-20 2-4 6-8 9-10 6-4 13-6 19-9 12-6 25-12 38-16Z"/>
  <path fill="#868687" d="M648 101c3-2 12-1 16 0l-19 10c-15 8-30 18-43 30l-10 9-12 6c1-7 3-14 7-20 6-8 17-13 26-17l21-10c3-1 12-4 14-8Z"/>
  <path fill="#275085" d="M664 101c8 1 15 4 20 10l1 1c-8 2-15 3-22 6-15 5-30 13-45 20-8 4-17 9-26 12l10-9c13-12 28-22 43-30l19-10ZM177 310c4-3 11-5 16-4 8 1 15 5 19 12l4 5-95 41-11 7-1-1v-2h1c2 0 5-2 6-4 2-6 0-11 4-17 5-9 17-15 27-19l21-12c2-1 8-4 9-6ZM718 496c44 43 89 88 146 112 14 6 30 12 45 11 16 0 33-7 45-18l8-11-9 17a74 74 0 0 1-63 34c-12 0-23-4-35-8-22-9-42-22-61-37l-21-15c-20-17-39-36-58-55l3-30ZM345 652l18 32c-1 23-3 45-6 68l-3 32c-4 21-9 42-16 62-10 27-29 59-57 72-18 9-34 7-53 1l-22-13c11 2 22 5 34 3 14-2 25-6 37-14 12-9 22-21 30-35 10-21 15-44 20-67 6-37 10-75 14-112l4-29ZM702 485l5 5h1c2-1 4 1 6 3l-5 29-7 2-10 4-66 31-178 82-55 25-27 13-3-4-16-29 355-161Z"/>
  <path fill="#2B97BE" d="m106 388 3-2c4-6 11-11 17-14 7-5 15-8 23-11l49-23 175-79 186-85 63-30 45-20c12-4 23-5 36-6l12 1h8l11 2 17 4c49 13 93 50 118 93 14 25 26 53 37 80 22 49 42 98 55 150 10 36 18 76 9 113-5 19-15 36-32 46-14 8-32 10-48 5-30-8-55-23-80-41-24-18-48-39-70-60l-18-18-15-15h-2l-78 36-200 90-55 25c-9 4-19 7-27 12l-4 5-6 44-8 65c-4 27-7 54-16 81-8 22-19 44-40 57a74 74 0 0 1-54 11c-8-2-17-5-23-10-9-6-16-15-22-23a411 411 0 0 1-48-79c-20-41-36-83-49-126l-5-18c-2-5-4-9-4-14l-11-34a231 231 0 0 1-8-60 228 228 0 0 1 41-131l18-21Z"/>
  <path fill="#B7EAF6" d="m734 121 17 4v1l-19-2 2-3Z"/>
  <path fill="#75C6DE" d="m871 246 5 11 14 28c22 48 44 95 54 147 6 35 7 77-14 107-9 13-21 20-37 23-14 2-29-1-42-6-29-9-56-23-81-41l-34-28-12-11c-5-5-9-11-15-14-8-4-17 0-24 3l-14 4c6-12 8-22 10-36l17 7c20 6 43 9 63 4h3c35-9 66-36 84-67a192 192 0 0 0 27-111l-4-20Z"/>
  <path fill="#FEFEFE" d="m880 273 6 12 7 18c12 31 24 61 32 94 5 24 6 46-8 68l-8 11c3-14 3-29 3-43 0-37-6-75-16-111l-16-49Z"/>
  <path fill="#0A131F" d="M80 497c1-8 2-17 5-25a144 144 0 0 1 155-104c29 3 59 18 79 40l13 17 7 8c6 7 10 16 13 25l5 13c15-13 33-21 54-18 11 1 21 5 30 11l14 11 8 13a71 71 0 0 1-25 97 68 68 0 0 1-87-15l-8-12-15 27a139 139 0 0 1-174 43 133 133 0 0 1-74-114v-17Z"/>
  <path fill="#2B97BE" d="m332 425 7 8c6 7 10 16 13 25l5 13-6 5-7-26c-3-9-8-16-12-25Z"/>
  <path fill="#97ABB9" d="m445 488 8 4 8 9 1-1a64 64 0 0 1-82 83c-8-2-16-8-21-15 0-4-2-8-4-11 6 3 11 8 18 9 13 6 24 10 38 8 14-3 27-11 34-23 8-11 12-27 9-40v-1c-2-8-5-15-9-22Z"/>
  <path fill="#FEFEFE" d="M359 568c-6-6-11-14-15-22-6-16-5-34 2-49 7-16 19-28 36-35 15-6 31-5 46 2 16 7 28 20 34 36l-1 1-8-9-8-4-3-4a55 55 0 0 0-43-15 55 55 0 0 0-47 60c2 14 10 28 21 37-7-1-12-6-18-9 2 3 4 7 4 11Z"/>
  <path fill="#D5D6DB" d="M442 484c4 1 8 3 10 7l1 1-8-4-3-4Z"/>
  <path fill="#FEFEFE" d="M86 516c-2-13 0-27 3-40 9-36 32-65 63-84 29-18 67-25 100-16a124 124 0 0 1 79 60h-2a85 85 0 0 0-29-24c-21-11-46-19-70-18a145 145 0 0 0-98 39c-23 25-35 57-34 90 0 5 3 23 1 26l-9-19c-2-4-1-10-4-14Z"/>
  <defs>
    <linearGradient id="a" gradientUnits="userSpaceOnUse" x1="258.1" y1="627.5" x2="204.5" y2="467.8">
      <stop offset="0" stop-color="#D2A75B"/>
      <stop offset="1" stop-color="#F4D696"/>
    </linearGradient>
  </defs>
  <path fill="url(#a)" d="M99 549v2c4 15 16 29 28 39 23 19 54 28 84 25 35-4 73-21 95-49 18-23 28-52 25-81l-3-19-1-8-3-15-4-11v-6c4 3 7 6 9 10h2l8 16 4 14 4 14v1l-6 10c-7 14-9 31-5 47l3 12-2 4a133 133 0 0 1-194 61 131 131 0 0 1-57-99c3 4 2 10 4 14l9 19Z"/>
  <path fill="#F5E0B0" d="m331 436 8 16h-2c-3-2-6-13-8-16h2Z"/>
  <path fill="#0A131F" d="M373 566c-11-9-19-23-21-37a55 55 0 0 1 47-60c17-1 30 4 43 15l3 4c4 7 7 14 9 22v1c3 13-1 29-9 40-7 12-20 20-34 23-14 2-25-2-38-8Z"/>
  <path fill="#132E59" d="m418 477 9 4h1c9 7 18 20 20 31 2 12-1 25-8 35-7 11-18 17-31 19l-1 1h-1c-13 1-24-3-33-10-4-3-10-8-10-12-1-2 0-3 1-4l12 10 11 4h15c11-1 21-8 27-17 7-9 9-19 8-29l-2-7c-4-11-9-17-18-25Z"/>
  <path fill="#275085" d="M391 478c9-3 17-2 27-1 9 8 14 14 18 25l2 7c1 10-1 20-8 29-6 9-16 16-27 17a49 49 0 0 1-26-4l-12-10h-1c-4-6-6-15-5-22l1-4 1-6c4-13 11-21 22-27l8-4Z"/>
  <path fill="#2B97BE" d="M391 478c9 3 17 6 21 15l3 9v1a30 30 0 0 1-26 33c-6 1-16-2-21-5l-9-12 1-4 1-6c4-13 11-21 22-27l8-4Z"/>
  <path fill="#FEFEFE" d="m383 482 3 2-6 4-9 10-4 7c-1 3-3 9-6 11l-1-1 1-6c4-13 11-21 22-27Z"/>
  <path fill="#F5E0B0" d="M99 549c2-3-1-21-1-26-1-33 11-65 34-90l17-14c24-16 52-25 81-25a149 149 0 0 1 90 32v6l4 11 3 15 1 8 3 19c3 29-7 58-25 81-22 28-60 45-95 49-30 3-61-6-84-25a79 79 0 0 1-28-39v-2Z"/>
  <path fill="#D6AA58" d="M291 446c9 4 13 17 17 25l6 15c2 4 1 12-2 16 0 2-1 3-3 5l-17 8-23 11 7 18c5 11 13 25 8 37-3 7-13 10-19 13l-10 4c-6 2-12 4-18 4-7 0-13-3-19-6-13-7-18-24-24-37-11 5-27 15-40 11l-5-4 11-1h1c5-1 10-4 14-6l21-9 10 23 7 15c3 5 9 9 14 10h1c7 2 19-6 26-9l10-4c6-2 11-5 13-11 1-3 2-6 1-9-1-6-4-13-7-19l-9-22 25-11 15-8 6-7 1-9c-1-6-4-13-7-20l-11-23Z"/>
  <defs>
    <linearGradient id="b" gradientUnits="userSpaceOnUse" x1="141.5" y1="448.9" x2="288.9" y2="556.8">
      <stop offset="0" stop-color="#060717"/>
      <stop offset="1" stop-color="#041331"/>
    </linearGradient>
  </defs>
  <path fill="url(#b)" d="M149 566h-1c-6-3-11-7-13-13l-7-16c-3-8-8-18-4-27 1-4 3-6 6-8 5-4 11-5 16-8l21-8-10-27-6-15 1-9c2-6 7-9 13-12l15-7c11-4 20-10 32-6l8 7 7 13 12 25 17-8c7-2 14-7 22-7 5 0 9 2 13 6l11 23c3 7 6 14 7 20a18 18 0 0 1-7 16l-15 8-25 11 9 22c3 6 6 13 7 19 1 3 0 6-1 9-2 6-7 9-13 11l-10 4c-7 3-19 11-26 9h-1c-5-1-11-5-14-10l-7-15-10-23-21 9c-4 2-9 5-14 6h-1l-11 1Z"/>
  <path fill="#1B78C2" d="M131 516v-5l6-5c-1 4-2 6-1 11l-5-1ZM178 482c-3-2-5-6-6-10l-4-11-8-19c-1-3 0-5 1-7 2 10 5 18 9 27 3 6 7 13 8 20Z"/>
  <path fill="#132E59" d="M291 477c3 3 6 10 5 14-1 3-4 5-6 6l-23 10-14 5-1 1c-2 1-4 4-5 7l4 9 12 28c1 4 2 8 0 12-3 3-9 5-13 7-7 3-15 8-22 7l-3-1h-1c-3-1-6-12-7-14l-7-15c-2-5-4-13-9-16l-7-1c-5 1-10 4-14 6l-24 10-5 2-2-1c-4-3-6-6-7-10 4 1 7 5 12 5l10-4 14-7c7-3 14-7 22-4s10 9 13 16l9 21c2 2 4 5 7 6 7 1 17-3 22-7 3-2 5-5 6-8v-1l-1-9c-3-10-9-19-13-29 1-4 2-8 5-11 3-4 10-6 14-8l17-7 9-5c4-4 3-9 3-14Z"/>
  <path fill="#275085" d="M272 450c3-1 5-1 7 1 4 3 5 8 7 12l5 14c0 5 1 10-3 14l-9 5-17 7c-4 2-11 4-14 8-3 3-4 7-5 11 4 10 10 19 13 29l1 9v1c-1 3-3 6-6 8-5 4-15 8-22 7-3-1-5-4-7-6l-9-21c-3-7-5-13-13-16s-15 1-22 4l-14 7-10 4c-5 0-8-4-12-5-4-9-6-19-11-27l5 1 7 15 2 4c4 1 9 0 12-1 12-3 23-10 35-10 18-1 23 18 28 31 1 4 2 7 5 10 3 1 6 1 9-1h1l2-2c4-2 8-8 7-13-1-11-12-21-10-33v-1c3-15 22-20 34-25 5-2 10-5 12-9 2-3 2-6 1-8l-5-12-4-12Z"/>
  <path fill="#2B97BE" d="M161 435c5-7 13-9 20-13l12-6c6-2 8-1 13 1h1c5 2 7 8 9 13l7 15c2 6 4 13 10 17l4 1 18-7 17-6 4 12 5 12c1 2 1 5-1 8-2 4-7 7-12 9-12 5-31 10-34 25v1c-2 12 9 22 10 33 1 5-3 11-7 13l-2 2h-1c-3 2-6 2-9 1-3-3-4-6-5-10-5-13-10-32-28-31-12 0-23 7-35 10-3 1-8 2-12 1l-2-4-7-15c-1-5 0-7 1-11l22-9 14-7c3-2 4-4 5-8-1-7-5-14-8-20-4-9-7-17-9-27Z"/>
  <path fill="#0A131F" d="m212 486 6 1c3 1 5 4 6 7 2 3 1 7 0 10-2 4-6 5-10 6l-6-1c-3-2-6-5-7-8s-1-7 1-9c2-4 6-5 10-6Z"/>
  <path fill="#0A9352" d="M210 491h4c2 0 4 2 5 4 1 1 2 3 1 5s-2 4-5 5h-3c-3 0-5-2-6-4l-1-6 5-4Z"/>
  <path fill="#275085" d="M206 417h1c5 2 7 8 9 13l7 15c2 6 4 13 10 17l4 1h-2v1l3 1-2 1c-4 1-9 0-12-1v-1c-2 0-3-1-3-2-5-4-8-9-11-15-4-9-7-18-7-29l3-1Z"/>
  <path fill="#132E59" d="M207 417c5 2 7 8 9 13l7 15c2 6 4 13 10 17-2 0-4 0-5-2-11-8-19-30-21-43Z"/>
  <path fill="#FEFEFE" d="M161 435c5-7 13-9 20-13l12-6c6-2 8-1 13 1l-3 1c-8 3-31 14-33 22-1 2 0 6 1 8l8 22c2 4 4 9 3 14-1 3-5 6-7 8l-14 8c-7 3-14 6-20 11 1 4 5 18 4 20l-2 1-7-15c-1-5 0-7 1-11l22-9 14-7c3-2 4-4 5-8-1-7-5-14-8-20-4-9-7-17-9-27Z"/>
  <path fill="#0A131F" d="M662 149c9-3 18-6 27-7a147 147 0 0 1 89 13c35 18 63 50 74 88 10 36 4 78-14 111-17 32-48 57-83 67-22 6-46 6-68-2l-18-7 2 10c2 17-2 35-13 48a73 73 0 0 1-47 27c-20 3-35-3-52-14a80 80 0 0 1-23-37c-5-19-1-39 9-56 11-17 26-26 46-31l-12-22c-15-30-13-69-2-100s32-57 59-74c8-6 17-10 26-14Z"/>
  <path fill="#FEFEFE" d="M558 473a64 64 0 0 1-18-39c-1-17 4-35 15-48s27-20 43-22c13-1 29 2 39 11 2 5 6 13 5 19l-2-2c-13-10-24-17-41-16-14 2-25 8-35 18a52 52 0 0 0-8 55v7c1 4 4 15 2 17Z"/>
  <path fill="#D5D6DB" d="M564 394v-1c0-3 8-10 10-12h1a52 52 0 0 1 59 0c4 3 5 7 6 11-13-10-24-17-41-16-14 2-25 8-35 18Z"/>
  <path fill="#97ABB9" d="M637 375c16 10 25 25 29 43a63 63 0 0 1-49 73 63 63 0 0 1-59-18c2-2-1-13-2-17v-7l2 3c7 13 19 23 34 27 11 3 26 1 36-6 14-8 21-20 24-35 4-16-1-31-10-44 1-6-3-14-5-19Z"/>
  <path fill="#D6AA58" d="M777 161a142 142 0 0 1 64 70 140 140 0 0 1-72 179 114 114 0 0 1-94-2l-7-3-6-14 13 4c34 8 71 4 102-16 28-18 47-47 54-80 6-29 1-65-13-92a134 134 0 0 0-27-33l-9-8-4-4-1-1Z"/>
  <defs>
    <linearGradient id="c" gradientUnits="userSpaceOnUse" x1="562.7" y1="396.1" x2="642.2" y2="459">
      <stop offset="0"/>
      <stop offset="1" stop-color="#0C1426"/>
    </linearGradient>
  </defs>
  <path fill="url(#c)" d="M564 394c10-10 21-16 35-18 17-1 28 6 41 16l2 2c9 13 14 28 10 44a50 50 0 0 1-61 41c-14-4-26-14-33-27l-2-3-4-19c-2-13 4-26 12-36Z"/>
  <path fill="#132E59" d="M597 381a42 42 0 0 1 41 18c6 9 6 24 3 34-3 13-12 25-23 32-10 5-22 10-32 7-10-2-16-11-21-19l-4-9 7 5a37 37 0 0 0 50-6c7-8 10-17 9-27-1-11-5-21-13-28h-1l-8-5c-3 0-5 0-8-2Z"/>
  <path fill="#275085" d="M576 390c4-4 7-5 12-6l9-3c3 2 5 2 8 2l8 5h1c8 7 12 17 13 28 1 10-2 19-9 27-6 7-13 11-22 13-10 2-20-2-28-7l-7-5c-4-11-5-21-1-33 3-9 8-16 16-21Z"/>
  <path fill="#2B97BE" d="m579 390 6-2c5 0 11 2 14 5 6 5 8 12 8 18v9h-1c-2 7-6 13-13 16-6 4-12 4-18 2-5-1-10-7-13-12l-1-8-1-7c3-9 8-16 16-21h3Z"/>
  <path fill="#FEFEFE" d="M579 390v1l-1 2 2 6c-1 3-7 8-10 10l-2-1-2-2 2-6c2-4 7-7 10-10h1Z"/>
  <path fill="#F5E0B0" d="m630 173 6-5a139 139 0 0 1 141-7l1 1 4 4 9 8 9 9c7 7 13 16 18 24 14 27 19 63 13 92-7 33-26 62-54 80a133 133 0 0 1-115 12l-10-12a68 68 0 0 0-39-20l-15-1c-11-13-19-31-22-48-5-15-4-35 0-50a144 144 0 0 1 54-87Z"/>
  <path fill="#D6AA58" d="M779 331c5 4 6 10 7 16 1 10-3 22-9 30-6 7-17 8-25 9-5 0-14-1-18-4l-1-1c7 2 15 3 22 1h1v-1c10-2 17-8 22-17 6-10 5-21 1-33ZM724 211c2 4-1 12-2 16-3 9-9 16-17 19-9 4-18 5-27 2-4-1-11-5-13-9v-1l13 5c9 3 20 0 28-5 11-6 15-16 18-27ZM823 244l1 5c2 7-2 20-6 26l-10 11h-1l-11 5c-8 2-17 1-25-3-4-2-12-7-14-12v-2c7 7 15 11 25 12s21-4 29-11c9-8 12-18 12-31ZM682 302c4 9 2 18-1 27-3 6-8 12-13 15l-1 1c-8 5-19 7-28 5-7-1-12-5-17-9l-5-5v-1c5 3 11 7 18 9h5c10 1 21-3 28-9 11-10 13-20 14-33Z"/>
  <path fill="#FEFEFE" d="M630 173v2c-2 2 0 6 1 9l1 3 11-9 1-1v1l-5 4c-7 4-12 11-17 16-17 21-28 43-33 69-3 15-3 30-2 45 1 4 3 16 2 19l-4-2c-3-3-4-7-5-11-1-3-1-6-4-8-5-15-4-35 0-50a144 144 0 0 1 54-87Z"/>
  <path fill="#0A131F" d="m665 238-2-1c-8-7-14-16-15-27 0-10 2-20 9-27 6-7 16-12 25-13 11 0 22 3 30 11 9 8 11 18 12 30-3 11-7 21-18 27-8 5-19 8-28 5l-13-5Z"/>
  <path fill="#BC7617" d="M690 176c8 2 18 7 21 15 4 6 5 13 4 20s-5 14-11 18c-8 6-17 8-26 6-7-2-14-6-17-11l-1-1-2-3 8 4 5-1c15-5 25-14 32-27 0-6-3-11-8-15-2-2-4-2-5-5Z"/>
  <path fill="#D5971A" d="M690 176c8 2 18 7 21 15-1 5 1 10 1 15v1c-1 5-4 11-8 15l-8 4h-1l-2 1-1-1c5-4 9-9 11-15 1-4 2-12 0-15 0-6-3-11-8-15-2-2-4-2-5-5Z"/>
  <path fill="#D6AA58" d="M703 196c2 3 1 11 0 15-2 6-6 11-11 15-1 2-3 2-5 3-9 2-16 0-24-5l-2-1h-1l-2-3 8 4 5-1c15-5 25-14 32-27Z"/>
  <path fill="#F8CC13" d="M658 220c-3-4-4-10-4-15 0-8 4-16 10-22 7-6 17-7 26-7 1 3 3 3 5 5 5 4 8 9 8 15-7 13-17 22-32 27l-5 1-8-4Z"/>
  <path fill="#FEFEFE" d="M672 185h1l3 3-7 8-5 8-1 1h-1l-1-3c-1-2 0-5 1-8 3-4 5-7 10-9Z"/>
  <path fill="#0A131F" d="M757 274c-3-4-6-7-7-12-4-10-3-21 1-30 5-9 13-16 23-19s20-2 29 3c12 7 17 15 20 28 0 13-3 23-12 31-8 7-19 12-29 11s-18-5-25-12Z"/>
  <path fill="#AD1A29" d="M789 218c7 1 15 4 20 10s7 14 6 22-5 16-12 21c-6 5-15 7-23 6-7 0-16-6-20-11l-5-11c3 1 6 6 9 9 4 3 12 6 18 4 7-1 13-5 17-11s6-15 4-22c-1-5-3-9-7-13l-7-4Z"/>
  <path fill="#ED5856" d="m755 255-1-11c1-9 6-16 13-21 6-5 14-6 22-5l7 4c4 4 6 8 7 13 2 7 0 16-4 22s-10 10-17 11c-6 2-14-1-18-4-3-3-6-8-9-9Z"/>
  <path fill="#FEFEFE" d="m774 222 5 1v4l-6 7c-1 3-2 7-4 9l-6 3h-4l-1-1c-1-4 0-9 2-12 3-6 8-9 14-11Z"/>
  <path fill="#0A131F" d="M733 381c-9-4-16-8-21-17s-6-19-4-28c3-9 9-18 17-22 8-5 20-7 29-5h1c11 4 18 12 24 22 4 12 5 23-1 33-5 9-12 15-22 17v1h-1c-7 2-15 1-22-1Z"/>
  <path fill="#BC7617" d="M775 339c1 8 0 15-4 22-5 7-13 12-20 13-6 1-12 1-17-1l6-2c11-2 20-3 27-12h1c3-5 5-10 5-16l1-4h1Z"/>
  <path fill="#D5971A" d="M761 319c7 5 12 12 14 20h-1l-1 4c0 6-2 11-5 16h-1c-7 9-16 10-27 12l-6 2c-7-2-13-7-16-13 4-1 9 6 14 6 8 1 17-2 23-8 3-2 6-5 8-9l2-6v-13l-4-10v-1Z"/>
  <path fill="#F8CC13" d="M718 360c-2-3-4-7-4-11-2-7 0-15 5-22s13-12 22-13c7-1 14 1 20 5v1l4 10v13l-2 6c-2 4-5 7-8 9-6 6-15 9-23 8-5 0-10-7-14-6Z"/>
  <path fill="#FEFEFE" d="M733 318h1l4 2 2 4c-2 5-8 8-12 11h-7v-6c2-5 7-8 12-11Z"/>
  <path fill="#0A131F" d="M617 335c-5-6-9-12-11-19-3-10-1-21 4-30 6-9 14-15 24-18s21-1 30 4c11 7 15 18 18 30-1 13-3 23-14 33-7 6-18 10-28 9h-5c-7-2-13-6-18-9Z"/>
  <path fill="#075539" d="m670 290 2 4 2 7v11l-1 1c-1 7-5 14-12 18-5 4-15 7-21 5h-3l8-1c7-1 14-6 19-12 7-10 8-20 6-33Z"/>
  <path fill="#0A9352" d="M649 273c7 1 13 4 17 10l4 7c2 13 1 23-6 33-5 6-12 11-19 12l-8 1-9-3c-7-3-12-10-14-17l8 6c3 2 8 3 12 3 7-1 13-3 18-9 6-5 8-13 8-21 0-9-5-16-11-22Z"/>
  <path fill="#27CF4E" d="M628 276h2c6-3 12-4 19-3 6 6 11 13 11 22 0 8-2 16-8 21a25 25 0 0 1-30 6l-8-6c-3-8-4-15 0-23l1-5c4-5 8-9 13-12Z"/>
  <path fill="#FBF953" d="m615 288 3 1c-1 2-2 4-1 7l2 1c5 0 10-5 14-8l1 1c-4 4-9 11-15 11l-3-2c-2-1-2-4-2-6l1-5Z"/>
  <path fill="#FEFEFE" d="m628 276 4 1 5 4 1 4-4 5-1-1c-4 3-9 8-14 8l-2-1c-1-3 0-5 1-7l-3-1c4-5 8-9 13-12Z"/>
  <path fill="#F8CC13" d="m628 276 4 1 5 4 1 4-4 5-1-1 2-4v-5l-3-2c-6 2-10 7-14 11l-3-1c4-5 8-9 13-12Z"/>
  <path fill="#75C6DE" d="m106 388 3-2c4-6 11-11 17-14 7-5 15-8 23-11l49-23 175-79 186-85 63-30 45-20c12-4 23-5 36-6l12 1h8l11 2-2 3h-13c-14 3-27 9-40 15-4 2-12 4-16 8l-1 2c-9 4-18 8-26 14a145 145 0 0 0-57 174l12 22c-20 5-35 14-46 31a72 72 0 0 0-9 56c4 15 13 27 23 37l1 2c6 12 19 20 31 24-1 2-24 11-27 13l-90 41 4-15c3-13 3-29-1-42-4-10-10-19-16-26l-5-5h-1l-14-11c-9-6-19-10-30-11-21-3-39 5-54 18l-5-13c-3-9-7-18-13-25l-7-8-13-17c-20-22-50-37-80-40-37-5-75 7-105 30-24 19-41 44-49 74-3 8-4 17-5 25l-3 15c-1 23 5 47 14 67a140 140 0 0 0 160 80 142 142 0 0 0 92-76c1-2 2-5 4-6 10 13 23 22 40 27-10 6-21 10-32 15-5 3-13 6-18 10l-5 10-4 19-6 32c-9 43-28 124-68 147-5 3-10 4-16 5h-11c-15-2-29-9-41-17-33-23-57-59-76-94-9-16-17-33-24-50l-12-28c-3-6-4-14-8-19l-11-34a231 231 0 0 1-8-60 228 228 0 0 1 41-131l18-21Z"/>
  <path fill="#2B97BE" d="M493 348c6 0 13-4 18-6l16-8c7-4 16-6 22-12l-1 6-4 3-20 9-16 8-7 3-4 1-4-4ZM351 413c5 0 11-4 16-6l18-8 22-10 5-4-1 6-7 4-19 9-24 11-5 1-4-1-1-2Z"/>
  <path fill="#0A131F" d="m493 348-4-4-4-8v-9l5-4 19-9 14-6c5-2 9-5 15-6 2 0 3 1 5 3 4 5 6 11 6 17-6 6-15 8-22 12l-16 8c-5 2-12 6-18 6Z"/>
  <path fill="#868687" d="M490 329a265 265 0 0 1 46-22l3 3-10 5-25 12c-2 1-8 3-9 5v2l-5 2-1-3 1-4Z"/>
  <path fill="#FEFEFE" d="M490 329h3l2 5-5 2-1-3 1-4Z"/>
  <path fill="#494C54" d="m539 310 3 8-49 23-3-5 5-2v-2c1-2 7-4 9-5l25-12 10-5Z"/>
  <defs>
    <linearGradient id="d" gradientUnits="userSpaceOnUse" x1="367.6" y1="375" x2="384.1" y2="401.7">
      <stop offset="0"/>
      <stop offset="1" stop-color="#0D1326"/>
    </linearGradient>
  </defs>
  <path fill="url(#d)" d="M351 413c-3-1-4-3-6-6s-5-10-4-14c1-3 4-5 8-7l15-6c10-5 19-10 30-14l5-2 2 1c4 1 7 6 9 10v1c2 3 2 6 2 9l-5 4-22 10-18 8c-5 2-11 6-16 6Z"/>
  <path fill="#FEFEFE" d="m358 387 3 1c0 2-1 3-3 4l-2 1-4 2-1 4-3 2-2-4v-5c3-3 8-4 12-5Z"/>
  <path fill="#868687" d="m358 387 40-18 4 5-51 25 1-4 4-2 2-1c2-1 3-2 3-4l-3-1Z"/>
  <path fill="#494C54" d="m402 374 3 8-34 15-13 6-7 2-3-3v-1l3-2 51-25Z"/>
  <path fill="#FEFEFE" d="m106 388 507-231-23 12-60 33-42 20-63 30-103 47-51 22-56 23-65 27c-10 4-21 9-30 17-9 6-15 16-21 25-11 19-21 39-28 60-20 64 0 132 31 189l21 40c17 29 35 59 60 82 9 8 18 15 30 19l8 2c-18 3-36-4-51-15-11-8-20-19-28-30-32-43-51-94-68-144-8-25-17-51-21-77l-2-20v-11l-1-8c5-31 18-65 38-91l18-21Z"/>
</svg>
