<svg xmlns="http://www.w3.org/2000/svg" viewBox="0 0 14 14" version="1.1" >
	<path d="M10.377164 0.071568C10.272948000000001 0.08892800000000001 10.18129 0.139608 10.103226 0.223062C9.972564 0.362754 9.976120000000002 0.341544 9.967006 1.036C9.961798 1.432032 9.953454 1.661324 9.943136 1.6916760000000002C9.891392 1.843982 9.769508 1.964984 9.611812 2.020592C9.583882000000001 2.0304480000000003 9.25519 2.0385400000000002 8.666 2.043874L7.763 2.052064 7.623322000000001 2.0900320000000003C7.109522 2.229696 6.704333999999999 2.6233340000000003 6.561128 3.122C6.5128699999999995 3.2900840000000002 6.496084 3.45338 6.496042 3.7555L6.496 4.018 5.3445 4.0181260000000005C4.711168 4.0181960000000005 4.1048 4.024524 3.997 4.03221C3.164672 4.091514 2.414594 4.424798 1.807778 5.00493C1.293992 5.4961199999999995 0.9316720000000001 6.1654599999999995 0.799078 6.868386C0.767158 7.0375760000000005 0.35627200000000003 10.697035999999999 0.337582 10.978534000000002C0.24585400000000002 12.36018 1.1976440000000002 13.606082 2.555 13.88114C2.93846 13.958854 3.3973660000000003 13.952722000000001 3.759 13.86504C4.250904 13.745774 4.723544 13.479494 5.082798 13.119218C5.334434 12.866868 5.462072 12.679436 5.683356 12.237288L5.82414 11.956 7 11.956L8.17586 11.956 8.316644 12.237288C8.53608 12.67574 8.665188 12.865972000000001 8.910398 13.112176C9.215612 13.418608 9.571814 13.644414000000001 9.966978000000001 13.781964C10.233355999999999 13.874686 10.398836000000001 13.907838 10.704218000000001 13.929608C11.523092 13.988016 12.330192 13.673422 12.901406 13.073172C13.440462 12.506732 13.713896 11.754078 13.662417999999999 10.978534000000002C13.643728000000001 10.697035999999999 13.232842 7.0375760000000005 13.200922 6.868386C13.068454000000001 6.1660900000000005 12.705546 5.495672 12.192222000000001 5.00493C11.585406 4.424798 10.835328 4.091514 10.003 4.03221C9.895199999999999 4.024524 9.288818 4.0181960000000005 8.6555 4.0181260000000005L7.5040000000000004 4.018 7.50421 3.7415000000000003C7.504434 3.454024 7.511448000000001 3.4065920000000003 7.570192 3.295418C7.612808000000001 3.21475 7.729218 3.11479 7.820204 3.080756C7.894194 3.053064 7.925064000000001 3.051986 8.649032 3.0517760000000003C9.416274 3.051552 9.666034000000002 3.040968 9.81883 3.00223C10.41005 2.8523039999999997 10.855376 2.369234 10.947426 1.778C10.958612 1.706124 10.962392000000001 1.4764819999999999 10.959382 1.05L10.955 0.427 10.918683999999999 0.35000000000000003C10.8241 0.149492 10.600324 0.034426000000000005 10.377164 0.071568M3.934 5.0471260000000004C3.231634 5.133562 2.587774 5.5243020000000005 2.180962 6.111C1.9719 6.412504 1.8281900000000002 6.776322 1.771742 7.147C1.7497200000000002 7.291578 1.352358 10.867332000000001 1.336062 11.067574C1.3198500000000002 11.266696 1.366764 11.571924000000001 1.4446320000000001 11.774000000000001C1.5375219999999998 12.015024 1.668282 12.218262 1.8501279999999998 12.404196C1.99556 12.552904 2.123394 12.644842 2.317 12.739972000000002C2.6137159999999997 12.885768 2.79349 12.927712 3.122 12.927824000000001C3.362702 12.927894 3.4908720000000004 12.907118 3.696 12.834752C3.9899860000000005 12.731054 4.214042 12.582416 4.434766 12.344667999999999C4.56666 12.202596000000002 4.643716 12.074244 4.881366 11.600666C5.059642 11.245416 5.109972 11.15681 5.163662 11.103666C5.246738 11.021444 5.331382 10.980298000000001 5.4539100000000005 10.962588C5.58509 10.943632000000001 8.41491 10.943632000000001 8.54609 10.962588C8.668772 10.980326 8.753276000000001 11.021444 8.836744000000001 11.104072C8.891078 11.157860000000001 8.940021999999999 11.244183999999999 9.118606 11.601198C9.237452 11.83882 9.372846000000001 12.089882 9.419466 12.159126C9.625378000000001 12.464941999999999 9.94448 12.708766 10.304 12.834962C10.509856 12.90723 10.637634 12.927894 10.878 12.927824000000001C11.206510000000002 12.927712 11.386284000000002 12.885768 11.683 12.739972000000002C11.87662 12.644842 12.004678 12.552596000000001 12.149312 12.40407C12.32714 12.221468 12.437768 12.05568 12.532156 11.83028C12.626838000000001 11.604208 12.682432 11.278526000000001 12.663602000000001 11.060196000000001C12.644268 10.83621 12.248403999999999 7.279355999999999 12.228062 7.147C12.158188 6.692224 11.954754 6.24498 11.665318 5.909806000000001C11.54167 5.766614000000001 11.318958 5.565742 11.172 5.4648579999999995C10.936562 5.303242 10.59534 5.154114 10.311 5.088566C10.042900000000001 5.026756 10.046288 5.026812 6.986 5.02796C4.701956 5.0288 4.049583999999999 5.032902 3.934 5.0471260000000004M4.277 6.514886C4.178034 6.540464 4.127046 6.570256 4.05013 6.647424C3.966844 6.731004 3.921582 6.8204080000000005 3.9051880000000003 6.933724000000001C3.8982440000000005 6.98173 3.892434 7.164038 3.89228 7.338870000000001L3.892 7.656753999999999 3.5035000000000003 7.660870000000001C3.115714 7.664986000000001 3.114846 7.66507 3.035256 7.70238C2.9335180000000003 7.750064 2.836064 7.847518000000001 2.78838 7.949256C2.756544 8.017156 2.751 8.047704 2.751 8.155C2.751 8.262688 2.7565020000000002 8.292746000000001 2.788856 8.36178C2.833432 8.45691 2.935352 8.560944 3.032022 8.61C3.1000479999999997 8.644524 3.106446 8.645056 3.4965 8.649298L3.892 8.653596 3.89228 8.971298C3.892602 9.329656 3.90355 9.434809999999999 3.9504080000000004 9.529254C3.991316 9.611714000000001 4.093502 9.71796 4.168934 9.756432C4.2575959999999995 9.801666 4.400648 9.82142 4.4951620000000005 9.801484C4.64989 9.768822 4.78457 9.66378 4.854654 9.521078000000001L4.893 9.443 4.897298 9.048116L4.901596 8.653218 5.296298 8.649116L5.691 8.645 5.768098 8.60713C6.023486 8.481704 6.126918 8.17642 5.999322 7.924644000000001C5.95357 7.834358 5.828396000000001 7.7228900000000005 5.732426 7.686994C5.661124 7.66031 5.624948 7.658 5.27828 7.658L4.901596 7.658 4.897298 7.2625C4.892356 6.807388 4.889626000000001 6.795376 4.760392 6.658722C4.637752 6.52904 4.44458 6.47157 4.277 6.514886M10.311 6.51238C10.045448 6.562654 9.793462 6.811756 9.736566000000002 7.080220000000001C9.67995 7.347396 9.75079 7.584136000000001 9.945446 7.778288C10.332419999999999 8.164254 10.981866 8.01465 11.175682 7.494872C11.220650000000001 7.37429 11.219026000000001 7.112882 11.172574000000001 6.993C11.035682000000001 6.639738 10.681621999999999 6.442226 10.311 6.51238M8.82 8.001938C8.615768000000001 8.046164000000001 8.417178 8.196425999999999 8.31978 8.380441999999999C8.197406 8.611638 8.206688 8.914108 8.342656 9.125872C8.431108 9.263632 8.593998 9.394602 8.740382 9.445674C8.842666000000001 9.481346 9.119334 9.481346 9.221618000000001 9.445674C9.367568 9.394756 9.530892 9.263632 9.618699999999999 9.126866C9.715832 8.975582000000001 9.75324 8.744918 9.710218 8.562441999999999C9.644642000000001 8.284332000000001 9.414706 8.059925999999999 9.135 8.001097999999999C9.01544 7.975954000000001 8.939042 7.9761500000000005 8.82 8.001938" stroke="none" fill="#fff" fill-rule="evenodd"></path>
</svg>