<svg width="33.732" height="47.943" viewBox="0 0 8.925 12.685" xml:space="preserve" xmlns:xlink="http://www.w3.org/1999/xlink" xmlns="http://www.w3.org/2000/svg"><defs><radialGradient xlink:href="#a" id="b" gradientUnits="userSpaceOnUse" gradientTransform="matrix(1.70158 0 0 2.59716 -75.626 -55.022)" cx="107.793" cy="32.751" fx="107.793" fy="32.751" r="3.754"/><linearGradient id="a"><stop style="stop-color:#fff;stop-opacity:1" offset=".688"/><stop style="stop-color:#b2b2b2;stop-opacity:1" offset=".688"/></linearGradient></defs><g style="display:inline"><path style="color:#000;display:inline;fill:url(#b);stroke-linecap:round;stroke-linejoin:round;stroke-miterlimit:0;-inkscape-stroke:none;paint-order:fill markers stroke" d="M104.039 31.346v2.393s.006 1.008.48 2.001c.475.993 1.334 1.944 3.274 1.944s2.799-.95 3.274-1.944c.474-.993.48-2.001.48-2.001v-2.393h-2.45c-.221.583-.668.9-1.305.9-.608 0-1.034-.36-1.273-.9z" transform="matrix(.97329 0 0 .93749 -100.45 -23.423)"/><path style="color:#000;display:inline;fill:#fff;stroke-linecap:round;stroke-linejoin:round;stroke-miterlimit:0;-inkscape-stroke:none;paint-order:fill markers stroke" d="M107.792 28.679c-.392 0-.692.314-.692.72v1.277c0 .407.3.721.692.721.391 0 .694-.314.694-.72V29.4c0-.407-.303-.721-.694-.721zM108.202 25.816v2.192c.607.203 1.1.696 1.1 1.392v1.097h2.245v-1.991c0-1.491-1.2-2.69-2.691-2.69z" transform="matrix(.97329 0 0 .93749 -100.45 -23.423)"/><path style="color:#000;display:inline;fill:#f97316;fill-opacity:1;stroke-linecap:round;stroke-linejoin:round;stroke-miterlimit:0;-inkscape-stroke:none;paint-order:fill markers stroke" d="M106.729 25.816a2.683 2.683 0 0 0-2.69 2.69v1.991h2.244V29.4c0-.696.492-1.19 1.101-1.392v-2.192z" transform="matrix(.97329 0 0 .93749 -100.45 -23.423)"/><path style="color:#000;display:inline;fill:#434a5f;stroke:none;stroke-linecap:round;stroke-linejoin:round;stroke-miterlimit:0;-inkscape-stroke:none;paint-order:fill markers stroke" d="M106.729 24.985a3.528 3.528 0 0 0-3.522 3.52v5.234s-.005 1.171.563 2.359c.567 1.187 1.794 2.417 4.023 2.417 2.23 0 3.456-1.23 4.023-2.417.568-1.188.56-2.36.56-2.36v-5.232a3.527 3.527 0 0 0-3.52-3.521zm0 .831h.655v2.192c-.609.202-1.101.696-1.101 1.392v1.097h-2.244v-1.991c0-1.491 1.199-2.69 2.69-2.69zm1.473 0h.654a2.684 2.684 0 0 1 2.691 2.69v1.991h-2.244V29.4c0-.696-.494-1.19-1.101-1.392zm-.41 2.863c.391 0 .694.314.694.72v1.277c0 .407-.303.721-.694.721-.392 0-.692-.314-.692-.72V29.4c0-.407.3-.721.692-.721zm3.755 2.666v2.394s-.006 1.008-.48 2.001c-.475.993-1.334 1.944-3.274 1.944s-2.799-.95-3.274-1.944c-.474-.993-.48-2.001-.48-2.001v-2.393h2.48c.24.54.665.9 1.273.9.637 0 1.084-.317 1.304-.9z" transform="matrix(.97329 0 0 .93749 -100.45 -23.423)"/></g></svg>