<svg xmlns="http://www.w3.org/2000/svg" width="1024" height="1024">
  <path d="M520.263 55.2205c17.462-1.4191 36.119.866 52.97 5.3356-1.509 1.6096-4.312 2.7888-6.233 3.9215l-13.342 8.0768c-19.57 12.4819-35.237 28.6086-48.418 47.6536 11.28-4.038 22.626-8.164 34.26-11.08l22.772-4.569c28.673-5.7576 57.984-10.3702 85.717-19.8911 10.691-3.6702 20.684-8.7939 30.865-13.632l.38 3.6121c3.371 29.413-6.428 61.154-21.642 86.149-4.47 7.343-9.704 14.083-15.041 20.804 19.339 11.397 42.164 19.08 64.366 22.355 11.236 1.658 22.574 2.885 33.948 2.497 3.01-.103 13.593-2.062 15.493-.863.17 1.56.266 2.969-.184 4.495-1.647 5.589-5.971 11.07-9.571 15.558-15.573 19.413-34.88 33.59-56.903 44.931.739 5.761.259 12.122.087 17.923-.794 26.739-4.658 54.705-15.913 79.216-1.867 4.064-3.878 8.056-6.116 11.928l-5.184 8.668c-.445.733-1.679 2.284-1.818 2.99-.262 1.337 2.338 6.161 2.983 7.654 3.125 7.231 5.924 14.651 7.316 22.435 4.136 23.142-1.854 43.898-15.163 62.97-19.695 28.224-52.819 47.456-84.725 58.844-9.259 3.305-18.755 6.406-28.446 8.132 11.088 6.863 20.339 16.261 27.986 26.76 2.399 3.292 4.178 7.504 7.162 10.307 1.898 1.783 4.501 2.989 6.609 4.536 4.117 3.022 8.716 8.193 9.329 13.481.568 4.9-1.91 8.123-4.753 11.752l.26 1.351c1.179 4.485 3.842 9.317 6.009 13.401 6.237 11.752 14.562 22.941 25.017 31.281 4.046 3.227 8.588 5.894 13.018 8.553l100.535-150.652 34.405-51.317c6.421-9.611 12.261-19.917 19.697-28.787 5.817-6.937 13.126-12.561 20.044-18.341l25.529-21.323 35.735-29.533c6.265-5.067 12.497-10.511 19.202-14.988 3.962-2.646 8.326-4.067 12.834-5.484 3.873 1.451 6.718 2.486 8.876 6.325 3.464 6.163 2.349 12.925.604 19.417-2.251 8.376-5.427 16.623-8.093 24.888l-16.714 52.229-7.184 23.237c-1.61 5.466-2.88 11.753-5.52 16.823-3.398 6.524-8.451 12.963-12.558 19.109l-23.487 35.554-85.37 130.212-63.978 97.362-17.494 26.277c-2.211 3.331-4.385 7.816-7.105 10.664-4.006 4.194-11.787 7.229-16.84 10.183l-36.232 21.297-33.334 18.604c-4.347 2.432-9.09 4.641-13.16 7.481l-.162 1.257c.216.5.188 1.211.65 1.5.425.266 1.002.028 1.503.046 2.038.072 4.237-.068 5.931 1.257 4.394 3.434 4.74 10.068 5.56 15.141 2.584 1.314 6.188 1.182 8.996 2.129 10.418 3.515 21.012 14.478 25.444 24.336 2.206 4.904 3.412 11.661 1.22 16.726-2.32 5.363-7.302 8.99-12.587 11.126-11.52 4.656-24.63 4.547-36.805 3.301-10.59-1.083-21.586-3.046-31.391-7.362-5.076-2.234-13.13-6.515-15.383-11.835-.744-1.758-.259-5.631-.225-7.627l.336-20.516c.008-1.102.443-5.387.035-6.216-.178-.36-1.655-1.449-2.039-1.796-1.756-1.588-2.968-2.958-3.789-5.229-.658-1.822-.733-3.538.206-5.285 1.517-2.822 4.462-4.042 7.343-4.965l.749-.237-23.478-95.451-27.594 3.445-28.213 91.665 1.443.484c2.496.896 4.821 2.284 5.873 4.844.702 1.706.367 4.141-.384 5.769-1.404 3.043-3.695 3.735-6.615 4.733l.251 22.848.49 10.042c.104 1.673.448 3.86-.296 5.415-.722 1.51-2.27 2.732-3.513 3.815-5.977 5.206-14.806 8.475-22.354 10.662-16.308 4.724-42.264 7.31-57.59-1.46-4.123-2.359-8.445-5.772-9.554-10.636-1.401-6.145.945-13.945 4.284-19.147 7.207-11.228 19.162-19.823 32.191-22.749-1.03-2.43-2.019-5.686-2.223-8.328-.141-1.827.353-3.702 1.556-5.094 2.494-2.887 6.949-2.829 10.45-3.092l8.953-91.966-15.019-1.08c-12.117-1.877-25.466-8.56-27.269-22.001-.213-1.594.304-6.591-.268-7.649-.176-.326-4.356-2.309-4.937-2.625-6.806-3.707-13.676-7.245-20.066-11.651-12.306-8.486-23.38-19.208-32.252-31.238-11.29-15.309-20.929-34.174-17.883-53.749l.13-.8.105-.698c3.11-19.899 22.596-38.934 38.044-50.299-.81-2.762-2.034-8.206-.757-10.965.935-2.019 3.561-4.091 5.217-5.538 5.588-4.887 12.036-8.561 18.41-12.3 13.39-7.856 26.771-14.486 40.929-20.823-36.894-10.317-68.388-27.3-96.668-53.23l-2.373 1.951c-9.425 7.018-23.576 10.154-35.131 8.353l-2.153-.335c-17.697-2.959-33.905-14.185-44.252-28.642-11.301-15.788-16.398-35.885-13.026-55.121 2.467-14.071 8.291-24.922 20.059-33.249-.047-4.983-1.55-10.48-2.026-15.535-1.224-13.01-.914-26.456.766-39.408l-25.964 4.517c-18.238 1.419-37.003-.16-54.135-6.931-5.208-2.058-10.763-4.528-14.976-8.275-3.2-2.845-5.928-7.338-5.974-11.722-.041-3.949 2.12-8.103 4.781-10.873 10.663-11.097 28.785-11.447 43.047-11.586l-4.171-5.257c-4.97-6.933-11.118-17.095-9.391-26.048.84-4.355 3.481-8.157 7.277-10.486 5.166-3.169 9.612-3.086 15.262-1.53 22.141 6.098 39.299 26.461 50.312 45.528 2.034-3.354 2.736-9.256 4.037-13.212l7.523-19.987c14.179-32.967 35.361-62.405 59.693-88.601 15.126-16.285 31.882-30.644 49.581-44.037 35.782-27.076 75.406-48.8399 118.436-61.9097 20.403-6.1975 40.986-10.4618 62.326-11.2808ZM559.25 680.191c.506 5.277 5.151 34.905 4.519 36.61-.273.736-1.329 1.858-1.871 2.504-2.133 2.542-4.857 4.593-7.602 6.423l4.59 82.022c.926 17.432.785 35.741 3.658 52.932l2.794-29.171 10.117-72.342c.813-5.545 6.59-12.343 9.789-16.969l17.56-24.737c-5.738-2.957-11.29-6.014-16.465-9.898-10.322-7.748-18.792-17.569-27.089-27.374ZM398.651 624.5c-6.794 7.404-21.787 26.958-31.901 27.405-6.058.267-11.991-3.832-16.911-6.888-1.606 2.067-2.618 5.5-3.404 7.983l-.251.779c-2.44 7.918-.394 15.244 3.417 22.33 1.837 3.415 4.242 6.603 6.764 9.54 7.166 7.151 15.03 12.696 23.318 18.437 3.311-3.921 6.052-7.491 7.892-12.321 2.283-5.992 3.195-12.542 4.182-18.845l3.642-24.554c1.16-7.894 3.127-15.875 3.252-23.866Z"/>
  <path fill="#FED08D" d="M392.888 703.614c-.077.93-.007 2.268-.262 3.136-.546 1.86-4.064 5.297-5.429 6.74-1.06-1.031-2.273-1.768-2.57-3.24l8.261-6.636Z"/>
  <path fill="#5D2420" d="m580.16 789.137-.362-.24c-.981.852-.857 1.149-1.173 2.363-.12-2.988.773-5.857 1.345-8.76l2.15-11.601c.55-2.85.644-6.907 2.39-9.272l1.967-.055c-.982 2.701-1.053 5.779-1.627 8.602l-3.369 14.044c-.277 1.145-.598 4.103-1.321 4.919Z"/>
  <path fill="#A95433" d="m674.969 276.711 6.013-2.128.068 9.222c-1.967 1.646-3.792 3.227-5.515 5.134l-.399.424-.167-12.652Z"/>
  <path fill="#46AB74" d="M420.677 590.936c.605 2.718-.121 4.92-.705 7.564-.869 3.939-2.02 8.244-2.086 12.272l-6.216-1.055 9.007-18.781Z"/>
  <path fill="#E04140" d="m398.078 894.282-7.528-1.985c-1.157-1.672-1.74-3.801-2.216-5.772-.36-1.486-.88-2.547-.084-3.888 3.833-1.206 8.356-1.111 12.321-.702l-5.765.455.295.86c.681 2.074 1.037 4.126 1.319 6.284.226 1.737.922 3.175 1.658 4.748Z"/>
  <path fill="#9AA4AF" d="M537.277 937.582c-4.329-1.459-10.706-3.589-13.858-6.998-1.973-2.134-1.837-4.758-1.669-7.47 1.522-.151 2.806.732 4.184 1.365l9.49 4.196c-.465 2.839 1.739 5.725 1.853 8.907Z"/>
  <path fill="#A95433" d="M433.952 883.184c2.941-.145 6.057-.767 8.438 1.329l-.055 1.737c-2.66 3.719-7.118 3.883-11.33 4.608l-6.262.839-3.359-5.937c2.021-1.635 9.871-2.336 12.568-2.576Z"/>
  <path fill="#C28A13" d="m350.796 600.096-14.149-10.694c3.334-2.717 7.013-4.656 10.829-6.597 4.308 2.583 7.932 5.976 11.668 9.299-3.041 2.04-6.287 4.944-8.348 7.992Z"/>
  <path fill="#46AB74" d="M541.706 580.436c4.322 3.622 6.576 10.481 8.809 15.564l8.531 18.804-7.253 6.625-10.087-40.993Z"/>
  <path fill="#FEB734" d="M127.052 306.239c16.128-8.436 35.577-6.464 52.801-3.095 5.902 1.154 11.896 2.215 17.645 3.999l-.819.547c-4.808.491-9.188-.488-13.929-.687l-10.998-.107c-3.177-.157-6.349-.824-9.502-.93l-19.139-.055c-4.073.032-12.668 2.45-16.059.328Z"/>
  <path fill="#FED08D" d="M473.851 571.16c3.549-1.925 8.517-2.075 12.415-3.336l9.234-2.766 5.743-1.308c2.11-.483 3.942-.676 6.113-.698-1.134 5.212-2.192 9.29-6.933 12.401-4.153 2.724-10.375 4.043-15.224 2.72-4.348-1.186-8.162-3.908-11.348-7.013Z"/>
  <path fill="#46AB74" d="m421.486 644.995-15.657-5.046 4.2-27.147 7.979.992c.012 7.254.352 14.289 1.384 21.48.458 3.189.877 6.726 2.094 9.721ZM380.242 615.151l14.087-9.192c7.514-5.299 14.657-10.995 23.081-14.817-4.825 9.075-14.082 16.988-21.245 24.324-3.779 3.87-7.454 8.23-11.678 11.593l-4.245-11.908Z"/>
  <path fill="#EF5C47" d="M400.571 881.935c6.735.434 12.109 2.395 16.582 7.554 1.887 2.176 2.965 4.48 2.824 7.425-.124 2.577-1.421 5.147-2.577 7.395-6.367-4.076-12.199-7.387-19.322-10.027-.736-1.573-1.432-3.011-1.658-4.748-.282-2.158-.638-4.21-1.319-6.284l-.295-.86 5.765-.455Z"/>
  <path fill="#DF9969" d="M473.851 571.16c-3.495-3.404-6.472-7.275-9.006-11.438l42.045-4.423.466 7.753c-2.171.022-4.003.215-6.113.698l-5.743 1.308-9.234 2.766c-3.898 1.261-8.866 1.411-12.415 3.336Z"/>
  <path fill="#FEB734" d="M574.941 597.535c4.498 3.144 7.374 5.853 10.349 10.487-6.432 8.421-16.963 14.994-26.086 20.206l-5.526 2.905-1.371-6.61c10.565-6.452 16.841-16.36 22.634-26.988Z"/>
  <path fill="#EF5C47" d="M563.969 880.638c1.737-.025 3.486.325 4.742 1.614 2.57 2.635 1.969 7.152 2.019 10.561-9.753 1.32-16.465 4.645-23.566 11.35l-1.914 1.536-1-.162c-.692-.891-1.314-1.671-1.577-2.789-.903-3.841-.027-8.172 2.158-11.424 3.995-5.948 12.349-9.446 19.138-10.686Z"/>
  <path fill="#412E3D" d="M904.517 363.048c1.735 3.429.37 8.802-.767 12.324l-5.021 14.425c-1.604 4.773-3.095 10.015-5.479 14.457-5.01-1.061-9.86-2.296-14.465-4.607 2.004-3.642 4.699-7.129 7.044-10.569l11.581-16.739c1.847-2.541 6.52-6.488 7.107-9.291Z"/>
  <path fill="#C28A13" d="M429.647 673.47c-9.425-2.174-18.268-6.047-27.15-9.768-.318-1.633.486-4.266.745-5.952l1.928-14.263 16.527 4.726c-.49 6.389 2.365 13.306 5.021 19.055.943 2.041 2.294 4.059 2.929 6.202Z"/>
  <path fill="#5D2420" d="m674.969 276.711.167 12.652-.283.721c-4.918 4.351-9.847 8.476-15.32 12.112-1.667 1.108-5.919 3.218-6.783 4.742-.214.376-.395 1.868-.483 2.269-.696-7.722-2.954-15.806-4.552-23.42l27.254-9.076Z"/>
  <path fill="#FEB734" d="M350.796 600.096c2.061-3.048 5.307-5.952 8.348-7.992 9.446 10.09 20.558 23.377 21.604 37.817l-8.365 9.689c-4.444-15.392-10.979-27.495-21.587-39.514Z"/>
  <path fill="#A95433" d="m596.059 294.705 1.579-.172c3.508-.197 7.554 3.201 10.029 5.415 5.701 5.104 12.648 13.203 13.102 21.267-5.771-3.863-11.256-7.149-17.646-9.89-11.776-4.159-22.467-4.842-34.847-4.846l6.836-9.898 20.947-1.876Z"/>
  <path fill="#3D6977" d="M544.97 730.25c.487.03.897.206 1.356.361l1.217 20.818c-4.798 3.715-9.799 7.263-16.121 7.465-2.509.08-4.062-.577-5.827-2.322-3.006-6.242-4.405-12.643-5.93-19.362 8.728-1.563 16.863-4.32 25.305-6.96Z"/>
  <path fill="#D2D5CD" d="M601.06 734.406c8.001 1.136 15.261 2.534 22.867 5.398L610.25 761.17l-1.224.08c-7.911-2.29-15.121-3.524-23.302-4.312l15.336-22.532Z"/>
  <path fill="#BDC6E2" d="M535.424 928.675c19.693 5.928 40.569 10.869 60.857 4.316 4.642-1.5 9.101-3.905 13.389-6.203-1.194 5.046-2.094 8.921-6.82 11.782-14.804 8.963-37.308 6.727-53.35 2.423l-12.223-3.411c-.114-3.182-2.318-6.068-1.853-8.907Z"/>
  <path fill="#DF9969" d="M623.749 314.002c-3.435-9.278-8.608-14.39-15.86-20.793 5.927-.592 11.783-1.431 17.611-2.673l10.551-2.516c1.683-.42 3.569-1.12 5.287-1.092l4.813 25.035c-7.677 1.767-14.582 2.084-22.402 2.039Z"/>
  <path fill="#6D5760" d="M878.785 399.647c-6.382-2.836-11.063-6.801-16.011-11.654l24.894-22.821c3.444-2.846 8.618-5.953 13.31-4.996 1.725.352 2.538 1.561 3.539 2.872-.587 2.803-5.26 6.75-7.107 9.291l-11.581 16.739c-2.345 3.44-5.04 6.927-7.044 10.569Z"/>
  <path fill="#FEB734" d="m675.136 289.363.399-.424c1.723-1.907 3.548-3.488 5.515-5.134-1.043 28.768-5.164 55.99-16.564 82.644l-4.676 9.801c-.572 1.131-1.179 2.838-1.962 3.809l-.304.212c-.041-4.148.538-9.333-.16-13.349 3.817-5.468 4.595-15.175 6.147-21.654 4.413-18.435 9.317-36.24 11.322-55.184l.283-.721Z"/>
  <path fill="#A95433" d="M201.916 303.864c-4.162-1.104-8.327-3.702-12.496-5.183-7.533-2.678-15.453-4.228-23.25-5.924-4.558-7.568-10.612-15.7-13.505-24.017-.663-1.904-1.115-4.195-.666-6.201.815-3.636 3.869-5.313 6.852-7.041 2.16 5.233 4.783 9.312 7.946 13.937 2.516 3.68 6.199 6.87 9.351 10.013l14.539 14.35c2.984 2.77 9.72 6.556 11.229 10.066Z"/>
  <path fill="#46AB74" d="m360.43 587.648-9.17-7.388 3.548-2.623c3.911-2.733 8.631-4.752 12.892-6.897l27.287-12.559c1.792-.735 4.538-2.324 6.384-2.61.79-.123 2.958.539 3.859.686l13.06 2.134-40.149 20.252c-5.734 2.87-12.444 5.43-17.711 9.005Z"/>
  <path fill="#BDC6E2" d="M433.53 926.25c.87-.273 1.26-.238 2.136 0 .014 1.664-.053 3.141-1.159 4.487-6.814 8.287-28.469 12.609-38.741 13.735-14.478 1.587-29.053 1.248-40.814-8.207-.797-1.096-1.435-2.463-1.808-3.765-.495-1.726-.743-3.254.106-4.872 2.764.911 5.507 3.439 8.28 4.721 5.961 2.756 12.313 3.12 18.771 3.338 18.605.627 35.801-3.151 53.229-9.437Z"/>
  <path fill="#9AA4AF" d="M660.543 762.107c6.477 4.758 11.718 10.785 16.44 17.238-1.718 3.775-4.22 7.235-6.461 10.717l-10.317 16.043-2.05 2.085-.807-.009c-1.292-2.524-1.582-5.442-2.243-8.181-1.422-5.889-5.569-10.737-9.41-15.23l14.848-22.663Z"/>
  <path fill="#D57D3D" d="M379.977 752.256c6.077.845 12.81 4.081 18.742 5.953l10.16 2.36c7.424 1.571 15.803-.224 23.253-.746-6.45 8.074-14.852 13.055-25.132 14.494-10.029 1.404-22.788.184-31.08-6.308-2.599-2.035-5.323-5.859-5.574-9.259-.105-1.427-.159-2.951.787-4.1 3.43-.179 5.763-.968 8.844-2.394Z"/>
  <path fill="#A95433" d="M652.267 309.207c.088-.401.269-1.893.483-2.269.864-1.524 5.116-3.634 6.783-4.742 5.473-3.636 10.402-7.761 15.32-12.112-2.005 18.944-6.909 36.749-11.322 55.184-1.552 6.479-2.33 16.186-6.147 21.654-1.293-6.365-1.297-13.436-1.827-19.931l-3.29-37.784Z"/>
  <path fill="#EF5C47" d="M549.732 908.177c5.625-6.448 14.163-10.927 22.768-11.592 8.975-.693 16.467 2.044 23.168 8.005 3.889 3.461 9.815 9.994 10.856 15.273-3.796.427-6.494-1.158-10.1-1.682-2.732-.397-5.589-.528-8.342-.771-8.554-.756-17.354.355-25.788-.706-3.112-.392-7.515-.998-10.068-2.87-2.137-1.566-2.175-3.211-2.494-5.657Z"/>
  <path fill="#FDE0B9" d="m203.678 423.131 3.142-9.43c3.399-8.733 11.239-16.341 19.786-20.018 12.138-5.223 23.367-3.211 35.232 1.498 4.904 3.881 7.991 11.733 10.57 17.362-2.459.726-5.898-1.801-8.162-2.972-3.387-1.752-6.612-3.367-10.348-4.26-4.546-1.087-10.321-.863-14.884.026-5.565 1.085-11.269 3.7-16.181 6.491-3.084 1.753-5.93 3.878-9.298 5.09-2.515 1.678-6.979 6.021-9.857 6.213Z"/>
  <path fill="#FED08D" d="M261.838 395.181c4.904 3.881 7.991 11.733 10.57 17.362-2.459.726-5.898-1.801-8.162-2.972-3.387-1.752-6.612-3.367-10.348-4.26-4.546-1.087-10.321-.863-14.884.026-5.565 1.085-11.269 3.7-16.181 6.491-3.084 1.753-5.93 3.878-9.298 5.09 1.307-2.389 3.338-3.986 5.53-5.533 9.19-6.487 22.72-11.849 34.163-9.595 3.69.727 6.934 1.658 10.106 3.801l4.746 2.924c-3.195-4.622-5.152-7.765-6.242-13.334Z"/>
  <path fill="#69D48B" d="M541.706 580.436c-3.927-8.77-7.648-17.096-13.051-25.1 14.907 2.385 25.296 13.238 33.794 25.049l9.544 14.058c-3.173 7.595-7.236 14.364-12.947 20.361L550.515 596c-2.233-5.083-4.487-11.942-8.809-15.564Z"/>
  <path fill="#D2D5CD" d="M627.131 741.213c4.111 2.407 8.677 4.242 12.883 6.533 6.45 3.513 12.155 7.845 17.787 12.53L644.17 781.75c-.456.331-.916.55-1.42.799l-28.885-19.464 13.266-21.872Z"/>
  <path fill="#EF5C47" d="m518.44 554.691 3.31.332.716.977c.697 5.083.922 10.182-.176 15.23-1.555 7.153-5.402 13.215-11.666 17.16-8.046 5.067-19.262 5.903-28.358 3.679-13.189-3.224-22.104-9.975-29.234-21.457l-5.116-10.201 12.763-.43c2.254 5.668 5.394 10.655 9.874 14.83 6.397 5.962 14.676 9.24 23.487 8.667 4.986-.324 10.226-3.12 13.327-6.96 5.114-6.333 4.806-13.432 4.006-20.988l7.067-.839Z"/>
  <path fill="#5D2420" d="M643.438 787.998c6.161 6.317 9.784 14.205 10.633 23.017l-74.305 44.03-8.227 4.261c2.149-2.546 5.004-4.595 7.504-6.795l13.385-11.808c18.577-16.344 36.44-32.532 51.01-52.705Z"/>
  <path fill="#A95433" d="M586.477 761.572c7.951.35 14.903 1.32 22.506 3.831l-42.696 94.659 13.873-70.925c.723-.816 1.044-3.774 1.321-4.919l3.369-14.044c.574-2.823.645-5.901 1.627-8.602Z"/>
  <path fill="#46AB74" d="M471.785 711.957c-10.436.149-20.425-.804-30.764-2.131-.66-.084-4.015-.233-4.335-.474-.72-.541-1.846-2.81-2.381-3.63-4.305-6.605-8.921-13.206-16.566-16.241-7.313-2.902-13.167-.723-20.008 2.073l4.309-24.587c16.246 7.652 32.728 11.499 50.343 14.328-.044.505-.241 1.02-.133 1.515.534 2.44 3.69 6.227 5.127 8.307l14.408 20.84Z"/>
  <path fill="#DF9969" d="m878.493 404.631 13.881 4.422L874.97 463c-2.603 8.524-4.439 17.742-7.509 26.052-.836 2.261-2.165 4.189-3.529 6.154-2.995-10.407-6.783-18.906-13.403-27.545 2.363-2.959 3.389-7.418 4.719-10.971l5.903-14.543 17.342-37.516Z"/>
  <path fill="#A95433" d="M606.524 919.863c.408.814.455 1.249.546 2.137-2.394 3.205-7.754 5.486-11.502 6.793-23.764 8.286-52.113-.349-73.667-10.851.136-8.4.722-17.201-.234-25.552-1.268-1.619-3.267-2.9-4.883-4.175-.307-1.367-.191-1.371.466-2.632 1.711-.704 3.701.328 5.465.819l16.92 4.922c-1.25 3.922-2.471 8.06-1.173 12.132.804 2.521 1.971 4.768 4.522 5.863 2.065.887 4.333.072 6.192-.854l.556-.288c.319 2.446.357 4.091 2.494 5.657 2.553 1.872 6.956 2.478 10.068 2.87 8.434 1.061 17.234-.05 25.788.706 2.753.243 5.61.374 8.342.771 3.606.524 6.304 2.109 10.1 1.682ZM218.874 313.008l-3.227 15.695-13.787 4.194c-17.998 4.673-40.622 3.984-58.403-1.339-5.106-1.529-9.914-3.047-14.515-5.805-3.233-1.938-7.619-4.777-8.469-8.685l-.108-.568-.286-1.849c-.102-2.243.752-3.792 2.235-5.38 7.012 4.494 19.435 4.789 27.577 5.575 15.829 1.528 31.647 2.841 47.57 2.028 4.989-.255 10.441-1.13 15.331-2.124l6.082-1.742Z"/>
  <path fill="#D57D3D" d="M158.851 255.498c3.259-.719 4.939-.984 8.066.224 19.615 6.613 34.098 22.405 45.527 39.095 2.3 3.359 5.338 7.258 6.853 11.037.215.536.209.601.303 1.09.469 1.857-.114 4.264-.726 6.064l-6.082 1.742c-4.89.994-10.342 1.869-15.331 2.124-15.923.813-31.741-.5-47.57-2.028-8.142-.786-20.565-1.081-27.577-5.575 1.518-1.207 3.031-2.114 4.738-3.032 3.391 2.122 11.986-.296 16.059-.328l19.139.055c3.153.106 6.325.773 9.502.93l10.998.107c4.741.199 9.121 1.178 13.929.687l.819-.547 12.673 2.811-8.255-6.09c-1.509-3.51-8.245-7.296-11.229-10.066l-14.539-14.35c-3.152-3.143-6.835-6.333-9.351-10.013-3.163-4.625-5.786-8.704-7.946-13.937Z"/>
  <path fill="#FEB734" d="M166.917 255.722c19.615 6.613 34.098 22.405 45.527 39.095 2.3 3.359 5.338 7.258 6.853 11.037.215.536.209.601.303 1.09l-.477.805-1.623.122c-3.218-1.461-5.953-4.766-8.352-7.304-6.679-7.064-12.637-14.828-19.489-21.724-7.482-7.529-15.625-14.233-22.909-21.948l.167-1.173Z"/>
  <path fill="#A95433" d="M612.02 766.483c5.181 2.734 10.454 5.364 15.377 8.552 5.47 3.542 10.473 7.762 15.423 11.983-5.88 8.893-13.033 16.074-20.63 23.508l-35.526 31.669-17.178 15.458 42.534-91.17Z"/>
  <path fill="#EF5C47" d="m552.196 698.75.936.5 1.472 16.269-5.354 3.449c-6.644 3.86-13.894 6.119-21.25 8.164-21.636 6.014-44.115 7.367-66.473 6.763-4.273-.116-11.84.41-15.777-1.26-1.369-.581-1.357-1.951-1.724-3.243l-6.066-16.64c14.159 2.577 28.937 2.932 43.29 2.34 15.195-.628 30.715-2.269 45.384-6.446 8.934-2.544 17.089-6.198 25.562-9.896Z"/>
  <path fill="#A95433" d="M415.467 908.719c3.048-.684 5.063-1.824 6.783-4.51 1.929-3.013 2.434-6.684 2.925-10.154l11.344-.549-.874 27.11c-17.738 7.232-37.099 12.393-56.395 11.067-5.653-.389-11.838-1.316-17.055-3.621-2.659-1.175-4.706-2.627-6.613-4.812-.329-3.049.7-5.146 2.559-7.526l5.84-6.473c4.553-4.863 14.733-12.65 21.565-13.091 11.109-.716 21.791 5.605 29.921 12.559Z"/>
  <path fill="#EF5C47" d="M363.981 909.251c4.553-4.863 14.733-12.65 21.565-13.091 11.109-.716 21.791 5.605 29.921 12.559 1.153 3.007 1.767 5.802 1.469 9.031-2.962 1.976-7.72 2.212-11.186 2.732-9.073 1.363-18.777 2.846-27.916 1.086-4.359-.839-9.195-2.782-11.781-6.568-1.198-1.754-1.526-3.736-2.072-5.749Z"/>
  <path fill="#A95433" d="m254.613 270.034-3.762 26.969c-2.229 22.736-.926 46.03 3.923 68.352 1.681 7.737 4.023 15.213 6.305 22.781-9.8-3.58-19.156-5.849-29.575-3.269-2.84.703-6.471 2.663-9.288 2.768-2.425-21.44-1.77-42.597.055-64.044.495-5.821.714-12.421 2.224-18.046 1.963 2.166 2.538 5.338 3.586 8.03 1.517 3.899 3.256 7.857 5.355 11.479 1.893-2.319 3.069-7.414 4.117-10.338l9.693-27.016 3.784-10.463c.986-2.668 1.557-5.086 3.583-7.203Z"/>
  <path fill="#69D48B" d="M452.383 681.295c27.589 2.149 55.092 1.422 81.656-7.181 5.417-1.754 10.629-4.28 15.823-6.601l2.915 26.318c-18.402 12.387-44.294 16.012-66.052 17.572l-14.94.554-14.408-20.84c-1.437-2.08-4.593-5.867-5.127-8.307-.108-.495.089-1.01.133-1.515Z"/>
  <path fill="#FDE0B9" d="M850.529 467.661c-11.677-11.378-24.021-20.724-40.423-23.945-4.103-.805-8.394-.915-12.564-1.147l61.12-52.3c5.95 6.22 12.269 10.335 19.831 14.362l-17.342 37.516-5.903 14.543c-1.33 3.553-2.356 8.012-4.719 10.971Z"/>
  <path fill="#FEB734" d="M421.697 648.213c34.064 7.747 72.082 9.817 105.74-.88 6.835-2.172 12.88-5.213 19.431-7.991l2.774 24.374c-5.667 2.726-11.387 5.509-17.362 7.503-31.713 10.583-70.494 10.55-102.633 2.251-.635-2.143-1.986-4.161-2.929-6.202-2.656-5.749-5.511-12.666-5.021-19.055Z"/>
  <path fill="#DF9969" d="m619.634 692.81-12.143 17.472c-6.071-2.57-11.673-6.158-16.945-10.096-8.967-6.697-16.408-14.459-23.24-23.285-3.483-4.5-6.96-9.057-8.692-14.558-1.043-3.317-1.306-7.054-1.807-10.491l-2.503-16.428c9.424-3.949 17.852-9.704 26.481-15.093l1.971 5.171c3.368 7.591 6.671 15.085 11.176 22.097 8.679 13.512 21.431 24.035 34.817 32.641l-4.497 6.181-4.618 6.389Z"/>
  <path fill="#FCC794" d="M571.568 638.991c6.588 3.291 9.548 10.571 14.123 15.979 3.021 3.571 6.652 6.85 9.982 10.149 7.884 7.81 17.638 18.028 28.579 21.302l-4.618 6.389-1.079-.473c-3.618-1.836-7.075-4.773-10.378-7.144-3.992-2.865-8.135-5.602-11.786-8.903-10.85-9.811-20.035-23.525-24.823-37.299Z"/>
  <path fill="#FED08D" d="m571.568 638.991-.421-1.491 11.609-11.998c3.368 7.591 6.671 15.085 11.176 22.097 8.679 13.512 21.431 24.035 34.817 32.641l-4.497 6.181c-10.941-3.274-20.695-13.492-28.579-21.302-3.33-3.299-6.961-6.578-9.982-10.149-4.575-5.408-7.535-12.688-14.123-15.979Z"/>
  <path fill="#69D48B" d="M418.008 613.794c24.141 4.828 46.764 7.082 71.391 5.468 18.716-1.227 35.874-4.422 52.911-12.426l4.392 28.732c-31.288 14.979-68.074 18.132-102.276 13.695-7.752-1.005-15.294-2.717-22.94-4.268-1.217-2.995-1.636-6.532-2.094-9.721-1.032-7.191-1.372-14.226-1.384-21.48Z"/>
  <path fill="#DF9969" d="M379.977 752.256c-6.439-2.147-13.008-5.94-18.946-9.259-20.707-11.575-39.763-25.254-53.196-45.215-8.934-13.277-16.5-29.076-13.23-45.474 1.307-6.559 4.539-12.042 8.286-17.502 9.89-14.413 23.228-25.802 37.731-35.331 7.801 7.117 13.529 14.776 18.949 23.783l-13.405 13.556c-3.884-7.334-6.628-14.903-12.54-20.997-9.34 6.857-17.4 17.848-20.116 29.183l-.728 2.87c-1.261 4.915-1.248 12.58-.032 17.518l.757 3.124c2.782 11.934 10.297 22.517 18.031 31.738 9.856 11.75 21.606 22.035 34.743 29.964 9.108 5.498 18.436 9.666 28.496 13.06l9.758 2.329c4.241 1.007 11.653.833 15.59-.969l.655-.288c2.346-1.057 4.189-2.386 5.17-4.846 3.226-8.091 1.667-19.056 2.193-27.659 6.623 12.19 11.619 27.125 7.337 40.993-.716 2.319-1.695 5.151-3.348 6.989-7.45.522-15.829 2.317-23.253.746l-10.16-2.36c-5.932-1.872-12.665-5.108-18.742-5.953Z"/>
  <path fill="#FCC794" d="M428.143 711.841c-.526 8.603 1.033 19.568-2.193 27.659-.981 2.46-2.824 3.789-5.17 4.846l-.655.288c-3.937 1.802-11.349 1.976-15.59.969l-9.758-2.329c-10.06-3.394-19.388-7.562-28.496-13.06-13.137-7.929-24.887-18.214-34.743-29.964-7.734-9.221-15.249-19.804-18.031-31.738l-.757-3.124c-1.216-4.938-1.229-12.603.032-17.518l.728-2.87c2.716-11.335 10.776-22.326 20.116-29.183 5.912 6.094 8.656 13.663 12.54 20.997-2.026 2.631-4.208 5.213-5.785 8.146-3.829 8.985-5.075 16.42-1.389 25.706 8.162 20.566 29.128 33.477 47.909 43.191l.296-.367c1.365-1.443 4.883-4.88 5.429-6.74.255-.868.185-2.206.262-3.136 4.891-3.904 11.486-8.801 18.112-8.212 5.182.46 9.441 4.702 12.48 8.602 1.839 2.36 3.541 5.061 4.663 7.837Z"/>
  <path fill="#FDE0B9" d="M386.901 713.857c1.886 1.391 4.748 3.438 5.033 5.942.18 1.58-.051 1.808-.977 3.09-.654.103-1.291.213-1.957.185-2.312-.099-4.82-1.209-7-1.976-11.946-4.202-23.625-13.02-32.562-21.909-9.01-8.961-18.442-22.569-18.287-35.815.062-5.272 2.269-14.26 6.31-17.816 1.059-.932 1.588-.674 2.92-.598-3.829 8.985-5.075 16.42-1.389 25.706 8.162 20.566 29.128 33.477 47.909 43.191Z"/>
  <path fill="#FEB734" d="M264.704 218.803c2.778-4.95 6.546-9.604 9.963-14.135 12.28-16.283 26.399-31.413 41.392-45.233 15.97-14.72 33.589-27.92 51.775-39.741 41.724-27.1179 88.999-47.6866 138.446-55.0365 16.409-2.4389 32.621-2.7919 49.162-2.1636-.714.9725-2.201 1.4788-3.261 2.0412l-9.325 5.3716c-5.886 3.6865-11.39 7.6852-16.839 11.9894-2.155.0181-4.343-.0721-6.454.4061-5.184 1.1742-10.601 1.6014-15.737 3.0104-9.271 2.5437-19.127 3.1002-28.326 6.1628L442.537 102.25c-32.582 11.976-64.808 29.379-92.889 49.729l-36.52 27.648c-8.245 6.627-40.795 38.679-48.424 39.176Z"/>
  <path fill="#69D48B" d="m418.29 558.391 26.463 2.173c4.56 13.873 10.996 25.096 24.497 31.911 9.388 4.739 22.013 6.527 32.266 4.207 8.961-2.027 16.42-6.273 21.448-14.182 4.41-6.937 4.146-12.955 5.224-20.693l13.623 41.204c-38.794 17.74-82.874 16.465-123.925 7.761.066-4.028 1.217-8.333 2.086-12.272.584-2.644 1.31-4.846.705-7.564.552-2.855 1.631-5.633 2.548-8.39l-5.815 8.596c-8.424 3.822-15.567 9.518-23.081 14.817l-14.087 9.192c-5.423-10.424-11.528-19.158-19.812-27.503 5.267-3.575 11.977-6.135 17.711-9.005l40.149-20.252Z"/>
  <path fill="#C28A13" d="M851.073 477.663c5.056 6.21 7.908 13.501 9.83 21.183L679.875 775.25l-.875.166-2.367-2.627c-3.969-5.082-8.332-9.454-12.994-13.886l187.434-281.24Z"/>
  <path fill="#FEB734" d="M798.869 447.705c5.814-.605 12.001.872 17.487 2.733l-64.317 95.974-71.161 107.335-37.666 57.093-10.515 15.978c-2.135 3.239-4.157 6.933-6.947 9.646l-2.375-.741c-6.666-2.27-13.115-3.416-20.06-4.363l189.907-283.067 5.647-.588ZM476.628 168c2.754-6.99 6.25-13.613 10.122-20.044 4.283-7.113 7.543-12.715 15.409-16.169 17.489-7.679 35.518-12.825 54.118-16.993 34.291-7.683 70.629-10.622 102.64-26.1815 4.365-2.1214 8.78-4.1008 12.583-7.1559l3.101-2.481c-.833 7.5533-1.525 15.2439-3.068 22.6894-6.241 30.119-21.151 58.736-42.583 80.799 22.384 18.631 53.952 28.192 82.541 31.44 10.076 1.145 19.922 1.721 30.034.764 1.572-.149 3.134-.477 4.716-.418-.385.428-.773.934-1.212 1.303-6.651.497-11.618 9.143-18.546 8.49-2.622-.079-5.265.728-7.893.827l-26.731.003c-7.729-.319-15.48-1.682-23.109-2.882-27.39-4.308-55.39-10.631-78.992-25.937 5.709-5.376 11.638-10.426 17.037-16.146 21.046-22.3 36.827-48.832 47.318-77.546-2.554.754-5.705 3.854-8.172 5.25-4.668 2.642-9.365 4.659-14.388 6.505-14.101 5.181-30.11 7.664-44.803 10.836-14.932 3.223-29.697 7.35-44.187 12.163-19.266 6.4-37.565 15.524-55.282 25.34-2.825 1.566-6.712 4.924-9.826 5.429l-.827.115Z"/>
  <path fill="#A95433" d="m319.367 318.093-.172-.695c-.679-3.458 2.875-10.412 4.242-13.571 12.474-28.821 32.296-50.598 52.922-73.719 5.072-5.687 10.579-11.055 15.241-17.094l32.985 15.511c38.111 15.652 78.291 24.177 118.968 29.719 12.922 1.761 25.931 2.476 38.947 2.972l15.337.704c4.417.029 8.846-.565 13.259-.747 23.937-.985 47.42-4.109 70.121-12.161 9.198-3.263 18.195-7.595 26.803-12.171 6.619-3.519 13.23-6.912 19.23-11.458-.323-.9-.09-.441-.767-1.34 6.928.653 11.895-7.993 18.546-8.49-35.547 45.61-89.708 64.498-145.32 71.571-14.222 1.809-29.232 1.58-43.515.846-32.079-1.647-63.788-7.238-94.084-18.129-10.452-3.757-20.657-8.399-30.712-13.103-7.378-3.45-14.443-7.43-21.502-11.488l-8.579-5c-1.43-.863-3.012-2.201-4.654-2.5.013 1.496.245 1.994-.859 3.119-2.531 2.578-6.909 4.249-9.94 6.301-6.28 4.251-12.447 8.903-18.21 13.83-13.098 11.197-25.992 23.7-35.891 37.894-4.308 6.178-7.791 13.297-12.396 19.199Z"/>
  <defs>
    <linearGradient id="a" gradientUnits="userSpaceOnUse" x1="442.83475" y1="743.59747" x2="510.00101" y2="897.70325">
      <stop offset="0" stop-color="#2D4257"/>
      <stop offset="1" stop-color="#2F5665"/>
    </linearGradient>
  </defs>
  <path fill="url(#a)" d="m408.424 878.359-7.211-1.078 3.924-24.662c3.314-23.174 5.229-46.383 5.433-69.793 6.703-1.282 13.982-3.634 19.354-7.989 11.178-9.061 14.737-20.023 16.203-33.852 8.981.594 18.02 1.514 27.019 1.542 14.48.044 28.691-1.804 42.925-4.284 1.02 6.419 2.339 13.782 6.163 19.193 1.724 2.439 3.854 4.278 6.876 4.693 7.838 1.075 13.006-3.197 18.71-7.735l.697 9.766 7.363 113.294c-2.487 1.416-5.077 2.794-7.349 4.543-1.702 1.31-4.798 4.948-6.531 5.565-.101.036-1.414.054-1.461.047l-.788-.228-10.911-2.374c-1.103-2.644-1.358-6.137-1.886-8.983l-3.044-14.718-9.674-38.249-7.545-29.163c-2.02-7.126-3.961-14.081-7.938-20.407-11.263 2.155-23.248 3.196-34.713 2.453L433.2 878.635l-6.471 1.581-2.293 1.141c-.908.403-3.722 1.839-4.571 1.827-.406-.006-2.186-1.001-2.662-1.215l-8.779-3.61Z"/>
  <path fill="#3D6977" d="M507.574 744.75c.414.04.873.216 1.275.328l2.886 14.196c-8.968 1.435-17.19 3.238-26.35 3.651-3.439.155-6.85.516-10.182-.537-4.254-3.69-4.375-7.958-4.95-13.232l37.321-4.406ZM408.424 878.359l10.447-78.903c13.326-10.593 25.224-20.998 33.602-36.112 2.255-4.069 3.704-8.407 5.854-12.484-.374 9.758-1.024 19.443-3.029 29.026-2.126 10.161-5.793 20.014-8.922 29.891l-9.85 33.342c-3.591 12.128-7.637 24.624-9.797 37.097l-2.293 1.141c-.908.403-3.722 1.839-4.571 1.827-.406-.006-2.186-1.001-2.662-1.215l-8.779-3.61ZM539.751 887.381c-1.313-4.276-1.937-8.99-2.86-13.381l-4.945-23.344c-5.349-25.696-11.828-50.847-13.499-77.14 1.796-1.427 7.309-1.846 9.755-2.381 3.432-.751 7.097-1.762 10.298-3.23 2.428-1.113 6.994-4.832 9.308-4.81l.709 1.065 7.363 113.294c-2.487 1.416-5.077 2.794-7.349 4.543-1.702 1.31-4.798 4.948-6.531 5.565-.101.036-1.414.054-1.461.047l-.788-.228Z"/>
  <path fill="#FEB734" d="M819.485 451.77c12.189 5.351 20.105 12.259 28.956 21.951L659.977 756.406l-1.227-.246c-9.544-6.872-19.17-12.854-29.765-17.983l190.5-286.407Z"/>
  <path fill="#DF9969" d="M272.408 412.543c8.105 14.932 18.034 28.33 30.088 40.287 3.704 3.674 7.446 7.5 11.823 10.379 4.148 2.729 9.175 5.33 14.299 4.082 1.626-.396 2.954-1.333 3.774-2.791l-4.822-6.25c-3.204-4.563-5.395-10.045-7.383-15.223-9.84-25.636-10.602-55.986-5.981-82.892 6.188-36.032 29.293-68.196 56.386-91.885 8.922-7.801 18.32-14.397 27.991-21.201 7.878 3.969 15.104 9.513 23.037 13.59 29.318 15.068 61.245 25.064 93.725 30.499l33.934 4.057 12.392.754c1.88.091 4.57-.146 6.288.587-1.772 3.879-4.925 9.16-4.409 13.464.526.525 1.114 1.168 1.824 1.443 1.639.636 4.336.184 6.126.142 4.058-.095 8.201-.249 12.25.068 9.328.73 18.52 4.377 26.613 8.895l11.151 6.737c-1.807 1.302-2.655 1.938-5.014 1.769-.733-.053-.827-.157-1.503-.402l-.453-.155c-3.388-1.188-6.57-2.941-9.933-4.218-6.116-2.324-12.432-4.061-18.861-5.26-4.045-.755-8.147-1.466-12.247-1.829-3.137-.278-6.458.294-9.472-.69-1.746-.57-2.982-1.942-3.95-3.491-.344-.55-1.276-2.626-1.894-2.839-1.448-.5-4.146-.36-5.753-.56l-25.357-3.228c-21.393-3.259-42.773-8.155-63.229-15.204l-32.111-12.755c-12.215-5.279-23.883-10.323-35.278-17.283-23.373 16.269-39.574 36.469-50.376 62.793-2.914 7.102-4.875 14.848-6.577 22.317-6.262 27.466-5.316 57.516 3.329 84.383 9.359 29.085 26.79 55.773 52.165 73.38 7.099 4.926 14.312 9.591 22.12 13.338 25.109 12.049 52.958 16.537 80.606 16.602 12.617.03 24.946-.593 37.408-2.768 37.747-6.589 75.995-23.83 103.353-51.061 5.362-5.337 10.089-10.258 14.429-16.457 1.777-2.538 3.206-4.848 5.651-6.802-3.169 11.742-9.993 21.154-17.929 30.187-15.365 17.492-34.798 30.204-55.772 39.953-31.683 14.728-65.395 22.211-100.22 24.343-55.442 3.395-114.398-7.203-161.229-38.237-8.843-5.86-17.234-12.906-25.19-19.909.703-2.187 1.189-4.159 1.381-6.452-.463-1.579-1.14-2.065-2.392-3-5.887-1.108-10.354 7.541-15.179 10.498-9.148 5.606-20.691 8.221-31.256 5.536-17.001-4.322-30.888-15.008-39.738-30.162-7.79-13.339-11.272-31.424-7.365-46.491 2.878-.192 7.342-4.535 9.857-6.213 3.368-1.212 6.214-3.337 9.298-5.09 4.912-2.791 10.616-5.406 16.181-6.491 4.563-.889 10.338-1.113 14.884-.026 3.736.893 6.961 2.508 10.348 4.26 2.264 1.171 5.703 3.698 8.162 2.972Z"/>
  <path d="M227.919 429.325c-4.193 6.495-5.235 12.173-6.393 19.672-1.566-8.292-1.758-14.627 3.224-21.873 3.751-5.456 9.51-9.174 16.004-10.454 6.576-1.296 14.624.616 20.03 4.581 9.217 6.761 15.608 19.953 17.101 31.096.42 3.133.525 5.716-.269 8.819l-.155.626-.107.373c-1.517-5.893-2.856-14.818-7.739-18.763-4.169 3.124-9.016 5.145-10.526 10.598l-.297.953c-.503 1.718-.545 4.253.458 5.802 1.354 2.091 3.65 3.505 5.75 4.731l2.628 1.423 7.676-3.56c-4.034 4.426-8.081 8.403-14.459 8.624-4.301.15-8.136-2.046-11.095-5.033-3.393-3.425-5.545-8.365-5.528-13.215.024-6.544 2.99-9.864 7.403-14.228-1.252-1.853-3.159-2.922-4.981-4.141-2.483-1.663-4.873-3.007-7.824-3.653l-.57-.119c-3.614-.792-6.789-.968-10.331-2.259Z"/>
  <path fill="#D57D3D" d="M267.628 466.909c-2.798.653-8.24 1.551-10.759.261-3.997-2.047-6.771-5.765-8.01-10.055-.932-3.23-.597-7.354 1.032-10.28 1.739-3.123 5.584-5.167 8.954-5.967 4.255-1.011 7.212.31 10.77 2.534-4.169 3.124-9.016 5.145-10.526 10.598l-.297.953c-.503 1.718-.545 4.253.458 5.802 1.354 2.091 3.65 3.505 5.75 4.731l2.628 1.423ZM227.919 429.325c4.487-4.341 9.821-7.916 16.318-7.844 7.189.08 13.281 2.686 18.256 7.876 2.272 2.37 4.273 5.355 5.562 8.375-6.123-1.111-10.68-1.233-16.43 1.765-1.252-1.853-3.159-2.922-4.981-4.141-2.483-1.663-4.873-3.007-7.824-3.653l-.57-.119c-3.614-.792-6.789-.968-10.331-2.259ZM264.704 218.803c7.629-.497 40.179-32.549 48.424-39.176l36.52-27.648c28.081-20.35 60.307-37.753 92.889-49.729L475.5 91.4754c9.199-3.0626 19.055-3.6191 28.326-6.1628 5.136-1.409 10.553-1.8362 15.737-3.0104 2.111-.4782 4.299-.388 6.454-.4061-7.012 6.8802-13.7 13.9186-19.66 21.7499-15.637 20.547-25.836 44.131-32.409 68.991l2.68-4.637.827-.115c3.114-.505 7.001-3.863 9.826-5.429 17.717-9.816 36.016-18.94 55.282-25.34 14.49-4.813 29.255-8.94 44.187-12.163 14.693-3.172 30.702-5.655 44.803-10.836 5.023-1.846 9.72-3.863 14.388-6.505 2.467-1.396 5.618-4.496 8.172-5.25-10.491 28.714-26.272 55.246-47.318 77.546-5.399 5.72-11.328 10.77-17.037 16.146 23.602 15.306 51.602 21.629 78.992 25.937 7.629 1.2 15.38 2.563 23.109 2.882l26.731-.003c2.628-.099 5.271-.906 7.893-.827.677.899.444.44.767 1.34-6 4.546-12.611 7.939-19.23 11.458-8.608 4.576-17.605 8.908-26.803 12.171-22.701 8.052-46.184 11.176-70.121 12.161-4.413.182-8.842.776-13.259.747l-15.337-.704c-13.016-.496-26.025-1.211-38.947-2.972-40.677-5.542-80.857-14.067-118.968-29.719L391.6 213.014c-4.662 6.039-10.169 11.407-15.241 17.094-20.626 23.121-40.448 44.898-52.922 73.719-1.367 3.159-4.921 10.113-4.242 13.571l.172.695c-2.913 7.642-6.4 15.083-8.835 22.907-8.782 28.228-9.755 59.779-1.168 88.115.224.114 1.984 5.563 2.261 6.359 2.868 8.235 6.357 15.767 9.912 23.69-20.231-13.63-36.355-35-47.561-56.495-19-36.448-22.09-77.687-18.727-117.975.737-8.828 1.066-19.187 3.717-27.647l-.092-2.004c-2.564 2.663-3.452 11.147-4.261 14.991-2.026 2.117-2.597 4.535-3.583 7.203l-3.784 10.463-9.693 27.016c-1.048 2.924-2.224 8.019-4.117 10.338-2.099-3.622-3.838-7.58-5.355-11.479-1.048-2.692-1.623-5.864-3.586-8.03-.007-8.67 4.934-18.495 8.234-26.384 8.731-20.868 18.098-42.344 31.975-60.358Z"/>
  <path fill="#A95433" d="m258.966 257.047 1.021.186c2.058-2.509 3.374-5.561 4.984-8.371l7.778-13.146 24.103-36.649c-5.537 16.14-11.9 31.667-16.008 48.317-10.483 42.483-10.005 86.443 1.149 128.756 3.481 13.203 7.853 26.686 13.884 38.96 2.038 4.15 5.678 11.834 10.225 13.372 1.07.362 2.146.506 3.262.643.224.114 1.984 5.563 2.261 6.359 2.868 8.235 6.357 15.767 9.912 23.69-20.231-13.63-36.355-35-47.561-56.495-19-36.448-22.09-77.687-18.727-117.975.737-8.828 1.066-19.187 3.717-27.647Z"/>
  <path fill="#FED08D" d="M658.567 456.865c-2.445 1.954-3.874 4.264-5.651 6.802-4.34 6.199-9.067 11.12-14.429 16.457-27.358 27.231-65.606 44.472-103.353 51.061-12.462 2.175-24.791 2.798-37.408 2.768-27.648-.065-55.497-4.553-80.606-16.602-7.808-3.747-15.021-8.412-22.12-13.338-25.375-17.607-42.806-44.295-52.165-73.38-8.645-26.867-9.591-56.917-3.329-84.383 1.702-7.469 3.663-15.215 6.577-22.317 10.802-26.324 27.003-46.524 50.376-62.793 11.395 6.96 23.063 12.004 35.278 17.283l32.111 12.755c20.456 7.049 41.836 11.945 63.229 15.204l25.357 3.228c1.607.2 4.305.06 5.753.56.618.213 1.55 2.289 1.894 2.839.968 1.549 2.204 2.921 3.95 3.491 3.014.984 6.335.412 9.472.69 4.1.363 8.202 1.074 12.247 1.829 6.429 1.199 12.745 2.936 18.861 5.26 3.363 1.277 6.545 3.03 9.933 4.218l.453.155c.676.245.77.349 1.503.402 2.359.169 3.207-.467 5.014-1.769.728-.506 1.403-.939 1.886-1.702 2.1-3.315 1.147-7.976.349-11.581 7.82.045 14.725-.272 22.402-2.039 2.081 15.783 3.723 31.547 4.351 47.464.4 10.131-.43 21.173.93 31.182 1.075 7.907 4.538 15.18 7.084 22.667 2.187 6.434 3.403 12.912 3.8 19.693.459 7.829-.882 16.572-3.749 23.896Z"/>
  <path fill="#DF9969" d="M531.877 436.721c1.42 1.647 2.332 2.962 3.036 5.029-.194 2.223-.782 3.208-2.444 4.618-3.66 3.105-8.188 4.591-12.848 5.425l.266 5.167c3.43.145 6.869-.377 10.243-.944l.21 1.484c-.751 1.675-2.647 2.885-4.343 3.464-3.312 1.13-7.878.828-10.913-.892-3.656-2.072-5.391-5.307-6.7-9.127 3.562-6.608 9.262-7.763 15.734-10.26 2.733-1.054 5.228-2.504 7.759-3.964Z"/>
  <path d="M519.887 456.96c-2.506-.769-4.737-1.805-6.314-3.96l.523-.75 5.525-.457.266 5.167Z"/>
  <defs>
    <linearGradient id="b" gradientUnits="userSpaceOnUse" x1="529.61975" y1="425.99585" x2="515.21143" y2="452.0181">
      <stop offset="0"/>
      <stop offset="1" stop-color="#1C0101"/>
    </linearGradient>
  </defs>
  <path fill="url(#b)" d="M531.877 436.721c-3.814-4.719-7.246-9.842-12.86-12.551-5.706 1.654-9.356 4.752-14.552 7.121 4.431-6.545 8.103-9.463 15.795-11.18 6.296 2.828 10.105 7.104 14.575 12.196 2.038 2.321 4.485 4.762 5.597 7.693.99 2.611.506 5.273-.69 7.74-1.929 3.982-5.797 6.359-9.612 8.276-3.374.567-6.813 1.089-10.243.944l-.266-5.167c4.66-.834 9.188-2.32 12.848-5.425 1.662-1.41 2.25-2.395 2.444-4.618-.704-2.067-1.616-3.382-3.036-5.029Z"/>
  <path d="M442.078 460.25c1.033.627 2.523 7.065 3.261 8.554 4.053 8.169 13.429 12.99 21.704 15.838 24.24 8.344 53.323 6.756 77.207-2.155 4.784-1.785 9.344-4.249 13.917-6.509l-5.386 4.94c-13.191 9.994-29.922 13.472-46.138 14.605-18.802 1.314-44.658-1.931-59.212-14.91-3.942-3.515-7.374-8.645-7.354-14.113.007-2.124.503-4.699 2.001-6.25Z"/>
  <path fill="#FEB734" d="M625.51 432.152c4.579-.247 9.242-.247 13.24 2.334 2.514 1.623 4.639 3.96 5.209 6.976.778 4.117-.708 8.771-3.016 12.18-5.348 7.901-14.816 11.567-23.828 13.294-4.045.168-8.1.146-11.789-1.779-2.933-1.53-5.949-4.62-6.751-7.907-.997-4.08 2.034-9.512 4.332-12.774 5.047-7.162 14.281-10.89 22.603-12.324Z"/>
  <path d="M412.811 279.682c1.041-.405 3.754-.208 4.939-.173 5.262.159 10.432 2.959 13.927 6.816 4.865 5.368 5.089 11.535 4.83 18.347-2.012 2.388-12.778 3.019-16.228 3.741l-12.006 3.014c-12.379 3.517-24.262 9.827-34.938 16.948-3.539 2.577-7.36 5.877-11.293 7.761-1.373.657-1.916.46-3.292-.055-1.083-1.15-1.825-2.062-2.088-3.661-1.562-9.513 2.494-19.324 8.168-26.777 12.029-15.8 28.752-23.355 47.981-25.961Z"/>
  <path fill="#D57D3D" d="M368.575 309.859c3.156-5.351 8.211-10.255 13.217-13.871 8.743-6.314 19.419-10.613 30.208-11.593 2.401-.218 5.03-.602 7.416-.164l.584.121c3.552.71 5.5 2.657 7.99 5.096-1.253.588-2.081.899-3.445 1.135l-.63.139-11.886 2.351-3.076.659c-.836.144-1.415.363-2.203.602l-6.248 1.734-6.688 2.238-4.991 1.966c-4.217 1.513-9.137 4.001-12.823 6.527-2.255 1.546-4.628 3.226-7.425 3.06Z"/>
  <path fill="#A95433" d="M368.575 309.859c2.797.166 5.17-1.514 7.425-3.06 3.686-2.526 8.606-5.014 12.823-6.527l4.991-1.966 6.688-2.238 6.248-1.734c.788-.239 1.367-.458 2.203-.602l3.076-.659 11.886-2.351.63-.139c1.364-.236 2.192-.547 3.445-1.135 2.102 3.368 4.366 7.778 4.22 11.887l-.157.577c-5.982 1.115-12.099 1.887-18.006 3.353-19.34 4.8-37.059 13.762-52.581 26.232-.309-8.333 1.934-15.126 7.109-21.638Z"/>
  <path d="M582.366 332.187c7.373-.874 16.846 2.193 22.884 6.409 11.498 8.029 18.29 20.511 20.565 34.169 2.335 14.02-1.569 29.281-9.83 40.787-7.644 10.646-17.077 15.786-29.867 17.876-9.952.51-18.593-2.207-26.484-8.235-10.52-8.037-16.315-19.583-17.901-32.609-1.718-14.1 2.296-30.031 11.116-41.267 7.846-9.996 16.891-15.625 29.517-17.13Z"/>
  <path fill="#D2D5CD" d="M549.788 367.229c4.46-12.174 11.695-22.181 23.811-27.691 6.318-2.873 13.108-3.315 19.622-.78 10.155 3.951 18.485 12.272 22.84 22.254 5.363 12.292 6.178 26.711 1.22 39.284-3.986 10.107-10.955 19.813-21.231 24.229-8.244 3.543-17.023 3.92-25.333.507-9.829-4.036-17.751-12.553-21.686-22.351-.916-2.281-1.773-4.482-1.156-6.929l.491-.186c3.525 7.727 7.734 14.216 15.053 18.792 4.662 2.915 11.853 4.662 17.31 3.227 6.017-1.583 11.194-6.379 14.107-11.759 4.976-9.187 5.951-21.19 2.84-31.135-2.512-8.028-7.839-16.243-15.449-20.201-4.797-2.495-11.835-3.6-17.022-1.76-6.295 2.234-11.854 8.799-14.653 14.723l-.764-.224Z"/>
  <path fill="#5D2420" d="M550.552 367.453c2.799-5.924 8.358-12.489 14.653-14.723 5.187-1.84 12.225-.735 17.022 1.76 7.61 3.958 12.937 12.173 15.449 20.201 3.111 9.945 2.136 21.948-2.84 31.135-2.913 5.38-8.09 10.176-14.107 11.759-5.457 1.435-12.648-.312-17.31-3.227-7.319-4.576-11.528-11.065-15.053-18.792l-.491.186c-.086-1.51-1.162-3.634-1.531-5.252-1.187-5.211-1.176-10.818.448-15.944.717-2.265 1.853-4.281 2.683-6.485l.313-.842.764.224Z"/>
  <path fill="#A95433" d="m571.695 399.25 2.055-.231c.833.396 1.556.712 2.16 1.433 1.586 1.895 1.729 3.673 1.611 6.048-.693 1.329-1.526 1.76-2.771 2.476l-2.5.014c-.878-.424-1.761-.791-2.421-1.536-1.515-1.71-1.55-3.306-1.318-5.454.826-1.581 1.604-1.982 3.184-2.75Z"/>
  <path d="M550.552 367.453c2.799-5.924 8.358-12.489 14.653-14.723 5.187-1.84 12.225-.735 17.022 1.76 7.61 3.958 12.937 12.173 15.449 20.201 3.111 9.945 2.136 21.948-2.84 31.135-2.913 5.38-8.09 10.176-14.107 11.759-5.457 1.435-12.648-.312-17.31-3.227-7.319-4.576-11.528-11.065-15.053-18.792l.642-.335c.821.11 1.41.433 1.997 1.028 1.633 1.652 2.871 4.061 4.245 5.955 2.434 3.354 5.583 6.45 8.988 8.814 4.164 2.89 8.977 3.563 13.904 2.648l.858-.169 2.1-.432c4.167-1.214 8.336-5.315 10.272-9.153 5.688-11.27 5.825-21.121 2.076-33.064-2.088 6.517-3.331 11.334-9.752 14.844-3.622 1.979-7.63 1.651-11.43.373-4.804-1.614-7.994-4.675-10.218-9.213-3.49-7.12-3.277-11.527-.728-18.791-4.444 4.233-7.084 8.959-10.813 13.679l-.757.045c-.284-2.091-.106-2.41.802-4.342Z"/>
  <path fill="#D2D5CD" d="M572.22 356.683c2.703.034 5.809.133 8.344 1.183 3.431 1.419 6.381 4.5 7.813 7.9 1.359 3.225 1.241 6.474-.194 9.646-1.532 3.387-4.355 5.844-7.798 7.175-2.967.497-6.377.723-9.135-.699-3.693-1.903-6.697-5.79-7.723-9.798-.817-3.192-.853-7.48 1.049-10.34 1.773-2.666 4.595-4.336 7.644-5.067Z"/>
  <path d="M413.363 338.203c9.734-.979 20.945 3.134 28.72 8.854 12.297 9.046 19.306 21.607 21.474 36.629 2.268 15.712-2.227 33.845-11.807 46.529-9.504 12.582-21.343 18.019-36.628 20.141-11.248.913-23.401-3.974-32.081-10.904-10.955-8.746-17.119-21.799-18.584-35.596-1.787-16.821 2.639-33.606 13.481-46.747 9.146-11.085 21.199-17.495 35.425-18.906Z"/>
  <path fill="#D2D5CD" d="M398.766 363.515c3.111-.099 6.694-.068 9.669.923 5.954 1.982 10.646 7.25 13.099 12.89 1.386 3.185 1.261 6-.114 9.172-1.653 3.813-4.402 5.222-8.019 6.707-3.403.6-6.463 1.383-9.89.512-4.495-1.143-8.33-4.716-10.571-8.695-2.197-3.9-3.465-9.26-2.093-13.658 1.418-4.545 3.947-5.867 7.919-7.851Z"/>
  <path fill="#5D2420" d="M378.528 365.539c1.616-.324 3.187-1.627 4.587-2.475 1.998-1.208 4.093-2.209 6.198-3.214 1.183 1.92 1.639 2.334 1.6 4.65-.911 1.471-1.73 2.652-2.995 3.837-.777 3.1-1.558 5.919-1.406 9.163.285 6.084 4.489 12.442 9.078 16.235 4.791 3.959 9.673 5.557 15.91 4.699 6.214-.855 10.606-5.109 14.136-9.932 1.257 1.515 1.607 7.479 1.724 9.499.489 8.449-3.146 17.859-8.803 24.045-4.231 4.627-9.942 7.718-16.307 7.874-8.601.211-15.849-4.242-21.744-10.135-7.535-7.532-10.215-17.665-10.119-28.044.088-9.612 2.575-17.385 9.508-24.199l-1.367-2.003Z"/>
  <path fill="#270200" d="M378.528 365.539c1.616-.324 3.187-1.627 4.587-2.475 1.998-1.208 4.093-2.209 6.198-3.214 1.183 1.92 1.639 2.334 1.6 4.65-.911 1.471-1.73 2.652-2.995 3.837.291-1.296.873-2.802.386-4.087-3.452.635-5.462 1.439-8.409 3.292l-1.367-2.003Z"/>
  <path d="M393.55 397.537c1.945-.085 4.327-.167 6.221.346 3.592.973 8.062 3.432 9.786 6.869 1.82 3.627 2.051 8.444.632 12.254-1.116 2.998-3.367 4.69-6.194 5.945-3.197.111-6.033 0-9.008-1.321-3.407-1.512-6.25-5.243-7.488-8.717-1.093-3.068-1.785-6.848-.254-9.888l.281-.525c1.337-2.656 3.395-3.731 6.024-4.963Z"/>
  <path fill="#A95433" d="M394.608 399.062c2.091-.095 4.418-.076 6.422.614 2.428.836 5.106 3.466 6.168 5.78 1.369 2.986 1.452 6.472.311 9.544-1.074 2.892-3.546 4.443-6.259 5.611-1.299.261-3.693-.085-4.963-.49-3.201-1.021-5.915-4.182-7.277-7.149-1.298-2.825-2.027-6.085-.855-9.073 1.121-2.855 3.833-3.748 6.453-4.837Z"/>
  <path fill="#D2D5CD" d="M378.528 365.539c.308-.808.712-1.566 1.185-2.289 5.673-8.677 16.145-17.649 26.498-19.739l.789-.15c6.202-1.258 14.009-.486 19.844 2.085 14.06 6.194 24.194 16.016 29.756 30.452 5.325 13.823 2.96 29.427-2.876 42.655-5.134 11.638-14.17 19.859-25.994 24.313-11.36 4.279-23.035 2.745-33.859-2.278-12.156-5.642-18.232-15.248-22.721-27.413 4.039 5.536 7.569 10.532 13.311 14.41 6.483 4.379 15.33 7.248 23.168 5.624 7.283-1.509 13.382-6.698 17.284-12.878 6.094-9.649 7.328-22.604 4.799-33.546-2.229-9.647-7.282-19.316-15.955-24.578-7.78-4.719-15.964-4.585-24.444-2.357-2.105 1.005-4.2 2.006-6.198 3.214-1.4.848-2.971 2.151-4.587 2.475Z"/>
</svg>
