<svg xmlns="http://www.w3.org/2000/svg" xmlns:xlink="http://www.w3.org/1999/xlink">
  <defs>
    
    
  </defs>
  <g>
    <path stroke="none" fill="#D5D5D5" d="M207.95 25.05 Q207.5 22 204 22 L26 22 Q22.5 22 22.1 25.05 L22 26 22 59 Q22 63 26 63 L204 63 Q208 63 208 59 L208 26 207.95 25.05 M20 59.25 L20 26 Q20 20 26 20 L204 20 Q210 20 210 26 L210 59.25 Q209.85 65 204 65 L26 65 Q20.15 65 20 59.25"/>
    <path stroke="none" fill="#FFFFFF" d="M207.95 25.05 L208 26 208 59 Q208 63 204 63 L26 63 Q22 63 22 59 L22 26 22.1 25.05 Q22.5 22 26 22 L204 22 Q207.5 22 207.95 25.05 M205 25.55 L204.95 25.5 Q204.75 25 204 25 L26 25 Q25.25 25 25.05 25.5 L25.05 25.55 25 26 25 59 Q25 60 26 60 L204 60 Q205 60 205 59 L205 26 205 25.55"/>
    <path stroke="none" fill="#EEEEEE" d="M205 25.55 L205 26 205 59 Q205 60 204 60 L26 60 Q25 60 25 59 L25 26 25.05 25.55 25.05 25.5 Q25.25 25 26 25 L204 25 Q204.75 25 204.95 25.5 L205 25.55"/>
    
  </g>
</svg>